<svg width="65" height="21" viewBox="0 0 65 21" fill="none" xmlns="http://www.w3.org/2000/svg">
<path d="M3.68492 2.18543C3.45226 2.2321 3.22449 2.50002 3.02898 2.62402C2.51845 2.94781 3.24474 2.61964 3.41327 2.54428C3.50219 2.50451 4.22397 2.20606 4.67257 1.99162M4.67257 1.99162C4.88448 1.89032 5.03543 1.80776 5.02991 1.78008C5.00108 1.63549 4.81939 1.84124 4.67257 1.99162ZM4.67257 1.99162C4.63342 2.03171 4.59675 2.06787 4.56612 2.0924C4.1612 2.41669 3.7717 2.76226 3.38014 3.10247C3.17651 3.2794 2.80162 3.51295 2.66458 3.76035C2.55077 3.9658 3.10023 3.58472 3.30726 3.47461C3.70911 3.26087 4.09646 3.0261 4.47522 2.77562M4.47522 2.77562C4.57677 2.70846 4.67771 2.64017 4.77814 2.57086C4.97221 2.43692 5.47927 2.19446 5.59309 1.96614C5.73171 1.68809 5.06759 2.29821 4.82452 2.49111C4.70695 2.58442 4.59054 2.67933 4.47522 2.77562ZM4.47522 2.77562C4.14153 3.05423 3.8169 3.34441 3.4994 3.64074C3.45887 3.67856 3.00038 4.03878 3.02236 4.13248C3.03586 4.19002 3.14051 4.11601 3.19462 4.09261C3.35674 4.0225 3.60866 3.88731 3.75117 3.80687C4.28915 3.5032 4.79527 3.14859 5.32807 2.83666C5.46711 2.75526 5.89965 2.43533 6.09001 2.45124C6.31632 2.47016 5.74953 2.75292 5.57321 2.89647C5.49144 2.96305 5.40941 3.02942 5.32768 3.09614M5.32768 3.09614C5.00001 3.36365 4.67707 3.63694 4.39386 3.95306C4.36251 3.98806 4.23715 4.13798 4.16532 4.23861M5.32768 3.09614C4.3964 3.57149 3.73243 4.344 2.99917 5.07943C2.9676 5.11109 2.94191 5.13643 2.9215 5.15627M5.32768 3.09614C5.33662 3.09158 5.34558 3.08705 5.35457 3.08254M4.16532 4.23861C4.14626 4.26533 4.13097 4.28856 4.12221 4.30526C4.1046 4.33881 4.20311 4.31258 4.23484 4.29197C4.58454 4.06482 4.91298 3.80229 5.24411 3.54595M4.16532 4.23861C4.2481 4.17877 4.33091 4.11903 4.41373 4.05939C4.43637 4.04308 5.02644 3.58494 5.24411 3.54595M4.16532 4.23861C3.78963 4.51024 3.41466 4.78393 3.04224 5.05949C2.99512 5.09435 2.95336 5.12869 2.9215 5.15627M5.24411 3.54595C5.36847 3.44968 5.49321 3.35428 5.61959 3.26196C6.15842 2.86837 6.70895 2.47625 7.28924 2.14556C7.84859 1.82681 7.41156 2.22498 7.22961 2.39808L7.22875 2.3989C7.19149 2.43431 6.31227 3.27005 6.74594 3.02938C7.282 2.73188 7.7583 2.33009 8.28308 2.01266C8.46492 1.90267 8.99145 1.56552 8.85288 1.72691C8.63659 1.97883 8.37581 2.20068 8.14394 2.43795C7.83108 2.75811 7.52375 3.08839 7.28262 3.46796C7.23363 3.54507 7.0675 3.79318 7.29587 3.68725C7.66102 3.51787 7.96735 3.23561 8.29633 3.00944C8.76495 2.68728 9.26304 2.41348 9.78046 2.17879C9.87655 2.13521 10.2569 1.94266 9.98586 2.19208C9.67774 2.47566 9.34511 2.73176 9.03177 3.00944C9.00355 3.03445 8.47715 3.45514 8.5216 3.53441C8.56301 3.60825 9.15372 3.14943 9.16428 3.14235C9.65745 2.81167 10.1919 2.55724 10.7213 2.29176C10.9976 2.15318 11.622 1.68801 11.9603 1.7402C12.0486 1.75384 11.294 2.41556 11.2911 2.41802C10.8359 2.80552 10.3912 3.20695 9.96598 3.62745C9.84998 3.74215 9.49671 4.06025 9.64795 3.99958C10.1715 3.78952 10.6708 3.50394 11.1652 3.23538C11.9532 2.80738 12.7375 2.37878 13.5504 1.99937C13.6195 1.96714 14.1954 1.70644 14.319 1.65382C14.3866 1.62504 14.5501 1.52291 14.531 1.59401C14.4656 1.83758 13.83 2.14373 13.6564 2.27182C13.2477 2.57346 12.8432 2.8948 12.4837 3.25531C12.4126 3.32667 12.2066 3.57435 12.4705 3.42144C12.8602 3.19561 13.2232 2.93446 13.6233 2.7237C14.1408 2.4511 14.6734 2.17561 15.2201 1.96614C15.5069 1.85624 15.6847 1.82623 15.3658 2.07247C14.943 2.39892 14.5175 2.72212 14.1004 3.05596C13.9832 3.14972 13.2906 3.60312 13.345 3.8268C13.3791 3.96694 14.2292 3.44183 14.2527 3.42809C14.8688 3.06833 15.4904 2.72548 16.1278 2.40473C16.3759 2.27986 16.9055 1.90192 17.2144 1.91298C17.4804 1.92251 16.8177 2.26924 16.6115 2.43795C16.2204 2.75784 15.7931 3.07294 15.4652 3.46132C15.0121 3.998 16.0101 3.43113 16.0417 3.4148C17.0447 2.89549 18.0417 2.37348 19.0828 1.93292C19.4288 1.78649 20.1586 1.44834 19.4737 1.99272C18.8495 2.48885 18.2088 2.96405 17.5854 3.46132C17.5711 3.47273 16.6677 4.23332 16.6843 4.24545C16.7677 4.30629 17.7728 3.56647 17.8239 3.53441C18.8479 2.89296 19.8967 2.29596 20.9512 1.70698C21.2681 1.52999 22.1906 0.952222 21.8921 1.15875C21.4385 1.47249 20.9805 1.77644 20.5172 2.07579C19.8748 2.49091 19.243 2.91934 18.6356 3.3849C18.4462 3.53002 17.9153 3.95883 18.1486 3.90987C18.6897 3.79628 19.2443 3.40326 19.7288 3.15896C20.6003 2.71951 21.4823 2.30131 22.3625 1.87975C22.3798 1.87143 23.5657 1.24239 23.628 1.33152C23.697 1.4304 22.7161 2.17278 22.6838 2.19872C22.1263 2.64608 21.5625 3.08346 21.0241 3.55435C20.8981 3.66452 20.5479 3.99726 20.7061 3.94309C21.2453 3.75841 21.7551 3.37983 22.2498 3.1058C23.0221 2.67798 23.8043 2.26823 24.5986 1.88308C24.8613 1.75568 25.6262 1.3668 25.4169 1.57075C25.0254 1.95218 24.5591 2.27281 24.1315 2.61073C23.5411 3.07727 21.7167 4.38323 22.389 4.04609C23.5142 3.48181 24.597 2.83586 25.7382 2.30173C25.9965 2.18084 26.4421 1.90633 26.7486 1.90633C26.9795 1.90633 26.4037 2.21465 26.2252 2.36153C25.7788 2.72876 25.3339 3.10037 24.9199 3.50451C24.9185 3.50595 24.519 3.96527 24.5655 3.94309C24.9165 3.77543 25.2332 3.42456 25.5361 3.18886C26.0881 2.75934 26.6683 2.37314 27.2455 1.97943L27.25 1.97641C27.3595 1.90172 27.4482 1.84121 27.5411 1.77427M5.24411 3.54595C5.27769 3.53993 5.30241 3.54389 5.31481 3.56099C5.38246 3.65428 4.86268 4.2005 4.83115 4.23881C4.49673 4.64507 4.16467 5.05403 3.85718 5.48146C3.85629 5.4827 3.53203 6.02169 3.56897 6.00643C4.15093 5.7661 4.51823 5.04037 5.10942 4.82691C5.31526 4.75259 4.90125 5.21623 4.76158 5.38511C4.36003 5.8706 3.96617 6.36065 3.58222 6.86034C3.43686 7.04953 2.97708 7.48058 2.94616 7.74416C2.92464 7.92767 3.28881 7.59883 3.43646 7.48832C3.89742 7.1433 5.17646 6.0406 4.87421 6.53141C4.30751 7.45165 3.38906 8.16139 2.66789 8.95359C2.06276 9.61831 3.05477 9.04291 3.25425 8.95359C3.63379 8.78365 4.04363 8.59703 4.4303 8.44191C4.65214 8.35291 4.91589 8.13577 5.12267 8.25584C5.32912 8.37572 3.59293 10.5056 3.38345 10.7976C3.29108 10.9264 3.13397 11.1137 3.38677 10.9604C3.69679 10.7724 4.02381 10.6198 4.35742 10.4787C4.37631 10.4707 4.9341 10.2061 4.97028 10.3059C5.01618 10.4325 4.54568 10.7407 4.49655 10.7777C4.15191 11.0369 3.79121 11.2741 3.44308 11.5286C3.33957 11.6043 3.05245 11.7825 3.17806 11.8077C3.77994 11.9284 4.43766 11.754 5.04979 11.8509C5.72306 11.9575 4.14612 12.9126 3.99301 12.9972C3.9476 13.0223 3.04106 13.4326 3.04886 13.4757C3.0561 13.5156 3.78442 13.4302 3.79755 13.4291C4.29901 13.3906 4.80497 13.3606 5.30819 13.3693C5.46283 13.372 5.88195 13.382 5.59309 13.6219C5.42598 13.7606 3.85718 14.3664 3.85718 14.4459C3.85718 14.4992 3.96327 14.4379 4.0162 14.4326C4.23611 14.4105 4.28866 14.402 4.52637 14.3728C4.94734 14.3211 5.38601 14.2453 5.81173 14.2797C6.56659 14.3408 4.80166 15.2631 4.65226 15.343C4.62228 15.359 3.8919 15.7055 3.93007 15.7948C3.9682 15.8841 4.70503 15.7668 4.75826 15.7616C5.23236 15.7157 5.68263 15.599 6.14964 15.5157C6.31776 15.4858 6.77642 15.4371 6.65981 15.5623C6.23239 16.0208 5.45271 16.2009 4.88415 16.4062C4.14071 16.6746 6.42681 16.0117 7.21636 15.9809C8.35812 15.9364 6.99616 16.7443 6.67969 16.971C6.53045 17.078 6.10275 17.3292 6.09663 17.5625C6.09087 17.7822 6.53706 17.5561 6.75257 17.516C7.32502 17.4094 8.02841 17.1317 8.61436 17.197C8.93274 17.2325 7.99499 18.0077 7.96505 18.0343C7.93055 18.065 7.26071 18.6425 7.3555 18.6191C7.84341 18.4983 8.32425 18.314 8.79988 18.1539C9.30429 17.9841 9.81529 17.7855 10.3436 17.702C10.5296 17.6726 10.6766 17.6871 10.4496 17.8349C9.8891 18.2001 9.27211 18.5451 8.67399 18.845C8.4371 18.9638 9.1806 18.6896 9.43593 18.6191C9.99858 18.4636 10.5547 18.2837 11.1188 18.134C11.2672 18.0946 11.6058 17.9668 11.7781 18.0177C11.8193 18.0298 11.7263 18.0901 11.6886 18.1107C11.2663 18.3417 10.8052 18.5123 10.3602 18.6922C9.92665 18.8674 9.44069 19.0135 9.04502 19.2703C8.85668 19.3925 9.49623 19.2807 9.71752 19.2437C10.5491 19.1047 11.3718 18.9257 12.1822 18.6922C12.6712 18.5512 13.1722 18.319 13.6763 18.237C14.4559 18.1102 12.2603 18.9393 11.5429 19.2703L11.5388 19.2722C11.498 19.2908 11.1729 19.4392 11.1089 19.4796C11.0811 19.4972 11.169 19.5163 11.2017 19.5128C11.7728 19.4515 12.3388 19.2553 12.8779 19.0676C13.5678 18.8275 14.2393 18.5437 14.902 18.237C15.046 18.1703 15.4717 17.9854 15.3559 18.0941C14.8215 18.5955 13.9974 18.8417 13.5339 19.4098C13.3596 19.6235 14.033 19.1766 14.2859 19.0676C14.9843 18.7666 15.6967 18.489 16.4094 18.2237C16.9044 18.0393 17.4784 17.7848 18.0161 17.7585C18.2152 17.7488 17.7234 18.0347 17.5523 18.1373C17.0919 18.4133 16.6221 18.6676 16.1477 18.9181C15.9727 19.0104 15.47 19.2793 15.6673 19.267C16.1718 19.2353 16.743 18.9451 17.2044 18.7719C17.9013 18.5103 18.5901 18.2093 19.3147 18.031C19.3193 18.0298 20.0317 17.8332 19.7984 18.114C19.5055 18.4665 18.9827 18.675 18.5991 18.9015C18.5603 18.9244 17.5328 19.5154 17.5755 19.5826C17.6879 19.7598 19.8371 18.8082 19.8447 18.8051C20.8411 18.4024 21.0682 18.2907 22.0345 17.8881C22.0834 17.8677 22.9304 17.4977 23.1708 17.4595C23.7735 17.3635 22.2145 18.2217 21.7098 18.5659C21.2903 18.852 20.5023 19.2344 20.2224 19.7022C20.0847 19.9325 20.7125 19.4846 20.9479 19.3567C21.6818 18.9577 22.4445 18.6063 23.2072 18.2669C23.5548 18.1122 24.0675 17.815 24.4694 17.815C24.7537 17.815 23.9965 18.133 23.7472 18.2702C23.0095 18.6763 22.2436 19.0261 21.4945 19.4098L21.4886 19.4128C21.3921 19.4623 21.0414 19.6419 20.9115 19.7288C20.8675 19.7582 21.0177 19.7176 21.0672 19.6989C21.9028 19.3821 22.7298 19.0387 23.5617 18.7121C24.2201 18.4536 24.8763 18.1892 25.5287 17.9159M27.5411 1.77427C27.5793 1.74676 27.6183 1.71816 27.6596 1.68704C27.6868 1.66657 27.6038 1.7261 27.5768 1.74685C27.5649 1.75598 27.553 1.76513 27.5411 1.77427ZM27.5411 1.77427C27.1103 2.10585 26.6836 2.44472 26.2749 2.80344C26.1139 2.94475 23.9462 5.11116 24.3303 5.2954C24.6147 5.43185 25.4019 4.89585 25.5891 4.79368C26.4023 4.35004 27.2 3.79625 28.0605 3.44803C28.7143 3.18343 26.9611 4.33368 26.4041 4.7671C26.1675 4.95117 25.5367 5.44244 25.2512 5.6775C25.0525 5.84113 24.9981 5.91848 25.2247 5.77385C26.0852 5.22464 26.9182 4.62383 27.7517 4.02973M27.7517 4.02973C27.9847 3.86368 28.2177 3.69814 28.4514 3.53441C28.5241 3.48348 28.852 3.21382 28.5375 3.42809C28.2655 3.61344 28.0033 3.81555 27.7517 4.02973ZM27.7517 4.02973C27.5919 4.16583 27.4363 4.30681 27.2853 4.45145C26.8394 4.8784 26.4112 5.33579 26.0198 5.81372C25.9269 5.9271 25.6552 6.22712 25.9867 6.00643C26.8669 5.42041 27.7386 4.76424 28.6833 4.28532C28.7177 4.26787 28.8168 4.2262 28.7959 4.25874C28.7685 4.30145 28.5757 4.46792 28.5645 4.4776L28.564 4.47803C28.1471 4.84821 27.7489 5.22978 27.3714 5.64095C27.0443 5.99723 26.7212 6.36198 26.424 6.74405C26.262 6.95226 26.4026 6.90363 26.5697 6.81715C27.4511 6.36111 28.2728 5.76865 29.1338 5.26607M29.1338 5.26607C29.1976 5.2288 29.2617 5.19203 29.326 5.15585C29.3464 5.14433 29.4 5.0988 29.379 5.10933C29.3033 5.14728 29.2098 5.21073 29.1338 5.26607ZM29.1338 5.26607C29.1096 5.28367 29.0871 5.30045 29.0676 5.31533C28.6054 5.66708 28.1749 6.06359 27.7557 6.46495C27.5171 6.69338 27.1498 6.97095 26.9938 7.27567C26.9825 7.29774 27.5092 6.97753 27.5106 6.97664C28.0225 6.63713 28.5379 6.30197 29.0609 5.97985C29.1707 5.91228 29.8705 5.37792 30.0283 5.44824C30.1082 5.48386 29.9107 5.57901 29.8428 5.6343C29.5284 5.89033 29.6522 5.77079 29.3127 6.05295C28.9129 6.38529 28.5403 6.74963 28.1996 7.14277C28.1746 7.17164 28.0033 7.37158 27.9743 7.4418C27.9624 7.47075 28.0392 7.4691 28.0671 7.45509C28.4299 7.27318 28.7513 6.98209 29.0874 6.75734C29.2421 6.65395 29.4142 6.56124 29.5799 6.46134M29.5799 6.46134C29.7031 6.38702 29.8228 6.30872 29.9289 6.21908C30.0588 6.10935 29.8055 6.29334 29.5799 6.46134ZM29.5799 6.46134C29.488 6.52976 29.4007 6.59553 29.3458 6.63773C28.8239 7.03885 28.3118 7.45258 27.8286 7.90032C27.655 8.06118 27.0268 8.52296 27.0203 8.81736C27.0142 9.09165 27.538 8.63527 27.7822 8.51168C28.3075 8.24583 28.846 8.00337 29.3988 7.80064C29.9851 7.58568 29.6323 7.82029 29.3193 8.08639C28.8331 8.49989 28.5511 8.74179 28.0737 9.18949C27.6844 9.55459 27.0729 10.0224 26.8082 10.5119C26.6479 10.8084 28.246 10.1032 28.246 10.1032C28.7901 9.85242 28.874 9.79939 29.3723 9.56495C29.4832 9.51281 29.6653 9.31587 29.7136 9.42872C29.7468 9.50653 28.9787 10.0122 28.945 10.0368C28.4477 10.3986 27.9646 10.7699 27.5139 11.1897C27.3599 11.3331 26.8996 11.6748 27.1097 11.6748C27.4976 11.6748 27.9537 11.4359 28.299 11.2927C28.8398 11.0684 29.3698 10.8185 29.9289 10.6415C30.0614 10.5995 30.3613 10.4982 30.0548 10.6747C29.0386 11.2598 28.2316 12.0246 27.4774 12.9175C27.4709 12.9252 27.0253 13.3688 27.2853 13.3428C27.7132 13.2998 28.1665 13.0254 28.5541 12.861C29.0226 12.6621 29.4925 12.4629 29.9686 12.2828C30.3469 12.1398 30.0353 12.3496 29.909 12.4423C28.8551 13.2165 27.8544 14.063 26.9805 15.0406C26.8476 15.1893 26.4709 15.6107 26.6592 15.5456C27.0975 15.394 27.5185 15.0332 27.9147 14.8014C28.5204 14.447 29.1476 14.1349 29.7732 13.8179C29.8935 13.7569 30.0064 13.6728 30.1376 13.6418C30.1895 13.6295 30.0747 13.7197 30.027 13.7572L30.0217 13.7614C28.7475 14.7637 27.598 15.8961 26.4339 17.0242C26.1349 17.314 25.8161 17.6047 25.5287 17.9159M25.5287 17.9159C25.4332 18.0193 25.3412 18.125 25.2545 18.2336C25.1324 18.3867 25.6243 18.1006 25.7945 18.0044C26.4188 17.6515 27.0357 17.2914 27.6828 16.981C27.9622 16.847 28.8126 16.4777 28.5176 16.5723C27.98 16.7449 27.4545 17.0779 26.9408 17.3066C26.4724 17.5152 26.0015 17.7179 25.5287 17.9159ZM2.9215 5.15627C2.84619 5.22148 2.82621 5.24892 2.9215 5.15627ZM37.6742 4.81694C37.2201 4.8757 36.7889 5.2169 36.3955 5.4283C35.9177 5.68499 35.4332 5.92747 34.9478 6.16924C34.7069 6.28922 33.89 6.68594 34.7258 6.34202C35.8262 5.88924 36.9198 5.38572 37.9459 4.78039C38.0671 4.70887 38.2658 4.60921 38.4244 4.49656M38.4244 4.49656C38.4985 4.44397 38.5638 4.38855 38.6084 4.33184C38.6131 4.32586 38.5855 4.32642 38.5372 4.33136M38.4244 4.49656C38.2915 4.63223 38.0858 4.78127 38.0585 4.80365C37.2463 5.46927 36.3081 6.00977 35.4149 6.55799C34.7641 6.95741 35.4256 6.54689 34.8915 6.87031C34.8332 6.90558 34.6736 6.94624 34.7258 6.98993C34.8767 7.11606 35.1118 6.91519 35.3023 6.86699C35.5419 6.80634 35.7785 6.74019 36.0122 6.66755M38.4244 4.49656C38.4856 4.43411 38.5313 4.37448 38.5372 4.33136M38.5372 4.33136C38.3199 4.35351 37.6843 4.4638 37.6808 4.46474C36.865 4.68998 36.1365 5.11948 35.3354 5.37514C34.7808 5.55213 36.3526 4.80694 36.8725 4.54449C37.312 4.32261 37.7506 4.09855 38.1778 3.85338C38.2273 3.82494 38.6416 3.6345 38.6416 3.51448C38.6416 3.27645 37.1409 3.88454 37.0249 3.92648C36.9066 3.96925 36.4555 4.19926 36.7268 3.93977C37.2057 3.48156 37.7723 3.09703 38.3301 2.74363C38.7213 2.49586 38.4894 2.54105 38.2109 2.68715C38.1217 2.73395 38.0321 2.78168 37.9423 2.83034M38.5372 4.33136C38.5402 4.30848 38.5321 4.29024 38.509 4.27868M37.9423 2.83034C37.3742 3.13843 36.8009 3.48378 36.2895 3.86667C36.1078 4.00265 36.9632 3.48335 37.0448 3.42809C37.3425 3.22648 37.6427 3.02889 37.9423 2.83034ZM37.9423 2.83034C38.0076 2.7871 38.0728 2.74382 38.138 2.70044C38.2467 2.62807 38.3717 2.55416 38.4968 2.47497M38.4968 2.47497C38.702 2.34503 38.9076 2.20088 39.0424 2.02595C39.1039 1.94616 38.2757 2.39386 38.1778 2.45457C37.916 2.61678 37.652 2.7738 37.3827 2.92305C37.3804 2.92432 37.1776 3.03314 37.1442 3.05596C37.1193 3.0729 37.2028 3.04149 37.2303 3.02938C37.6528 2.84333 38.0719 2.65251 38.4968 2.47497ZM38.4968 2.47497C38.7714 2.36021 39.0485 2.251 39.3306 2.15221C39.5597 2.07196 39.7921 2.00255 40.0236 1.93023M40.0236 1.93023C40.1175 1.9009 40.2112 1.87109 40.3046 1.83988C40.6279 1.73178 40.2706 1.82297 40.2151 1.84653C40.1551 1.872 40.0906 1.89995 40.0236 1.93023ZM40.0236 1.93023C39.7191 2.06794 39.3645 2.25391 39.1583 2.4745C38.8854 2.76648 39.8966 2.16985 40.2714 2.03259C40.5241 1.94009 40.7803 1.87107 41.04 1.80333C41.1067 1.78595 41.2853 1.69594 41.2388 1.74685C40.8853 2.13365 40.2643 2.32641 39.8408 2.63066C39.8321 2.6369 39.1496 3.21991 39.4698 3.11576C39.7931 3.01058 40.108 2.78527 40.404 2.63066C41.1929 2.21855 42.0059 1.83628 42.8488 1.54749C43.2052 1.42539 43.0467 1.55709 42.8687 1.72359C42.4964 2.07172 42.1178 2.41312 41.7357 2.75028C41.4193 3.02943 41.0882 3.2969 40.7849 3.5909C40.7251 3.64887 41.2176 3.30009 41.2553 3.27525C42.0313 2.76535 42.8439 2.33519 43.6936 1.96282C43.9358 1.85668 44.1964 1.71704 44.4522 1.64053C44.6111 1.593 44.242 1.89907 44.1209 2.01266C43.5889 2.5117 42.9891 2.96881 42.5109 3.52112C42.0907 4.00642 42.4049 3.83249 42.7428 3.59754C43.5158 3.06002 44.2958 2.58184 45.1148 2.11898C45.7333 1.7694 44.735 2.59094 44.6377 2.67718C44.1647 3.09643 43.5934 3.5381 43.2463 4.076C43.1878 4.16681 43.1836 4.22537 43.2993 4.15242C43.6197 3.95047 43.8851 3.6626 44.1805 3.42809C44.8053 2.93215 45.5053 2.53856 46.1815 2.11898C46.2777 2.05927 46.5545 1.87107 46.4796 1.95617C46.2233 2.24749 45.911 2.49631 45.6448 2.78018C45.329 3.11701 44.8439 3.51034 44.6212 3.91984C44.5744 4.00584 44.7681 3.79042 44.8365 3.72048C45.2284 3.31973 45.6628 2.98795 46.1285 2.67718C46.6658 2.31863 47.2574 1.88112 47.8776 1.67375C48.3133 1.52811 47.2369 2.33371 46.9202 2.66721C46.6367 2.96584 45.8004 3.85886 46.1384 3.62412C46.7053 3.23051 47.2227 2.76554 47.7981 2.37815C47.8673 2.33158 49.1513 1.60638 49.1564 1.64053C49.1701 1.73201 48.914 1.99302 48.8847 2.02595C48.5572 2.39481 48.1789 2.7139 47.8544 3.08586C47.7988 3.14968 47.0768 4.24545 47.1588 4.24545C47.31 4.24545 47.6066 3.96923 47.6987 3.8999C48.2312 3.49937 48.7565 3.0933 49.3021 2.71041C49.6778 2.44679 50.0546 2.18551 50.4484 1.94953C50.5692 1.87712 50.8182 1.6192 50.826 1.76014C50.8313 1.8555 50.5255 2.08853 50.4947 2.11566C50.1254 2.44184 49.7542 2.76099 49.4015 3.1058C49.1515 3.35019 48.3833 4.05417 48.676 3.86335C49.3834 3.40219 50.0496 2.9108 50.7929 2.49776C51.2376 2.25063 51.6894 2.01884 52.1578 1.81995C52.2832 1.76667 52.677 1.55237 52.8468 1.59401C52.9923 1.62968 52.7073 1.86642 52.5984 1.96946C52.1632 2.38099 51.6629 2.71935 51.2037 3.10247C50.8999 3.35589 50.0316 4.15066 50.3722 3.94974C50.5503 3.84463 50.7128 3.66125 50.8724 3.53441C51.4211 3.09847 51.993 2.68443 52.5686 2.28511C53.2475 1.81406 53.9557 1.34814 54.7086 1.00259C54.7562 0.980729 54.6738 1.10344 54.6424 1.14546C54.3443 1.54399 54.0246 1.91961 53.6982 2.29508C53.3949 2.64409 53.0362 2.99735 52.7938 3.39486C52.6881 3.56821 53.1851 3.27307 53.357 3.1656C53.9365 2.80339 54.5197 2.45483 55.126 2.13892C55.3741 2.00969 56.0193 1.69248 56.2921 1.56078C56.4596 1.47994 56.6171 1.35066 56.8023 1.33485C56.9688 1.32063 56.5838 1.59087 56.4545 1.69701C56.137 1.95748 55.8076 2.20211 55.4971 2.47118C55.1543 2.76813 54.1865 3.72064 54.5463 3.4447C55.4255 2.7704 58.2256 0.980627 57.3456 1.65382C56.8351 2.04431 56.2724 2.45213 55.8317 2.91973C55.2125 3.57657 56.1275 2.97633 56.365 2.83002C57.126 2.36116 57.9195 1.91073 58.737 1.54749C58.8303 1.50604 59.0985 1.41157 59.0384 1.49433C58.8244 1.78957 58.4673 2.02817 58.2136 2.28843C57.935 2.57414 57.6711 2.87326 57.4185 3.18222C57.3315 3.28864 57.0521 3.5616 57.1833 3.52112C57.3449 3.47125 57.5514 3.2375 57.6769 3.14235C58.137 2.79336 58.6295 2.48915 59.1279 2.19872C59.2054 2.15358 60.7197 1.38818 60.7313 1.43452C60.7363 1.4548 60.6957 1.4563 60.6783 1.46775C60.5178 1.5732 60.4764 1.60185 60.3039 1.7402C59.8394 2.1129 59.4075 2.52688 59.002 2.96292C58.7191 3.26717 58.4466 3.58324 58.1937 3.91319C58.1135 4.01775 57.8804 4.31013 58.0015 4.25874C58.2644 4.1472 58.5236 3.88993 58.7502 3.72712C59.3579 3.29064 59.9866 2.89128 60.6385 2.52434C61.0072 2.31679 61.3821 2.11276 61.7715 1.94621C61.8229 1.92422 62.0872 1.79746 61.9239 1.96614C61.3322 2.57732 60.6744 3.06367 60.1482 3.74706C60.1117 3.79455 59.5065 4.51762 59.86 4.18897C60.5673 3.53152 61.2736 2.93029 62.1094 2.43795C62.4412 2.2425 62.7818 2.05216 63.143 1.9163C63.3061 1.85495 63.3832 1.84042 63.2358 1.97943C62.8211 2.37022 62.3661 2.71386 61.9338 3.08377M61.9338 3.08377C61.7551 3.23663 61.5802 3.39398 61.4137 3.56099C60.9803 3.99574 61.7406 3.39624 61.8179 3.33838C61.9103 3.26917 62.0034 3.1995 62.0973 3.12979M61.9338 3.08377C62.0709 2.99718 62.1069 3.04012 62.0973 3.12979M61.9338 3.08377C61.9233 3.09035 61.9123 3.09768 61.9007 3.1058C61.5528 3.34881 61.2607 3.68065 60.9499 3.96635C60.6543 4.23812 59.6879 4.95083 60.0356 4.75049C60.7061 4.36416 61.3153 3.87655 61.9779 3.47571M62.0973 3.12979C62.669 2.70525 63.2678 2.27964 63.8917 1.95285C64.275 1.75211 63.521 2.3534 63.4809 2.39144C63.0948 2.75736 61.966 3.87736 62.391 3.55767C62.68 3.34031 62.8829 3.02068 63.1761 2.80012C63.5106 2.54852 62.938 3.03273 62.8713 3.10912L62.8565 3.12616C62.504 3.53027 62.1407 3.94673 61.7119 4.27203C61.4176 4.49526 61.7599 3.87984 61.89 3.64712M62.0973 3.12979C62.087 3.22542 62.0248 3.37418 61.9779 3.47571M61.89 3.64712C61.9121 3.60759 61.9281 3.57909 61.9338 3.56764C61.9434 3.54844 61.9595 3.51575 61.9779 3.47571M61.89 3.64712C61.9964 3.5576 62.1027 3.46805 62.2088 3.37825C62.3609 3.24954 62.2138 3.33798 62.1492 3.37493C62.0916 3.40781 62.0346 3.44145 61.9779 3.47571M61.89 3.64712C61.6956 3.81077 61.5011 3.97433 61.3077 4.13913C60.7709 4.59647 60.2272 5.06669 59.7938 5.62766C59.7677 5.66137 59.6278 5.81744 59.7838 5.7805C60.1457 5.69479 60.5019 5.49542 60.8373 5.34191C61.0225 5.25714 61.3939 5.09993 61.6763 4.97622M61.6763 4.97622C61.9682 4.84837 62.1652 4.7563 61.9636 4.81694C61.8662 4.84627 61.7647 4.91649 61.6763 4.97622ZM61.6763 4.97622C61.6553 4.9904 61.6351 5.00399 61.6158 5.0163C61.2408 5.25564 60.8487 5.46791 60.4762 5.71072C60.4322 5.73943 59.7141 6.33446 59.9826 6.21244C60.5243 5.96624 61.0708 5.64649 61.5891 5.33675M61.5891 5.33675C61.645 5.30331 61.7007 5.26999 61.7559 5.2369L61.7914 5.21565C62.1543 4.99826 62.2639 4.79332 61.8245 5.14588C61.746 5.20885 61.6675 5.27246 61.5891 5.33675ZM61.5891 5.33675C61.0642 5.76728 60.5466 6.22861 60.1019 6.73741C59.8186 7.0614 60.3876 6.76052 60.4928 6.71747C60.8869 6.55613 62.0238 5.99236 61.6787 6.24234C61.2808 6.53062 60.8941 6.84579 60.5424 7.18928C60.4541 7.27561 59.4119 8.25549 59.5387 8.412C59.594 8.48024 60.7021 7.83633 60.8042 7.78735C60.9728 7.70639 61.1471 7.63533 61.3143 7.55145C61.3688 7.52412 61.0806 7.72204 61.0592 7.74084C60.538 8.19962 60.0373 8.67971 59.5022 9.12304C58.7972 9.70721 59.9261 9.06771 60.1284 8.96356C60.922 8.55478 61.7408 8.18287 62.4738 7.66774C62.594 7.58325 62.7095 7.49355 62.8316 7.4119C63.0236 7.28349 62.4537 7.67952 62.2817 7.83387C61.6251 8.42307 60.9877 9.02743 60.2973 9.57824C60.1012 9.73466 59.8875 9.87585 59.6977 10.0401C59.5874 10.1355 59.9724 9.94081 60.1019 9.87395C60.7725 9.52757 61.4708 9.24279 62.145 8.9058M62.145 8.9058C62.1508 8.9029 62.1566 8.90001 62.1624 8.8971C62.2495 8.85342 62.4935 8.69165 62.4076 8.73762C62.3178 8.78563 62.2304 8.84301 62.145 8.9058ZM62.145 8.9058C61.9244 9.06803 61.7171 9.26631 61.5164 9.43204C60.9316 9.91507 60.303 10.3969 59.8832 11.0402C59.4934 11.6376 60.8362 11.0394 61.0096 10.9638C61.4352 10.778 61.8843 10.5481 62.2618 10.2727C62.6761 9.97048 61.4537 10.9042 61.0493 11.2196C60.5742 11.5902 60.024 11.9808 59.7043 12.5055C59.5333 12.7861 60.8379 12.4546 60.9764 12.4257C61.111 12.3976 62.2815 12.076 61.904 12.4257C61.7397 12.5779 60.6976 13.4048 60.2754 13.9435M60.2754 13.9435C60.1292 14.13 60.0573 14.2819 60.1217 14.3595C60.1255 14.3641 60.1295 14.3685 60.1335 14.3729M60.2754 13.9435C60.4396 13.9244 60.5254 13.9622 60.3602 14.1402C60.287 14.2191 60.2113 14.2967 60.1335 14.3729M60.2754 13.9435C60.0431 13.9706 59.6539 14.1114 59.595 14.1302C59.1966 14.2577 58.801 14.3975 58.4114 14.5502M60.1335 14.3729C60.2995 14.5513 60.6766 14.5525 61.0618 14.4823M60.1335 14.3729C59.621 14.875 59.0161 15.3194 58.4124 15.7227M61.0618 14.4823C61.4754 14.4069 61.8984 14.2492 62.0796 14.1402C62.4656 13.9079 61.7492 14.1862 61.0618 14.4823ZM61.0618 14.4823C60.7342 14.6234 60.4131 14.7686 60.2211 14.8645C60.0246 14.9627 59.3817 15.2672 59.0353 15.5883M59.0353 15.5883C58.895 15.7184 58.8034 15.8513 58.8099 15.9743C58.8138 16.0498 59.0676 15.9953 59.3724 15.9021M59.0353 15.5883C59.3077 15.4305 59.5823 15.2773 59.8633 15.137C60.5036 14.8172 59.8134 15.4794 59.7573 15.5357C59.6319 15.6614 59.5034 15.7833 59.3724 15.9021M59.0353 15.5883C58.8272 15.709 58.6204 15.8323 58.4132 15.9549M59.3724 15.9021C59.7938 15.7732 60.313 15.5703 60.4047 15.5344L60.4099 15.5324C60.636 15.444 61.3286 15.2364 61.1156 15.3529C60.6822 15.59 60.2863 15.8915 59.8633 16.147C59.7638 16.2071 59.5173 16.3418 59.334 16.4546M59.3724 15.9021C59.0386 16.2047 58.6884 16.4873 58.3319 16.7623M59.334 16.4546C59.0853 16.6076 58.953 16.7205 59.4625 16.5524C59.6436 16.4926 60.8217 16.1173 60.8439 15.8945C60.8443 15.8907 59.7479 16.2921 59.6977 16.3132C59.5771 16.3638 59.4559 16.4106 59.334 16.4546ZM59.334 16.4546C59.0034 16.5738 58.6685 16.6712 58.3319 16.7623M58.3319 16.7623C58.0836 16.8295 57.8343 16.8933 57.5852 16.9599M58.3319 16.7623C58.1614 16.8938 57.9895 17.0237 57.8172 17.1531M57.5852 16.9599C57.3259 17.0291 57.0667 17.1014 56.8089 17.1837C56.6109 17.2469 57.1058 17.0319 57.3212 16.9351M57.5852 16.9599C57.6765 16.8767 57.765 16.7915 57.8499 16.7036M57.5852 16.9599C57.3991 17.1292 57.2015 17.2896 56.9997 17.4445M57.3212 16.9351C57.3636 16.916 57.3952 16.9015 57.4085 16.8946C57.589 16.8014 57.7617 16.6917 57.9445 16.6028M57.3212 16.9351C57.4984 16.86 57.6753 16.7844 57.8499 16.7036M57.3212 16.9351C56.9923 17.0743 56.6625 17.2116 56.3451 17.3764C56.1249 17.4908 55.8865 17.6166 55.6925 17.7751C55.587 17.8613 55.9694 17.7871 56.1 17.7485C56.4038 17.6589 56.7021 17.5528 56.9997 17.4445M57.9445 16.6028C57.9612 16.5947 57.978 16.5867 57.9949 16.579C58.0498 16.5538 58.3714 16.4451 58.1075 16.579C58.0224 16.6222 57.9364 16.6635 57.8499 16.7036M57.9445 16.6028C58.0687 16.4666 58.1837 16.324 58.2864 16.1736C58.3454 16.0873 58.3868 16.0151 58.4132 15.9549M57.9445 16.6028C57.9135 16.6368 57.882 16.6704 57.8499 16.7036M56.9997 17.4445C57.2715 17.3456 57.5428 17.2448 57.8172 17.1531M56.9997 17.4445C56.8556 17.5551 56.7094 17.6629 56.5638 17.7692M57.8172 17.1531C57.9172 17.1197 58.0176 17.0875 58.1186 17.057M57.8172 17.1531C57.7718 17.1872 57.7263 17.2213 57.6809 17.2555M58.1186 17.057C58.148 17.0481 58.1774 17.0394 58.2069 17.0309C58.329 16.9954 58.4933 16.9703 58.6111 16.9112C58.74 16.8466 58.3259 16.9668 58.1937 17.0242C58.1686 17.0351 58.1436 17.046 58.1186 17.057ZM58.1186 17.057C57.9718 17.1216 57.8261 17.1881 57.6809 17.2555M57.6809 17.2555C57.3091 17.4279 56.9403 17.6056 56.5638 17.7692M57.6809 17.2555C57.5448 17.3576 57.4087 17.4597 57.2731 17.5625M56.5638 17.7692C56.4324 17.8263 56.3 17.8818 56.1662 17.9346C55.9622 18.0152 55.747 18.0801 55.5468 18.1705C55.5313 18.1775 55.9546 18.019 56.0072 17.9977C56.1733 17.9307 56.3421 17.8668 56.513 17.8063M56.5638 17.7692C56.5469 17.7816 56.5299 17.794 56.513 17.8063M56.513 17.8063C56.7631 17.7177 57.0174 17.6362 57.2731 17.5625M56.513 17.8063C56.288 17.9703 56.0653 18.1311 55.8548 18.2934C55.783 18.3489 54.4957 19.2353 55.2055 18.948C55.3488 18.89 55.4956 18.837 55.6433 18.7847M57.2731 17.5625C57.532 17.4879 57.7923 17.4213 58.0512 17.3631C58.725 17.2118 57.8382 17.6584 57.6835 17.7485C57.0675 18.1076 56.4143 18.3916 55.7804 18.7142M57.2731 17.5625C57.1342 17.6679 56.9958 17.7739 56.8586 17.8814C56.5156 18.1501 56.1417 18.4253 55.7804 18.7142M55.7804 18.7142C55.7346 18.7375 55.6889 18.761 55.6433 18.7847M55.7804 18.7142C55.7639 18.7273 55.7474 18.7406 55.731 18.7538M55.6433 18.7847C55.4959 18.8616 55.3497 18.941 55.2055 19.0244C54.9939 19.1469 53.8883 19.67 54.7451 19.4231C54.7733 19.415 54.8015 19.4068 54.8297 19.3986M55.6433 18.7847C55.6725 18.7744 55.7018 18.7641 55.731 18.7538M54.8297 19.3986C54.9102 19.3753 54.9906 19.3517 55.071 19.3281M54.8297 19.3986C54.9439 19.3444 55.0577 19.2893 55.1712 19.2336M54.8297 19.3986C54.7645 19.4296 54.6991 19.4604 54.6336 19.4909M55.071 19.3281C55.7162 19.1384 56.3573 18.9456 57.021 18.8217L57.0227 18.8214C57.0865 18.8095 57.9336 18.651 57.5841 18.9314C57.1652 19.2675 56.508 19.3782 56.0072 19.5295C55.8541 19.5757 54.789 19.9104 55.507 19.6391C56.0702 19.4262 56.6499 19.2584 57.2197 19.0643L57.2241 19.0628C57.3186 19.0306 57.4568 18.9836 57.2462 19.0045C56.8329 19.0455 56.4355 19.1643 56.0392 19.2827L56.0139 19.2902C55.6896 19.3871 55.366 19.4854 55.0399 19.576C54.9651 19.5967 54.7554 19.6531 54.808 19.5959C54.8269 19.5754 54.846 19.5549 54.8654 19.5345M55.071 19.3281C55.0198 19.3772 54.9697 19.4268 54.9208 19.4769M55.071 19.3281C55.1039 19.2964 55.1374 19.2649 55.1712 19.2336M54.8654 19.5345C54.8837 19.5152 54.9022 19.496 54.9208 19.4769M54.8654 19.5345C54.6897 19.5996 54.3007 19.7042 54.1355 19.7687C54.0899 19.7864 53.2761 20.0718 53.6154 19.9348C53.9589 19.7961 54.2979 19.6471 54.6336 19.4909M54.8654 19.5345C54.9504 19.503 54.9854 19.4808 54.9208 19.4769M54.9208 19.4769C54.9141 19.4765 54.9064 19.4763 54.8974 19.4763C54.8095 19.4763 54.7216 19.4816 54.6336 19.4909M55.1712 19.2336C55.3491 19.0689 55.538 18.9093 55.731 18.7538M55.1712 19.2336C55.3245 19.1583 55.4772 19.0819 55.6296 19.0045C55.9605 18.8363 56.2892 18.661 56.5837 18.433C56.6375 18.3913 56.7052 18.3538 56.6002 18.4064C56.3239 18.545 56.0269 18.6495 55.731 18.7538M58.4132 15.9549C58.0831 16.15 57.7517 16.343 57.4119 16.5192C57.2327 16.612 56.6887 16.8591 56.8454 16.7318C57.1492 16.4852 57.5142 16.3036 57.8425 16.0939C58.0304 15.9739 58.2213 15.8504 58.4124 15.7227M58.4132 15.9549C58.465 15.8364 58.4585 15.7643 58.4124 15.7227M58.4124 15.7227C58.1976 15.5286 57.1232 15.9954 57.0971 15.4991C57.0804 15.1806 57.5825 14.7644 57.7763 14.5854C58.1744 14.2177 58.6167 13.9157 59.0948 13.6617C59.6446 13.3697 60.2434 13.1011 60.8373 12.9108C60.9577 12.8722 61.2684 12.7627 61.215 12.8776C61.1175 13.087 60.5981 13.3083 60.4232 13.4092C60.0162 13.6441 59.5967 13.8554 59.1809 14.0737C58.9564 14.1916 58.6877 14.384 58.4114 14.5502M58.4114 14.5502C58.3985 14.5553 58.3855 14.5604 58.3726 14.5655C58.1321 14.6604 57.4006 14.8967 57.657 14.8645C57.8955 14.8346 58.1567 14.7035 58.4114 14.5502ZM54.6336 19.4909C54.0691 19.5507 53.5046 19.7774 52.9462 19.8484C52.9012 19.8541 51.9293 19.9736 52.2571 19.7886C52.8814 19.4364 53.5529 19.1773 54.1753 18.8184C54.4155 18.6799 54.9799 18.2995 54.3409 18.5925C53.4044 19.0218 52.4802 19.4006 51.482 19.669C51.427 19.6838 50.4688 20.01 50.826 19.7288C51.4274 19.2554 52.0909 18.8651 52.7607 18.4994C52.8862 18.4309 53.5361 18.0675 52.9926 18.3267C52.1003 18.7521 51.3083 19.3718 50.3755 19.7155C50.3358 19.7301 49.1497 20.0446 49.1497 19.9946C49.1497 19.8518 49.9992 19.3518 50.1204 19.2404C50.3774 19.0041 50.5124 18.876 50.0674 19.041C49.2249 19.3535 48.4231 19.7512 47.5198 19.8617C47.4139 19.8747 47.1168 19.8898 47.2018 19.8252C47.4777 19.6155 47.8099 19.4538 48.1029 19.2703C48.2191 19.1975 48.3347 19.1239 48.4507 19.051C48.566 18.9786 48.8439 18.9464 48.7886 18.8217C48.7521 18.7393 47.3838 19.2309 47.3111 19.2537C46.7228 19.4383 45.8108 19.8206 45.1711 19.6923C44.9981 19.6576 45.3104 19.4455 45.3135 19.4431C45.6693 19.1659 46.0712 18.9448 46.4598 18.7187L46.4937 18.699C46.707 18.5749 46.9197 18.4512 47.1289 18.32C47.1784 18.289 47.3262 18.218 47.2681 18.2137C46.6473 18.1676 45.9634 18.5843 45.4328 18.8417C45.0063 19.0485 44.4334 19.463 43.9354 19.463C43.8717 19.463 44.0418 19.3927 44.0944 19.3567C44.3668 19.1699 44.618 18.9538 44.8895 18.7653C45.13 18.5983 45.3783 18.4429 45.6216 18.2802C45.7668 18.1831 46.1904 17.9346 46.0158 17.9346C45.8506 17.9346 45.6471 18.0553 45.5057 18.1207C45.0687 18.3225 44.6385 18.539 44.2004 18.7387C44.078 18.7945 43.136 19.1399 43.2 19.0709C43.5637 18.6788 44.0678 18.4258 44.4953 18.114C45.3813 17.4677 42.4443 18.9538 41.358 19.0975C40.9863 19.1467 41.4831 18.8628 41.5634 18.8118C41.9511 18.5653 42.5515 18.2941 42.809 17.8981C42.9366 17.702 42.2284 18.1093 42.1962 18.1273C42.0411 18.214 41.2667 18.749 41.0665 18.6191C40.9414 18.5378 42.4146 17.1629 41.4607 17.4528C40.9479 17.6087 40.4648 17.8494 39.9468 17.9911C39.8099 18.0285 40.3991 17.572 40.4901 17.4827C40.532 17.4416 41.0802 16.9546 40.9605 16.8979C40.6249 16.739 40.0159 17.0844 39.7215 17.2202C39.5834 17.284 39.3268 17.4777 39.5658 17.2468C39.734 17.0844 40.2463 16.8229 40.2913 16.579C40.3173 16.4381 38.6019 17.1341 39.2942 16.5092C39.4716 16.349 39.7254 16.2628 39.8905 16.0972C40.1159 15.8711 39.2499 16.1703 38.953 16.2866C38.4239 16.4938 38.7861 16.2629 39.0457 16.0606C39.2986 15.8636 40.0056 15.2853 39.2345 15.3862C39.1638 15.3954 38.2904 15.6118 38.2904 15.5423C38.2904 15.381 38.7894 15.0286 38.8999 14.9177C39.0958 14.7212 38.8362 14.7976 38.6614 14.8313C38.2496 14.9107 37.8994 15.2183 37.4887 15.2732C37.4841 15.2738 37.8696 14.9229 37.9359 14.8645C37.9811 14.8247 38.4508 14.3518 38.4097 14.3395C38.1725 14.2691 37.7404 14.491 37.5218 14.5655C37.481 14.5794 36.9888 14.8195 37.2104 14.622C37.4617 14.398 37.8193 14.3209 38.085 14.1136C38.2813 13.9605 37.4279 14.2466 37.3694 14.2698C37.113 14.3713 36.8571 14.4682 36.5942 14.5522C36.483 14.5877 36.2047 14.7386 36.253 14.6319C36.3025 14.5228 36.517 14.3973 36.6009 14.3262C36.8414 14.1225 37.0711 13.9081 37.3032 13.695C37.3462 13.6555 37.8437 13.2471 37.5218 13.3494C36.9362 13.5356 36.379 13.8003 35.8025 14.0106C35.4683 14.1325 36.1268 13.7171 36.1702 13.685C36.4828 13.4537 37.0242 13.1392 37.217 12.7846C37.2544 12.7159 37.0642 12.8186 36.9918 12.8477C36.7569 12.9419 36.5345 13.0627 36.316 13.1899C35.9813 13.3847 35.5744 13.689 36.1139 13.2364C36.6004 12.8283 37.1399 12.4696 37.5815 12.0104C38.0491 11.5239 37.6208 11.5675 37.1905 11.6881C36.4707 11.8899 35.764 12.1338 35.0372 12.3127C34.9953 12.3231 34.8728 12.3278 34.908 12.3028C35.1938 12.0998 35.4926 11.9116 35.7826 11.7147C36.4015 11.2944 37.1333 10.9226 37.6411 10.3624C38.1579 9.79218 37.2552 10.0275 36.9594 10.1046L36.952 10.1065C36.2601 10.2868 35.5897 10.5573 34.8915 10.7112C34.8061 10.7301 34.718 10.7534 34.8418 10.6913C35.1366 10.5435 35.4017 10.3433 35.6642 10.1449L35.6799 10.1331C36.0263 9.8715 36.6091 9.50982 36.7831 9.08317C36.8335 8.9596 35.9164 9.42273 35.8257 9.46859C35.7727 9.49536 35.4724 9.68586 35.3983 9.65798C35.2123 9.588 35.6869 9.38258 35.8455 9.26259C36.0809 9.08465 38.4033 7.76798 38.3335 7.60793C38.252 7.4211 36.3906 8.05477 36.2365 8.103C36.1261 8.13755 34.7668 8.73553 35.4016 8.31897C35.9972 7.92819 36.6148 7.56975 37.217 7.18928C37.4677 7.03094 38.2146 6.58365 37.4622 6.62444C36.7676 6.6621 36.103 6.94191 35.4513 7.1627C34.8021 7.38267 35.3083 7.111 35.6004 6.92347C35.7366 6.83606 35.8738 6.75055 36.0122 6.66755M36.0122 6.66755C36.5402 6.3511 37.0867 6.07101 37.6676 5.86024C37.8727 5.78582 38.082 5.7173 38.2937 5.66421C38.4218 5.63209 38.0653 5.79721 37.9492 5.86024C37.3262 6.1984 36.6812 6.45961 36.0122 6.66755ZM29.2663 8.58478C29.7105 8.20555 30.178 7.85022 30.642 7.49062M30.642 7.49062C31.2075 7.05243 31.7678 6.60791 32.2744 6.10611C32.8502 5.53573 31.6104 6.60509 30.642 7.49062ZM30.642 7.49062C30.3276 7.77812 30.0418 8.04624 29.856 8.23258C29.5627 8.52675 28.664 9.35336 29.0378 9.17288C29.5232 8.93845 29.9561 8.45383 30.3927 8.13955C31.0317 7.67955 31.6806 7.21958 32.3771 6.85038C33.0185 6.51035 32.0431 7.27162 31.9563 7.34544C31.3594 7.8534 30.7894 8.3712 30.2734 8.96355C30.0805 9.185 29.4782 9.8105 29.7268 9.65466C31.026 8.84026 32.0655 7.61534 33.3808 6.82379C33.7404 6.60741 32.7733 7.40396 32.4798 7.70429C31.97 8.22578 31.4649 8.78103 31.0486 9.3822C30.5333 10.1265 31.771 9.05856 31.8271 9.01339C32.4345 8.52459 33.0325 8.0244 33.6392 7.53483C33.8874 7.3346 34.5359 6.66725 34.4012 6.9567C34.3222 7.12649 34.1522 7.23618 34.0235 7.37202C33.6551 7.76103 33.2785 8.14231 32.9104 8.53162C32.6585 8.79809 32.1369 9.22145 32.0358 9.6015C32.0269 9.63501 32.1062 9.59047 32.1352 9.57159C32.3932 9.40377 32.639 9.21772 32.8972 9.04994C33.6206 8.5799 34.3758 8.164 35.1223 7.73291M35.1223 7.73291C35.1503 7.71674 35.1782 7.70056 35.2062 7.68435C35.3656 7.59195 35.5399 7.49385 35.6899 7.38199C35.8335 7.27486 35.7606 7.29112 35.6733 7.34877C35.4873 7.47161 35.303 7.5996 35.1223 7.73291ZM35.1223 7.73291C34.8011 7.96981 34.491 8.22352 34.2024 8.49507C33.9492 8.7333 33.3816 9.1759 33.3013 9.54833C33.2793 9.65037 33.5075 9.50414 33.5995 9.4553C33.9527 9.26772 34.293 9.05646 34.6397 8.85723C35.5515 8.3332 38.3009 6.80473 37.449 7.42186C36.5394 8.08067 35.5078 8.84822 34.8617 9.78424C34.715 9.99674 35.2141 9.40661 35.4016 9.22936C35.8809 8.77646 36.389 8.33141 36.9222 7.94351C37.0059 7.88267 37.6804 7.34378 37.8266 7.47503C37.9054 7.54575 37.4285 8.04417 37.3761 8.10632M2.79324 2.44265C2.61941 2.55677 2.44422 2.66775 2.26645 2.77402M2.26645 2.77402C1.99467 2.93647 1.71684 3.08789 1.42856 3.2226C1.08192 3.38458 2.11682 2.84686 2.2062 2.80204C2.22381 2.79321 2.24401 2.78386 2.26645 2.77402ZM2.26645 2.77402C2.61802 2.61974 3.51907 2.34227 3.609 1.99151C3.64742 1.84166 2.31136 2.32535 2.23669 2.35854C2.21427 2.36851 2.17538 2.38383 2.12489 2.40334M2.12489 2.40334C1.80893 2.52541 1.03848 2.81154 1.00162 2.97791C0.978606 3.08177 1.2071 2.92066 1.30276 2.87468C1.52038 2.7701 1.73133 2.64914 1.93936 2.52677C1.94193 2.52525 2.02605 2.47163 2.12489 2.40334ZM2.12489 2.40334C2.28726 2.29114 2.48935 2.13933 2.43492 2.11385C2.1979 2.00292 1.73771 2.40343 1.55816 2.51147M11.0195 12.0034C11.9783 11.1186 13.0486 10.3829 14.129 9.65753C15.3774 8.81935 16.6614 8.04442 17.9958 7.35214M14.9311 12.4483C15.8868 11.528 17.1796 10.88 18.3565 10.3024C19.832 9.57831 21.335 8.9128 22.835 8.24194M43.6834 11.154C46.7638 9.10174 50.0363 7.38619 53.281 5.613M48.9258 12.1651C50.386 11.026 52.0408 10.1249 53.6574 9.2351C55.1862 8.39357 56.712 7.54482 58.2411 6.70502" stroke="black" stroke-linecap="round"/>
</svg>
