<svg width="139" height="43" viewBox="0 0 139 43" fill="none" xmlns="http://www.w3.org/2000/svg">
<path d="M6.83863 3.55804C6.33269 3.65875 5.83739 4.23689 5.41224 4.50446C4.30203 5.20317 5.88142 4.49501 6.2479 4.33238C6.44128 4.24657 8.01086 3.60255 8.98638 3.1398M8.98638 3.1398C9.44721 2.92121 9.77547 2.74306 9.76346 2.68332C9.70077 2.37132 9.30566 2.81531 8.98638 3.1398ZM8.98638 3.1398C8.90125 3.22633 8.82151 3.30435 8.7549 3.35729C7.87436 4.05707 7.02735 4.80277 6.17586 5.53692C5.73305 5.91871 4.9178 6.42268 4.61979 6.95655C4.37232 7.39989 5.56718 6.57755 6.01737 6.33994C6.89123 5.87873 7.73357 5.37211 8.55722 4.8316M8.55722 4.8316C8.77806 4.68668 8.99756 4.53932 9.21596 4.38974C9.63797 4.10072 10.7406 3.57752 10.9881 3.08483C11.2896 2.48482 9.8454 3.80141 9.31682 4.21767C9.06115 4.41901 8.80801 4.62381 8.55722 4.8316ZM8.55722 4.8316C7.83159 5.43281 7.12565 6.05899 6.43521 6.69843C6.34707 6.78006 5.35002 7.55736 5.39783 7.75957C5.42718 7.88372 5.65476 7.72403 5.77244 7.67353C6.12498 7.52224 6.67279 7.23051 6.98271 7.05692C8.1526 6.40165 9.25321 5.63644 10.4118 4.96333C10.7142 4.78767 11.6548 4.0973 12.0688 4.13163C12.5609 4.17244 11.3283 4.78262 10.9449 5.09239C10.7671 5.23606 10.5887 5.37927 10.411 5.52326M10.411 5.52326C9.69844 6.1005 8.99617 6.69024 8.38029 7.3724C8.31212 7.44791 8.03951 7.77143 7.88332 7.98859M10.411 5.52326C8.38582 6.549 6.94194 8.21599 5.3474 9.80297C5.27875 9.8713 5.22288 9.92599 5.1785 9.9688M10.411 5.52326C10.4304 5.51341 10.4499 5.50363 10.4695 5.4939M7.88332 7.98859C7.84187 8.04623 7.80861 8.09637 7.78956 8.1324C7.75127 8.2048 7.9655 8.1482 8.0345 8.10372C8.79496 7.61357 9.50919 7.04704 10.2293 6.49389M7.88332 7.98859C8.06332 7.85945 8.2434 7.73053 8.42352 7.60183C8.47275 7.56665 9.75591 6.57804 10.2293 6.49389M7.88332 7.98859C7.06633 8.57472 6.25094 9.16533 5.44105 9.75995C5.33859 9.83518 5.24778 9.90928 5.1785 9.9688M10.2293 6.49389C10.4997 6.28614 10.7709 6.08028 11.0458 5.88107C12.2175 5.03174 13.4147 4.18559 14.6766 3.472C15.893 2.78417 14.9426 3.64338 14.5469 4.01691L14.5451 4.01868C14.464 4.0951 12.5521 5.89854 13.4951 5.37918C14.6609 4.73721 15.6966 3.87018 16.8378 3.18521C17.2332 2.94786 18.3782 2.22034 18.0769 2.5686C17.6066 3.11222 17.0395 3.59095 16.5352 4.10295C15.8549 4.79381 15.1866 5.50652 14.6622 6.3256C14.5557 6.49199 14.1944 7.0274 14.691 6.79881C15.4851 6.43329 16.1512 5.82421 16.8666 5.33616C17.8857 4.64097 18.9688 4.05014 20.094 3.5437C20.303 3.44966 21.13 3.03417 20.5407 3.57238C19.8706 4.18431 19.1473 4.73697 18.4659 5.33616C18.4046 5.39013 17.2598 6.29794 17.3565 6.469C17.4465 6.62832 18.7311 5.63824 18.7541 5.62296C19.8265 4.90938 20.9887 4.36037 22.14 3.78748C22.7409 3.48845 24.0987 2.48466 24.8343 2.59728C25.0264 2.62671 23.3853 4.05462 23.3791 4.05993C22.3892 4.89613 21.4222 5.76237 20.4975 6.66975C20.2452 6.91727 19.477 7.60371 19.8059 7.47277C20.9445 7.01949 22.0301 6.40324 23.1053 5.82371C24.8189 4.90013 26.5244 3.97526 28.2922 3.15653C28.4424 3.08699 29.6948 2.52443 29.9635 2.41087C30.1105 2.34876 30.4661 2.12838 30.4246 2.28181C30.2824 2.80741 28.9001 3.46806 28.5227 3.74446C27.634 4.39535 26.7542 5.08878 25.9725 5.86673C25.8178 6.02071 25.3699 6.55518 25.9437 6.22522C26.7912 5.73789 27.5806 5.17437 28.4507 4.71956C29.576 4.13133 30.7342 3.53685 31.923 3.08483C32.5468 2.84767 32.9335 2.78292 32.24 3.31427C31.3206 4.01873 30.3951 4.71615 29.4881 5.43654C29.2333 5.63887 27.7273 6.61726 27.8455 7.09994C27.9197 7.40233 29.7683 6.2692 29.8195 6.23956C31.1592 5.46323 32.5108 4.7234 33.8969 4.03125C34.4365 3.76181 35.5882 2.94624 36.2598 2.97011C36.8382 2.99067 35.3972 3.73888 34.9487 4.10295C34.0984 4.79323 33.1692 5.47319 32.4561 6.31126C31.4708 7.46936 33.641 6.24612 33.7096 6.21088C35.8908 5.09027 38.0589 3.96383 40.3229 3.01313C41.0754 2.69716 42.6624 1.96748 41.173 3.14219C39.8156 4.21278 38.4224 5.23822 37.0667 6.31126C37.0356 6.33588 35.071 7.97717 35.1072 8.00334C35.2886 8.13462 37.4741 6.53817 37.5854 6.469C39.8121 5.0848 42.0928 3.79654 44.386 2.52558C45.0751 2.14367 47.0812 0.8969 46.4319 1.34256C45.4456 2.01958 44.4496 2.67547 43.4423 3.32144C42.0453 4.21723 40.6713 5.14173 39.3504 6.14635C38.9386 6.45951 37.7841 7.38485 38.2914 7.27919C39.4681 7.03408 40.6742 6.18597 41.7277 5.6588C43.6228 4.71052 45.5409 3.80808 47.4549 2.89842C47.4927 2.88046 50.0715 1.52305 50.2068 1.71539C50.3569 1.92876 48.224 3.53074 48.1537 3.58672C46.9412 4.55207 45.7152 5.49589 44.5445 6.51202C44.2706 6.74975 43.5089 7.46777 43.8529 7.35089C45.0256 6.95236 46.1342 6.13543 47.2099 5.54409C48.8894 4.62091 50.5903 3.7367 52.3176 2.90559C52.889 2.63067 54.5522 1.79152 54.097 2.23162C53.2457 3.05471 52.2318 3.74658 51.3018 4.47578C50.0179 5.48253 46.0506 8.30065 47.5125 7.57315C49.9595 6.35548 52.3141 4.96159 54.7958 3.80899C55.3574 3.54814 56.3264 2.95577 56.993 2.95577C57.4952 2.95577 56.243 3.62108 55.8548 3.93804C54.8841 4.73047 53.9167 5.53237 53.0164 6.40447C53.0132 6.40758 52.1446 7.39875 52.2456 7.35089C53.0089 6.98909 53.6977 6.23195 54.3563 5.72333C55.5566 4.79648 56.8183 3.9631 58.0736 3.11351L58.0832 3.10699C58.3214 2.94582 58.5143 2.81524 58.7165 2.67079M10.2293 6.49389C10.3023 6.4809 10.356 6.48945 10.383 6.52636C10.5301 6.72765 9.39979 7.90634 9.33122 7.989C8.60401 8.86568 7.8819 9.74818 7.21324 10.6705C7.2113 10.6732 6.50616 11.8363 6.58649 11.8034C7.85201 11.2847 8.65076 9.71868 9.93636 9.25806C10.384 9.09769 9.48368 10.0982 9.17994 10.4626C8.30673 11.5102 7.45024 12.5677 6.61531 13.646C6.2992 14.0542 5.29937 14.9844 5.23214 15.5532C5.18533 15.9492 5.97726 15.2396 6.29833 15.0011C7.30074 14.2566 10.0821 11.8771 9.42488 12.9362C8.19252 14.922 6.19527 16.4535 4.627 18.163C3.31109 19.5974 5.46831 18.3557 5.90211 18.163C6.72745 17.7963 7.61869 17.3936 8.45954 17.0589C8.94196 16.8668 9.51552 16.3982 9.96518 16.6573C10.4141 16.916 6.63859 21.512 6.18307 22.1423C5.9822 22.4202 5.64054 22.8244 6.19027 22.4936C6.86444 22.0879 7.57558 21.7584 8.30105 21.454C8.34213 21.4367 9.55511 20.8658 9.63379 21.0811C9.73359 21.3543 8.71046 22.0195 8.60362 22.0992C7.85416 22.6587 7.06977 23.1705 6.31274 23.7196C6.08763 23.8829 5.46327 24.2675 5.73642 24.3219C7.04527 24.5824 8.47554 24.2059 9.80669 24.4151C11.2708 24.6452 7.84156 26.7061 7.50861 26.8887C7.40986 26.9429 5.4385 27.8283 5.45546 27.9212C5.4712 28.0073 7.05501 27.823 7.08357 27.8208C8.17404 27.7377 9.27431 27.6728 10.3686 27.6917C10.7049 27.6975 11.6163 27.719 10.9881 28.2366C10.6247 28.5361 7.21324 29.8432 7.21324 30.0148C7.21324 30.1299 7.44394 29.9975 7.55903 29.9861C8.03726 29.9385 8.15152 29.92 8.66845 29.857C9.58391 29.7455 10.5378 29.582 11.4636 29.6563C13.1051 29.788 9.26711 31.7783 8.94221 31.9506C8.87703 31.9852 7.28875 32.733 7.37173 32.9257C7.45465 33.1183 9.05698 32.8651 9.17273 32.854C10.2037 32.7549 11.1829 32.5031 12.1984 32.3234C12.564 32.2588 13.5614 32.1538 13.3078 32.4238C12.3784 33.4134 10.6829 33.802 9.44649 34.245C7.8298 34.8242 12.8012 33.3936 14.5181 33.3272C17.001 33.2313 14.0393 34.9746 13.3511 35.4638C13.0265 35.6945 12.0965 36.2368 12.0832 36.7401C12.0706 37.2143 13.0409 36.7263 13.5096 36.6397C14.7544 36.4097 16.284 35.8105 17.5582 35.9514C18.2506 36.0279 16.2113 37.7007 16.1462 37.7582C16.0712 37.8244 14.6146 39.0707 14.8207 39.0201C15.8817 38.7595 16.9273 38.3617 17.9616 38.0163C19.0585 37.6499 20.1698 37.2213 21.3187 37.0412C21.7232 36.9778 22.0428 37.0089 21.5492 37.328C20.3303 38.1159 18.9885 38.8604 17.6879 39.5076C17.1727 39.764 18.7896 39.1723 19.3448 39.0201C20.5683 38.6845 21.7776 38.2963 23.0045 37.9733C23.3271 37.8883 24.0634 37.6127 24.438 37.7223C24.5277 37.7486 24.3255 37.8786 24.2435 37.9231C23.3252 38.4216 22.3225 38.7897 21.3547 39.1778C20.4119 39.5559 19.3552 39.8713 18.4947 40.4254C18.0852 40.6891 19.4759 40.4478 19.9572 40.368C21.7655 40.068 23.5545 39.6819 25.3169 39.1778C26.3803 38.8737 27.4696 38.3725 28.566 38.1955C30.2612 37.9219 25.4868 39.7111 23.9266 40.4254L23.9177 40.4294C23.829 40.4695 23.1221 40.7898 22.9828 40.8771C22.9224 40.9149 23.1136 40.9563 23.1845 40.9488C24.4266 40.8163 25.6575 40.3929 26.8298 39.988C28.33 39.4698 29.7903 38.8575 31.2314 38.1955C31.5445 38.0517 32.4702 37.6528 32.2184 37.8872C31.0562 38.9693 29.2641 39.5004 28.2562 40.7265C27.8771 41.1876 29.3415 40.2232 29.8915 39.988C31.4104 39.3384 32.9596 38.7395 34.5093 38.1669C35.5858 37.7691 36.8341 37.2198 38.0032 37.1631C38.4362 37.1421 37.3668 37.759 36.9947 37.9804C35.9936 38.5761 34.9719 39.1249 33.9402 39.6654C33.5597 39.8646 32.4665 40.4449 32.8956 40.4182C33.9927 40.3499 35.2347 39.7237 36.2382 39.3499C37.7535 38.7854 39.2514 38.136 40.8272 37.751C40.8372 37.7486 42.3864 37.3243 41.879 37.9303C41.2421 38.6909 40.1053 39.1408 39.2711 39.6295C39.1867 39.679 36.9523 40.9542 37.0451 41.0993C37.2896 41.4817 41.9632 39.4282 41.9798 39.4216C44.1464 38.5525 44.6404 38.3115 46.7417 37.4427C46.848 37.3987 48.6899 36.6004 49.2127 36.5178C50.5232 36.3108 47.133 38.1627 46.0357 38.9054C45.1233 39.5228 43.4097 40.3478 42.8011 41.3574C42.5016 41.8543 43.8669 40.8879 44.3788 40.6118C45.9747 39.7509 47.6332 38.9926 49.2919 38.2601C50.0477 37.9263 51.1627 37.285 52.0366 37.285C52.6549 37.285 51.0082 37.9712 50.4662 38.2672C48.8619 39.1436 47.1965 39.8983 45.5674 40.7265L45.5547 40.733C45.3448 40.8396 44.5822 41.2273 44.2995 41.4148C44.2039 41.4782 44.5306 41.3907 44.6381 41.3503C46.4553 40.6665 48.2536 39.9257 50.0627 39.2208C51.4946 38.663 52.9214 38.0925 54.3401 37.5028M58.7165 2.67079C58.7995 2.61142 58.8842 2.54971 58.9741 2.48257C59.0333 2.43839 58.8527 2.56685 58.794 2.61162C58.7682 2.63133 58.7423 2.65106 58.7165 2.67079ZM58.7165 2.67079C57.7795 3.38632 56.8517 4.11754 55.9628 4.89163C55.6127 5.19657 50.8989 9.87145 51.7341 10.269C52.3527 10.5635 54.0644 9.40683 54.4716 9.18637C56.2399 8.22903 57.9747 7.03402 59.8458 6.28258C61.2675 5.71162 57.4551 8.19373 56.2438 9.12901C55.7294 9.52621 54.3575 10.5863 53.7368 11.0935C53.3047 11.4466 53.1864 11.6136 53.6792 11.3015C55.5504 10.1163 57.3618 8.81984 59.1744 7.53784M59.1744 7.53784C59.681 7.17951 60.1877 6.82231 60.6959 6.469C60.8539 6.35909 61.5671 5.77718 60.8832 6.23956C60.2915 6.63952 59.7214 7.07566 59.1744 7.53784ZM59.1744 7.53784C58.8268 7.83153 58.4885 8.13575 58.1601 8.44787C57.1905 9.36918 56.2593 10.3562 55.4081 11.3875C55.2062 11.6322 54.6152 12.2796 55.3361 11.8034C57.2503 10.5388 59.146 9.12284 61.2002 8.08938C61.275 8.05172 61.4904 7.9618 61.4451 8.03202C61.3856 8.12418 60.9663 8.4834 60.9419 8.50428L60.9408 8.50523C60.0342 9.30403 59.1682 10.1274 58.3474 11.0147C57.6361 11.7835 56.9334 12.5706 56.287 13.3951C55.9348 13.8444 56.2405 13.7394 56.604 13.5528C58.5207 12.5687 60.3075 11.2902 62.1798 10.2057M62.1798 10.2057C62.3186 10.1253 62.4579 10.046 62.5977 9.96788C62.6423 9.94302 62.7587 9.84478 62.713 9.8675C62.5484 9.94939 62.3452 10.0863 62.1798 10.2057ZM62.1798 10.2057C62.1271 10.2437 62.0783 10.2799 62.0358 10.312C61.0308 11.0711 60.0947 11.9267 59.183 12.7928C58.6642 13.2857 57.8654 13.8847 57.5261 14.5422C57.5015 14.5899 58.647 13.8989 58.6499 13.897C59.7632 13.1643 60.884 12.4411 62.0214 11.746C62.26 11.6002 63.782 10.4471 64.125 10.5988C64.2988 10.6757 63.8692 10.881 63.7216 11.0003C63.0379 11.5528 63.3071 11.2949 62.5689 11.9037C61.6994 12.6209 60.8893 13.4071 60.1484 14.2554C60.094 14.3177 59.7214 14.7492 59.6585 14.9007C59.6326 14.9632 59.7995 14.9596 59.8602 14.9294C60.649 14.5369 61.3481 13.9087 62.079 13.4237C62.4153 13.2006 62.7897 13.0006 63.1499 12.785M63.1499 12.785C63.4179 12.6246 63.6781 12.4557 63.9089 12.2622C64.1914 12.0254 63.6405 12.4225 63.1499 12.785ZM63.1499 12.785C62.9501 12.9326 62.7604 13.0746 62.641 13.1656C61.506 14.0312 60.3924 14.924 59.3415 15.8902C58.964 16.2373 57.5979 17.2338 57.5837 17.869C57.5705 18.4609 58.7096 17.4761 59.2407 17.2094C60.383 16.6357 61.5539 16.1125 62.7562 15.6751C64.0311 15.2112 63.2638 15.7175 62.5833 16.2917C61.5259 17.184 60.9127 17.706 59.8746 18.6721C59.028 19.4599 57.6983 20.4694 57.1227 21.5257C56.7739 22.1656 60.2492 20.6438 60.2492 20.6438C61.4323 20.1026 61.6148 19.9882 62.6986 19.4823C62.9396 19.3697 63.3357 18.9448 63.4406 19.1883C63.5129 19.3562 61.8426 20.4474 61.7693 20.5004C60.6878 21.2813 59.6373 22.0824 58.6571 22.9883C58.3223 23.2977 57.3214 24.0351 57.7782 24.0351C58.6217 24.0351 59.6137 23.5196 60.3645 23.2106C61.5405 22.7266 62.6931 22.1874 63.9089 21.8053C64.1971 21.7147 64.8492 21.4962 64.1826 21.877C61.9728 23.1396 60.2179 24.79 58.5779 26.7166C58.5636 26.7334 57.5947 27.6906 58.1601 27.6344C59.0907 27.5417 60.0765 26.9496 60.9192 26.5947C61.9381 26.1657 62.9598 25.7358 63.9953 25.3472C64.8178 25.0385 64.1402 25.4912 63.8656 25.6913C61.5738 27.3619 59.3976 29.1886 57.4973 31.2982C57.2082 31.619 56.3892 32.5285 56.7985 32.388C57.7518 32.0608 58.6671 31.2822 59.5288 30.7819C60.8461 30.0172 62.21 29.3437 63.5703 28.6597C63.832 28.5281 64.0773 28.3465 64.3627 28.2796C64.4756 28.2532 64.2259 28.4479 64.1222 28.5287L64.1106 28.5378C61.3398 30.7006 58.8401 33.1442 56.3086 35.5785C55.6584 36.2038 54.9651 36.8311 54.3401 37.5028M54.3401 37.5028C54.1325 37.7259 53.9325 37.9539 53.744 38.1884C53.4785 38.5187 54.548 37.9014 54.9183 37.6936C56.2758 36.9321 57.6173 36.1552 59.0245 35.4853C59.632 35.1962 61.4813 34.3992 60.84 34.6035C59.6707 34.9758 58.5281 35.6944 57.4108 36.188C56.3923 36.638 55.3683 37.0754 54.3401 37.5028ZM5.1785 9.9688C5.01473 10.1095 4.97128 10.1687 5.1785 9.9688ZM80.7519 9.23656C79.7644 9.36336 78.8267 10.0996 77.9711 10.5558C76.9322 11.1097 75.8784 11.633 74.823 12.1547C74.2992 12.4136 72.5226 13.2697 74.3403 12.5275C76.7332 11.5505 79.1114 10.4639 81.3426 9.15769C81.6062 9.00334 82.0383 8.7883 82.3832 8.5452M82.3832 8.5452C82.5443 8.43173 82.6863 8.31214 82.7834 8.18976C82.7936 8.17685 82.7336 8.17807 82.6284 8.18872M82.3832 8.5452C82.0943 8.83797 81.6469 9.15958 81.5875 9.20788C79.8212 10.6442 77.7811 11.8105 75.8387 12.9936C74.4235 13.8555 75.8619 12.9696 74.7005 13.6675C74.5738 13.7436 74.2266 13.8314 74.3403 13.9256C74.6685 14.1978 75.1796 13.7644 75.5938 13.6603C76.1149 13.5295 76.6295 13.3867 77.1377 13.23M82.3832 8.5452C82.5163 8.41044 82.6158 8.28178 82.6284 8.18872M82.6284 8.18872C82.156 8.23653 80.7737 8.47451 80.7663 8.47655C78.9921 8.96258 77.408 9.8894 75.6658 10.4411C74.4597 10.823 77.878 9.21498 79.0085 8.64863C79.9642 8.16984 80.9179 7.68633 81.8469 7.1573C81.9547 7.09592 82.8554 6.68497 82.8554 6.42598C82.8554 5.91233 79.5921 7.22454 79.3399 7.31504C79.0827 7.40733 78.1017 7.90367 78.6915 7.34372C79.7331 6.35495 80.9651 5.52517 82.1783 4.76258C83.0289 4.2279 82.5245 4.32541 81.9189 4.64069C81.7249 4.74168 81.5301 4.84468 81.3349 4.94968M82.6284 8.18872C82.6351 8.13934 82.6174 8.09998 82.5673 8.07504M81.3349 4.94968C80.0994 5.61451 78.8527 6.35974 77.7406 7.18598C77.3456 7.47941 79.2057 6.35881 79.3831 6.23956C80.0304 5.80451 80.6833 5.37813 81.3349 4.94968ZM81.3349 4.94968C81.4768 4.85638 81.6187 4.76298 81.7604 4.66937C81.9969 4.5132 82.2686 4.35371 82.5406 4.18284M82.5406 4.18284C82.987 3.90244 83.434 3.59137 83.7271 3.21389C83.8608 3.04172 82.0598 4.00781 81.8469 4.1388C81.2777 4.48885 80.7035 4.82767 80.1179 5.14975C80.1129 5.15249 79.672 5.3873 79.5992 5.43654C79.5452 5.4731 79.7267 5.40532 79.7865 5.37918C80.7053 4.97772 81.6166 4.56595 82.5406 4.18284ZM82.5406 4.18284C83.1379 3.9352 83.7405 3.69953 84.3539 3.48634C84.8521 3.31317 85.3574 3.16339 85.8608 3.00734M85.8608 3.00734C86.065 2.94404 86.2689 2.87972 86.4719 2.81238C87.175 2.57911 86.3981 2.77589 86.2773 2.82672C86.1468 2.88168 86.0064 2.94199 85.8608 3.00734ZM85.8608 3.00734C85.1986 3.3045 84.4277 3.7058 83.9793 4.18182C83.3858 4.81188 85.5847 3.52441 86.3998 3.22823C86.9492 3.02861 87.5063 2.87967 88.0711 2.73351C88.2161 2.69601 88.6046 2.50176 88.5034 2.61162C87.7346 3.44629 86.3844 3.86225 85.4633 4.5188C85.4444 4.53226 83.9602 5.79034 84.6564 5.5656C85.3596 5.33862 86.0444 4.85242 86.688 4.5188C88.4036 3.62951 90.1715 2.80461 92.0045 2.18143C92.7796 1.91794 92.4349 2.20214 92.0478 2.56143C91.2383 3.31265 90.415 4.04936 89.584 4.77691C88.896 5.37929 88.1759 5.95648 87.5164 6.59088C87.3864 6.71599 88.4572 5.96335 88.5394 5.90975C90.2268 4.80944 91.9939 3.8812 93.8416 3.07766C94.3682 2.84862 94.935 2.5473 95.4913 2.38219C95.8368 2.27963 95.0342 2.9401 94.7709 3.18521C93.614 4.26209 92.3097 5.24848 91.2697 6.44032C90.356 7.48753 91.0393 7.1122 91.774 6.60522C93.455 5.4453 95.1511 4.41344 96.9321 3.41465C98.2772 2.66028 96.1063 4.43309 95.8947 4.61918C94.8661 5.52388 93.6237 6.47696 92.869 7.63768C92.7416 7.83364 92.7326 7.96002 92.9843 7.80259C93.6809 7.36681 94.2581 6.74562 94.9006 6.23956C96.2592 5.16937 97.7814 4.32005 99.2518 3.41465C99.461 3.28579 100.063 2.87968 99.9001 3.06332C99.3428 3.69196 98.6636 4.22888 98.0847 4.84144C97.3979 5.56829 96.343 6.41704 95.8587 7.3007C95.757 7.4863 96.1782 7.02143 96.327 6.87051C97.1793 6.00574 98.1238 5.28978 99.1365 4.61918C100.305 3.84547 101.591 2.90135 102.94 2.45389C103.888 2.13961 101.547 3.878 100.858 4.59767C100.242 5.24207 98.423 7.16911 99.1581 6.66258C100.391 5.81321 101.516 4.80986 102.767 3.97389C102.918 3.87342 105.71 2.3085 105.721 2.38219C105.751 2.57961 105.194 3.14283 105.13 3.21389C104.418 4.00985 103.595 4.69841 102.89 5.50107C102.769 5.63877 101.199 8.00334 101.377 8.00334C101.706 8.00334 102.351 7.40728 102.551 7.25768C103.709 6.39337 104.851 5.51712 106.038 4.69088C106.855 4.12203 107.674 3.55821 108.531 3.04898C108.793 2.89273 109.335 2.33616 109.352 2.6403C109.363 2.84608 108.698 3.34894 108.631 3.40748C107.828 4.11135 107.021 4.80004 106.254 5.54409C105.71 6.07146 104.04 7.59058 104.676 7.17881C106.215 6.18367 107.663 5.1233 109.28 4.23201C110.247 3.69873 111.229 3.19856 112.248 2.76936C112.521 2.6544 113.377 2.19196 113.746 2.28181C114.063 2.35878 113.443 2.86964 113.206 3.092C112.26 3.98002 111.172 4.71017 110.173 5.53692C109.512 6.08376 107.624 7.7988 108.365 7.36523C108.752 7.13841 109.106 6.74269 109.453 6.469C110.646 5.52828 111.89 4.63483 113.141 3.77314C114.618 2.75666 116.158 1.75125 117.795 1.00558C117.898 0.958415 117.719 1.22321 117.651 1.31388C117.003 2.17386 116.307 2.98442 115.598 3.79465C114.938 4.54776 114.158 5.31006 113.631 6.16786C113.401 6.54194 114.482 5.90505 114.856 5.67314C116.116 4.89152 117.384 4.13937 118.703 3.45766C119.242 3.17881 120.645 2.49429 121.238 2.21011C121.603 2.03565 121.945 1.75668 122.348 1.72256C122.71 1.69189 121.873 2.27503 121.591 2.50408C120.901 3.06614 120.185 3.59403 119.509 4.17465C118.764 4.81544 116.66 6.87085 117.442 6.27541C119.354 4.82034 125.443 0.958196 123.529 2.41087C122.419 3.25352 121.196 4.13354 120.237 5.14258C118.891 6.55996 120.881 5.26472 121.397 4.94899C123.052 3.93724 124.777 2.96526 126.555 2.18143C126.758 2.09199 127.341 1.88813 127.211 2.06672C126.745 2.70381 125.969 3.21868 125.417 3.78031C124.811 4.39683 124.237 5.04231 123.688 5.70899C123.499 5.93865 122.891 6.52767 123.176 6.44032C123.528 6.33269 123.977 5.82829 124.25 5.62296C125.25 4.86989 126.321 4.21342 127.405 3.58672C127.574 3.48931 130.867 1.83765 130.892 1.93766C130.903 1.98141 130.814 1.98464 130.777 2.00936C130.428 2.2369 130.337 2.29872 129.963 2.59728C128.952 3.40152 128.013 4.29484 127.131 5.23578C126.516 5.89231 125.923 6.57435 125.374 7.28636C125.199 7.51199 124.692 8.14291 124.956 8.03202C125.527 7.79132 126.091 7.23617 126.584 6.88485C127.905 5.94295 129.273 5.08118 130.69 4.28937C131.492 3.8415 132.307 3.40122 133.154 3.04181C133.266 2.99437 133.84 2.72083 133.485 3.08483C132.199 4.4037 130.768 5.45319 129.624 6.92787C129.544 7.03035 128.228 8.59065 128.997 7.88146C130.535 6.46275 132.071 5.16536 133.889 4.10295C134.61 3.68119 135.351 3.27046 136.136 2.97728C136.491 2.84488 136.659 2.81354 136.338 3.11351C135.436 3.95679 134.447 4.69834 133.507 5.49656M133.507 5.49656C133.118 5.82642 132.738 6.16596 132.376 6.52636C131.433 7.46448 133.087 6.17084 133.255 6.04598C133.456 5.89664 133.658 5.74629 133.862 5.59587M133.507 5.49656C133.805 5.30971 133.883 5.40236 133.862 5.59587M133.507 5.49656C133.484 5.51076 133.46 5.52657 133.435 5.54409C132.678 6.06848 132.043 6.78455 131.367 7.40108C130.724 7.98753 128.623 9.52548 129.379 9.09316C130.837 8.25951 132.162 7.20729 133.603 6.34233M133.862 5.59587C135.106 4.67974 136.408 3.76133 137.764 3.05615C138.598 2.62297 136.958 3.92049 136.871 4.00257C136.031 4.7922 133.577 7.20904 134.501 6.51919C135.129 6.05014 135.571 5.36041 136.208 4.88446C136.936 4.34154 135.691 5.38642 135.546 5.55126L135.513 5.58803C134.747 6.46005 133.957 7.35873 133.024 8.0607C132.384 8.54239 133.129 7.21439 133.412 6.71222M133.862 5.59587C133.84 5.80221 133.705 6.12323 133.603 6.34233M133.412 6.71222C133.46 6.62689 133.494 6.56541 133.507 6.5407C133.528 6.49927 133.563 6.42872 133.603 6.34233M133.412 6.71222C133.643 6.51903 133.874 6.32579 134.105 6.13201C134.436 5.85427 134.116 6.04511 133.975 6.12484C133.85 6.1958 133.726 6.26838 133.603 6.34233M133.412 6.71222C132.989 7.06535 132.566 7.41829 132.145 7.77391C130.978 8.7608 129.796 9.77549 128.853 10.986C128.796 11.0587 128.492 11.3955 128.831 11.3158C129.619 11.1309 130.393 10.7006 131.122 10.3694C131.525 10.1865 132.333 9.84722 132.947 9.58027M132.947 9.58027C133.582 9.30438 134.01 9.1057 133.572 9.23656C133.36 9.29985 133.139 9.45137 132.947 9.58027ZM132.947 9.58027C132.901 9.61087 132.857 9.64018 132.815 9.66675C132 10.1832 131.147 10.6413 130.337 11.1652C130.241 11.2272 128.68 12.5112 129.264 12.2479C130.442 11.7166 131.63 11.0266 132.757 10.3582M132.757 10.3582C132.879 10.2861 133 10.2142 133.12 10.1428L133.197 10.0969C133.986 9.62783 134.225 9.18559 133.269 9.94637C133.098 10.0823 132.928 10.2195 132.757 10.3582ZM132.757 10.3582C131.616 11.2873 130.49 12.2828 129.523 13.3807C128.907 14.0799 130.144 13.4306 130.373 13.3377C131.23 12.9895 133.703 11.773 132.952 12.3124C132.087 12.9345 131.246 13.6146 130.481 14.3558C130.289 14.5421 128.023 16.6566 128.298 16.9943C128.419 17.1416 130.828 15.7521 131.05 15.6464C131.417 15.4717 131.796 15.3183 132.16 15.1373C132.278 15.0784 131.651 15.5055 131.605 15.546C130.472 16.536 129.383 17.572 128.219 18.5287C126.686 19.7892 129.141 18.4093 129.581 18.1845C131.307 17.3024 133.087 16.4999 134.681 15.3883C134.943 15.206 135.194 15.0124 135.459 14.8362C135.877 14.5591 134.637 15.4137 134.263 15.7468C132.836 17.0182 131.449 18.3223 129.948 19.5109C129.522 19.8485 129.057 20.1531 128.644 20.5075C128.404 20.7134 129.242 20.2933 129.523 20.1491C130.981 19.4016 132.5 18.7871 133.966 18.0599M133.966 18.0599C133.979 18.0536 133.991 18.0474 134.004 18.0411C134.193 17.9468 134.724 17.5978 134.537 17.697C134.342 17.8006 134.152 17.9244 133.966 18.0599ZM133.966 18.0599C133.486 18.41 133.036 18.8378 132.599 19.1955C131.327 20.2378 129.961 21.2775 129.048 22.6657C128.2 23.9547 131.12 22.664 131.497 22.5008C132.423 22.0999 133.399 21.6037 134.22 21.0094C135.121 20.3574 132.463 22.3722 131.583 23.0528C130.55 23.8526 129.354 24.6954 128.659 25.8276C128.287 26.4332 131.124 25.7178 131.425 25.6555C131.718 25.5949 134.263 24.9008 133.442 25.6555C133.085 25.984 130.819 27.7682 129.9 28.9308M129.9 28.9308C129.583 29.3331 129.426 29.661 129.566 29.8283C129.575 29.8382 129.583 29.8479 129.592 29.8573M129.9 28.9308C130.258 28.8895 130.444 28.971 130.085 29.3551C129.926 29.5255 129.761 29.6928 129.592 29.8573M129.9 28.9308C129.395 28.9891 128.549 29.293 128.421 29.3336C127.555 29.6086 126.694 29.9103 125.847 30.2399M129.592 29.8573C129.953 30.2423 130.773 30.2449 131.611 30.0934M129.592 29.8573C128.477 30.9409 127.162 31.8997 125.849 32.77M131.611 30.0934C132.51 29.9307 133.43 29.5904 133.824 29.3551C134.663 28.8539 133.105 29.4544 131.611 30.0934ZM131.611 30.0934C130.898 30.3979 130.2 30.7112 129.782 30.9182C129.355 31.13 127.957 31.787 127.204 32.4801M127.204 32.4801C126.899 32.7608 126.699 33.0475 126.714 33.3129C126.722 33.4759 127.274 33.3584 127.937 33.1572M127.204 32.4801C127.796 32.1394 128.393 31.8089 129.004 31.5061C130.397 30.8161 128.896 32.2451 128.774 32.3665C128.501 32.6378 128.222 32.9009 127.937 33.1572M127.204 32.4801C126.751 32.7404 126.302 33.0067 125.851 33.271M127.937 33.1572C128.853 32.8791 129.982 32.4411 130.182 32.3637L130.193 32.3593C130.685 32.1686 132.191 31.7206 131.727 31.9721C130.785 32.4837 129.924 33.1343 129.004 33.6857C128.788 33.8154 128.252 34.1059 127.853 34.3493M127.937 33.1572C127.211 33.8102 126.449 34.42 125.674 35.0134M127.853 34.3493C127.313 34.6796 127.025 34.9231 128.133 34.5604C128.527 34.4315 131.088 33.6216 131.137 33.1408C131.138 33.1325 128.753 33.9987 128.644 34.0442C128.382 34.1534 128.118 34.2546 127.853 34.3493ZM127.853 34.3493C127.134 34.6065 126.406 34.8168 125.674 35.0134M125.674 35.0134C125.134 35.1584 124.592 35.2961 124.05 35.4397M125.674 35.0134C125.303 35.2972 124.929 35.5774 124.555 35.8567M124.05 35.4397C123.486 35.5892 122.923 35.7452 122.362 35.9227C121.932 36.0591 123.008 35.5952 123.476 35.3862M124.05 35.4397C124.249 35.2604 124.441 35.0763 124.626 34.8867M124.05 35.4397C123.646 35.8052 123.216 36.1513 122.777 36.4855M123.476 35.3862C123.569 35.345 123.637 35.3138 123.666 35.2989C124.059 35.0978 124.434 34.861 124.832 34.6693M123.476 35.3862C123.862 35.2243 124.246 35.0611 124.626 34.8867M123.476 35.3862C122.761 35.6867 122.044 35.9829 121.354 36.3386C120.875 36.5854 120.356 36.8569 119.935 37.1989C119.705 37.385 120.537 37.2247 120.821 37.1416C121.481 36.9482 122.13 36.7192 122.777 36.4855M124.832 34.6693C124.868 34.6517 124.905 34.6345 124.941 34.6178C125.061 34.5635 125.76 34.3289 125.186 34.6178C125.001 34.711 124.814 34.8002 124.626 34.8867M124.832 34.6693C125.102 34.3752 125.352 34.0675 125.575 33.7431C125.704 33.5568 125.794 33.401 125.851 33.271M124.832 34.6693C124.764 34.7426 124.696 34.815 124.626 34.8867M122.777 36.4855C123.368 36.272 123.958 36.0546 124.555 35.8567M122.777 36.4855C122.464 36.7242 122.146 36.9568 121.829 37.1862M124.555 35.8567C124.772 35.7846 124.991 35.7151 125.21 35.6493M124.555 35.8567C124.456 35.9304 124.357 36.004 124.258 36.0776M125.21 35.6493C125.274 35.6302 125.338 35.6114 125.402 35.5929C125.668 35.5164 126.025 35.4622 126.281 35.3348C126.562 35.1953 125.661 35.4547 125.374 35.5785C125.319 35.602 125.265 35.6256 125.21 35.6493ZM125.21 35.6493C124.891 35.7887 124.574 35.9322 124.258 36.0776M124.258 36.0776C123.45 36.4497 122.648 36.8332 121.829 37.1862M124.258 36.0776C123.963 36.298 123.667 36.5184 123.372 36.7402M121.829 37.1862C121.543 37.3095 121.256 37.429 120.965 37.5431C120.521 37.7171 120.053 37.8571 119.618 38.0521C119.584 38.0672 120.504 37.7252 120.619 37.6793C120.98 37.5347 121.347 37.3969 121.719 37.2663M121.829 37.1862C121.792 37.213 121.756 37.2396 121.719 37.2663M121.719 37.2663C122.263 37.075 122.816 36.8993 123.372 36.7402M121.719 37.2663C121.23 37.6201 120.745 37.9671 120.288 38.3174C120.131 38.4371 117.332 40.3498 118.876 39.7299C119.187 39.6048 119.506 39.4904 119.827 39.3776M123.372 36.7402C123.935 36.5792 124.501 36.4353 125.064 36.3099C126.529 35.9834 124.601 36.947 124.264 37.1416C122.925 37.9164 121.504 38.5291 120.126 39.2253M123.372 36.7402C123.07 36.9675 122.769 37.1964 122.47 37.4284C121.724 38.0082 120.911 38.602 120.126 39.2253M120.126 39.2253C120.026 39.2756 119.927 39.3264 119.827 39.3776M120.126 39.2253C120.09 39.2537 120.054 39.2823 120.018 39.3108M119.827 39.3776C119.507 39.5434 119.189 39.7148 118.876 39.8948C118.415 40.1591 116.011 41.288 117.874 40.7552C117.936 40.7376 117.997 40.72 118.058 40.7023M119.827 39.3776C119.891 39.3553 119.955 39.3331 120.018 39.3108M118.058 40.7023C118.233 40.6519 118.408 40.601 118.583 40.5501M118.058 40.7023C118.307 40.5852 118.554 40.4664 118.801 40.3462M118.058 40.7023C117.916 40.7692 117.774 40.8356 117.632 40.9014M118.583 40.5501C119.986 40.1407 121.38 39.7246 122.823 39.4574L122.827 39.4567C122.966 39.431 124.808 39.089 124.048 39.694C123.137 40.4194 121.708 40.6582 120.619 40.9846C120.286 41.0844 117.97 41.8067 119.531 41.2212C120.756 40.7619 122.016 40.3997 123.256 39.9808L123.265 39.9776C123.471 39.9081 123.771 39.8067 123.313 39.8518C122.415 39.9403 121.55 40.1966 120.688 40.4521L120.633 40.4684C119.928 40.6773 119.224 40.8896 118.515 41.085C118.353 41.1298 117.897 41.2514 118.011 41.128C118.052 41.0837 118.094 41.0395 118.136 40.9956M118.583 40.5501C118.472 40.6561 118.363 40.7631 118.256 40.8712M118.583 40.5501C118.655 40.4817 118.727 40.4137 118.801 40.3462M118.136 40.9956C118.176 40.954 118.216 40.9125 118.256 40.8712M118.136 40.9956C117.754 41.136 116.908 41.3618 116.549 41.5008C116.45 41.5392 114.68 42.155 115.418 41.8593C116.165 41.56 116.902 41.2386 117.632 40.9014M118.136 40.9956C118.321 40.9276 118.397 40.8796 118.256 40.8712M118.256 40.8712C118.242 40.8703 118.225 40.8699 118.206 40.8699C118.014 40.8699 117.823 40.8813 117.632 40.9014M118.801 40.3462C119.188 39.9908 119.598 39.6465 120.018 39.3108M118.801 40.3462C119.134 40.1838 119.466 40.0188 119.798 39.8518C120.517 39.4889 121.232 39.1105 121.872 38.6186C121.989 38.5287 122.137 38.4476 121.908 38.5612C121.308 38.8602 120.662 39.0858 120.018 39.3108M125.851 33.271C125.133 33.6922 124.412 34.1086 123.673 34.4887C123.284 34.6891 122.101 35.2222 122.442 34.9476C123.102 34.4154 123.896 34.0235 124.61 33.571C125.018 33.3121 125.434 33.0455 125.849 32.77M125.851 33.271C125.964 33.0154 125.949 32.8599 125.849 32.77M125.849 32.77C125.382 32.3511 123.046 33.3584 122.989 32.2876C122.953 31.6003 124.044 30.702 124.466 30.3159C125.332 29.5225 126.293 28.8706 127.333 28.3227C128.529 27.6924 129.831 27.113 131.122 26.7023C131.384 26.619 132.06 26.3827 131.944 26.6306C131.732 27.0826 130.602 27.5599 130.222 27.7778C129.337 28.2846 128.425 28.7405 127.52 29.2117C127.032 29.4661 126.448 29.8812 125.847 30.2399M125.847 30.2399C125.819 30.2508 125.791 30.2618 125.763 30.2729C125.24 30.4777 123.649 30.9875 124.207 30.9182C124.725 30.8536 125.293 30.5707 125.847 30.2399ZM117.632 40.9014C116.404 41.0305 115.177 41.5197 113.962 41.6729C113.864 41.6853 111.751 41.943 112.464 41.5439C113.821 40.7839 115.282 40.2248 116.635 39.4503C117.157 39.1513 118.385 38.3305 116.995 38.9627C114.959 39.8892 112.949 40.7066 110.778 41.2857C110.659 41.3177 108.575 42.0215 109.352 41.4148C110.66 40.3932 112.102 39.551 113.559 38.762C113.832 38.6141 115.245 37.8299 114.063 38.3891C112.123 39.3072 110.401 40.6445 108.372 41.3861C108.286 41.4176 105.707 42.0963 105.707 41.9884C105.707 41.6803 107.554 40.6012 107.817 40.3608C108.376 39.851 108.67 39.5744 107.702 39.9306C105.87 40.605 104.126 41.4632 102.162 41.7016C101.932 41.7295 101.286 41.7622 101.471 41.6227C102.071 41.1704 102.793 40.8213 103.43 40.4254C103.683 40.2684 103.934 40.1095 104.187 39.9522C104.437 39.7959 105.041 39.7264 104.921 39.4574C104.842 39.2796 101.866 40.3403 101.708 40.3895C100.429 40.7879 98.4457 41.6128 97.0546 41.3359C96.6784 41.2611 97.3575 40.8035 97.3643 40.7982C98.1379 40.2001 99.012 39.723 99.8569 39.2352L99.9306 39.1926C100.395 38.9248 100.857 38.6577 101.312 38.3748C101.42 38.3079 101.741 38.1547 101.615 38.1454C100.265 38.0458 98.7775 38.9451 97.6237 39.5005C96.6963 39.9468 95.4504 40.8412 94.3675 40.8412C94.2289 40.8412 94.5989 40.6896 94.7133 40.6118C95.3056 40.2088 95.8518 39.7423 96.4422 39.3355C96.9652 38.9752 97.5051 38.6399 98.0343 38.2887C98.3501 38.0792 99.2711 37.5431 98.8916 37.5431C98.5323 37.5431 98.0898 37.8036 97.7822 37.9446C96.8318 38.3802 95.8964 38.8472 94.9438 39.2782C94.6775 39.3986 92.629 40.1441 92.7682 39.9952C93.5591 39.1489 94.6554 38.603 95.5849 37.9303C97.5118 36.5355 91.1248 39.7425 88.7627 40.0525C87.9543 40.1586 89.0348 39.5461 89.2094 39.4359C90.0524 38.904 91.358 38.3189 91.9181 37.4642C92.1954 37.0411 90.6554 37.9201 90.5854 37.9589C90.2481 38.1459 88.5642 39.3005 88.1288 39.0201C87.8566 38.8448 91.0603 35.8779 88.9861 36.5035C87.8709 36.8398 86.8203 37.3592 85.6938 37.665C85.3961 37.7458 86.6775 36.7607 86.8753 36.568C86.9663 36.4793 88.1585 35.4284 87.8982 35.3061C87.1683 34.963 85.8441 35.7085 85.2039 36.0016C84.9036 36.1391 84.3456 36.5571 84.8654 36.0589C85.2311 35.7084 86.3451 35.1442 86.443 34.6178C86.4996 34.3139 82.7693 35.8156 84.2746 34.4672C84.6605 34.1216 85.2124 33.9355 85.5713 33.5782C86.0615 33.0903 84.1784 33.7359 83.5326 33.9868C82.3821 34.434 83.1699 33.9358 83.7343 33.4993C84.2843 33.074 85.8216 31.8262 84.145 32.0438C83.9912 32.0638 82.0918 32.5308 82.0918 32.3808C82.0918 32.0328 83.1769 31.2722 83.4173 31.0329C83.8433 30.6089 83.2788 30.7737 82.8987 30.8465C82.0031 31.0179 81.2416 31.6815 80.3484 31.8C80.3385 31.8014 81.1767 31.0442 81.321 30.9182C81.4192 30.8323 82.4407 29.8117 82.3512 29.7853C81.8354 29.6332 80.8957 30.1121 80.4205 30.2729C80.3317 30.3029 79.2614 30.821 79.7433 30.3948C80.2896 29.9114 81.0673 29.7451 81.6452 29.2978C82.072 28.9674 80.2161 29.5848 80.0891 29.6347C79.5314 29.8538 78.9749 30.063 78.4034 30.2442C78.1614 30.3209 77.5562 30.6464 77.6613 30.4163C77.7689 30.1808 78.2354 29.91 78.4178 29.7566C78.9407 29.317 79.4403 28.8544 79.945 28.3944C80.0385 28.3091 81.1203 27.4279 80.4205 27.6487C79.147 28.0506 77.9353 28.6218 76.6816 29.0755C75.9549 29.3385 77.3868 28.4422 77.4812 28.3729C78.1609 27.8738 79.3382 27.1952 79.7577 26.4298C79.8389 26.2817 79.4253 26.5034 79.2678 26.5661C78.7571 26.7694 78.2733 27.0301 77.7982 27.3046C77.0704 27.725 76.1855 28.3815 77.3588 27.4049C78.4167 26.5243 79.59 25.7503 80.5502 24.7593C81.5672 23.7096 80.6357 23.8035 79.7001 24.0638C78.1347 24.4993 76.5979 25.0256 75.0175 25.4117C74.9262 25.434 74.6599 25.4442 74.7365 25.3902C75.358 24.9521 76.0076 24.5462 76.6384 24.1211C77.9841 23.2143 79.5757 22.4118 80.6798 21.203C81.8037 19.9726 79.8407 20.4804 79.1974 20.6468L79.1814 20.6509C77.6767 21.04 76.2189 21.6237 74.7005 21.9559C74.5148 21.9965 74.3233 22.0467 74.5924 21.9128C75.2336 21.5938 75.81 21.1618 76.381 20.7338L76.415 20.7083C77.1684 20.1438 78.4356 19.3633 78.814 18.4426C78.9236 18.176 76.9293 19.1754 76.732 19.2743C76.6169 19.3321 75.9639 19.7432 75.8027 19.683C75.3981 19.532 76.4302 19.0887 76.7752 18.8298C77.287 18.4458 82.3373 15.6046 82.1855 15.2592C82.0082 14.8561 77.9604 16.2235 77.6253 16.3275C77.3853 16.4021 74.4293 17.6925 75.8099 16.7936C77.105 15.9503 78.448 15.1768 79.7577 14.3558C80.3028 14.0141 81.9269 13.0489 80.2908 13.1369C78.7803 13.2182 77.335 13.822 75.918 14.2985C74.5063 14.7731 75.6068 14.1869 76.2421 13.7822C76.5383 13.5936 76.8366 13.4091 77.1377 13.23M77.1377 13.23C78.2857 12.5471 79.4744 11.9427 80.7375 11.4879C81.1834 11.3273 81.6386 11.1794 82.099 11.0649C82.3776 10.9956 81.6023 11.3519 81.3498 11.4879C79.995 12.2176 78.5924 12.7813 77.1377 13.23ZM62.4681 17.3672C63.4339 16.5488 64.4505 15.7821 65.4596 15.0061M65.4596 15.0061C66.6893 14.0605 67.9077 13.1013 69.0093 12.0185C70.2615 10.7876 67.5655 13.0952 65.4596 15.0061ZM65.4596 15.0061C64.7759 15.6265 64.1544 16.205 63.7504 16.6071C63.1126 17.2419 61.1583 19.0257 61.971 18.6362C63.0267 18.1303 63.9681 17.0846 64.9174 16.4064C66.307 15.4138 67.7182 14.4212 69.2327 13.6245C70.6274 12.8907 68.5064 14.5335 68.3177 14.6928C67.0197 15.7889 65.7801 16.9063 64.6581 18.1845C64.2387 18.6624 62.9288 20.0121 63.4694 19.6758C66.2947 17.9184 68.5551 15.2752 71.4155 13.5671C72.1974 13.1002 70.0944 14.8191 69.456 15.4671C68.3475 16.5925 67.249 17.7906 66.3438 19.0879C65.2231 20.6941 67.9148 18.3895 68.0368 18.2921C69.3575 17.2373 70.6581 16.1579 71.9774 15.1015C72.517 14.6694 73.9272 13.2293 73.6343 13.8539C73.4625 14.2203 73.0929 14.457 72.8131 14.7502C72.0118 15.5896 71.193 16.4123 70.3925 17.2524C69.8446 17.8275 68.7104 18.741 68.4906 19.5611C68.4713 19.6335 68.6437 19.5373 68.7068 19.4966C69.2677 19.1345 69.8022 18.733 70.3637 18.3709C71.9369 17.3566 73.5791 16.4592 75.2024 15.5289M75.2024 15.5289C75.2632 15.494 75.3241 15.4591 75.3849 15.4241C75.7315 15.2247 76.1105 15.013 76.4367 14.7717C76.7491 14.5405 76.5905 14.5756 76.4007 14.7C75.9962 14.9651 75.5954 15.2412 75.2024 15.5289ZM75.2024 15.5289C74.5039 16.0401 73.8297 16.5876 73.2021 17.1736C72.6515 17.6877 71.4172 18.6427 71.2426 19.4464C71.1947 19.6666 71.6909 19.351 71.8909 19.2456C72.6591 18.8409 73.3991 18.385 74.153 17.9551C76.1359 16.8243 82.1147 13.526 80.262 14.8577C78.2842 16.2794 76.0407 17.9356 74.6357 19.9555C74.3167 20.414 75.4021 19.1406 75.8099 18.7581C76.852 17.7808 77.957 16.8204 79.1166 15.9834C79.2985 15.8521 80.7652 14.6892 81.0833 14.9724C81.2547 15.125 80.2175 16.2006 80.1035 16.3347M4.89959 4.1131C4.52157 4.35935 4.14061 4.59884 3.75403 4.82814M3.75403 4.82814C3.16301 5.17869 2.55885 5.50544 1.93194 5.79613C1.17815 6.14567 3.42863 4.98534 3.623 4.88861C3.6613 4.86956 3.70523 4.84939 3.75403 4.82814ZM3.75403 4.82814C4.51856 4.49522 6.47798 3.89647 6.67354 3.13958C6.75709 2.81622 3.8517 3.85997 3.68932 3.93159C3.64055 3.9531 3.55599 3.98616 3.44618 4.02826M3.44618 4.02826C2.75911 4.29167 1.08368 4.90912 1.00352 5.26812C0.953476 5.49225 1.45035 5.14458 1.65839 5.04537C2.13162 4.81968 2.59036 4.55868 3.04274 4.2946C3.04833 4.29134 3.23125 4.17563 3.44618 4.02826ZM3.44618 4.02826C3.79927 3.78615 4.23875 3.45856 4.12037 3.40358C3.60495 3.16419 2.60422 4.02845 2.21379 4.2616M22.7884 24.7441C24.8734 22.8349 27.2009 21.2474 29.5505 19.682C32.2652 17.8733 35.0574 16.2011 37.9592 14.7073M31.2946 25.7041C33.3729 23.7184 36.1841 22.32 38.7436 21.0736C41.9522 19.5111 45.2206 18.075 48.4824 16.6273M93.8196 22.9113C100.518 18.4827 107.634 14.7807 114.69 10.9544M105.22 25.0932C108.395 22.6351 111.994 20.6906 115.509 18.7705C118.833 16.9545 122.152 15.123 125.477 13.3108" stroke="black" stroke-width="2" stroke-linecap="round"/>
</svg>
