<svg width="140" height="45" viewBox="0 0 140 45" fill="none" xmlns="http://www.w3.org/2000/svg">
<path d="M37.0733 13.5345C36.8868 14.7158 35.0842 15.8296 34.2708 16.4998C32.4848 17.9712 30.8688 19.6299 29.0544 21.0652C27.0372 22.6609 25.0562 24.4874 22.4277 24.9255M31.5405 26.5528C33.3842 26.476 35.1925 25.8069 36.9829 25.4137C40.4278 24.6571 43.6269 23.7893 46.837 22.3218M97.283 22.9727C99.1798 20.93 101.717 19.4853 103.91 17.7835C105.416 16.6144 106.838 15.3702 108.186 14.0226M105.582 26.39C109.281 24.3151 112.132 20.8976 114.695 17.6027M138.453 3.28255C138.234 4.01477 136.558 4.94469 136.012 5.34379C133.484 7.19445 130.561 8.16737 127.713 9.39392C127.483 9.49293 126.608 10.0448 126.285 10.0448C125.589 10.0448 127.385 9.19255 127.93 8.76109C129.207 7.75148 132.927 4.59226 131.619 5.56076C130.886 6.10349 130.183 6.66736 129.413 7.16092C128.766 7.57516 127.525 8.5622 126.692 8.5622C126.348 8.5622 126.907 7.89496 127.117 7.62199C127.946 6.54032 128.934 5.60471 129.973 4.72903C130.341 4.41914 130.748 4.14641 131.112 3.83402C131.675 3.35156 129.858 4.62584 129.259 5.06353C128.213 5.8286 127.189 6.6221 126.104 7.33269C125.573 7.68046 124.185 8.68679 124.35 8.07401C124.849 6.22647 127.213 4.62164 128.581 3.44528C129.01 3.0763 129.072 2.97563 128.509 3.35488C126.831 4.48548 125.191 5.6567 123.41 6.62754C122.31 7.22733 120.918 8.07376 119.622 8.17346C118.31 8.27436 119.673 6.41197 119.884 6.09415C120.478 5.19888 121.147 4.35767 121.837 3.53569C122.083 3.24248 122.824 2.46231 121.964 3.17407C120.315 4.53733 118.573 6.37956 116.431 6.93491C115.073 7.2868 116.732 4.66388 117.009 4.36741C117.231 4.13086 118.018 3.57162 117.724 3.70746C116.769 4.14784 115.902 4.8754 114.984 5.38899C114.098 5.88441 112.577 6.9606 111.495 6.90779C110.765 6.8722 111.829 4.84157 111.892 4.70191C112.327 3.744 112.829 2.81978 113.285 1.87224C113.644 1.1244 113.826 0.669476 112.869 1.29365C109.906 3.2258 107.243 5.66058 104.009 7.16092C101.429 8.35797 103.874 5.2324 104.407 4.51206C104.877 3.87608 105.345 3.23683 105.808 2.59548C106.033 2.28366 105.158 3.01177 104.868 3.26447C104.102 3.93185 103.356 4.62763 102.526 5.21722C101.978 5.6069 100.742 6.57422 99.977 6.44673C99.5651 6.37807 101.094 3.89731 101.035 3.89731C100.845 3.89731 100.092 4.91902 100.031 4.98217C99.1767 5.86932 98.2292 6.72617 97.2106 7.4231C96.7701 7.72449 96.3398 7.83631 96.6863 7.16996C97.2227 6.13839 97.9062 5.18771 98.4402 4.15044C98.6368 3.76855 98.9735 3.24362 99.0911 2.81245C99.1461 2.61061 98.7726 3.08421 98.621 3.22831C97.6992 4.10397 97.0033 4.76504 96.0173 5.64212C95.0663 6.48806 93.6706 8.01732 92.3649 8.43563C91.6281 8.67171 92.8802 6.94575 93.3594 6.33824C94.4483 4.95761 98.1041 1.26074 96.6049 2.17961C94.409 3.52551 92.8363 5.7693 90.5749 7.09764C88.7081 8.19422 91.4325 5.22947 91.705 4.86464C91.971 4.50855 92.5855 3.84729 92.7085 3.37296C92.894 2.65726 91.5792 4.32784 91.027 4.81944C90.2055 5.55064 89.3801 6.27973 88.4956 6.93491C88.1644 7.18027 87.0295 8.04812 87.6006 6.94395C88.1106 5.95799 88.8329 5.09129 89.4177 4.15044C89.533 3.96502 89.8601 3.43825 89.9511 3.16503C89.978 3.08452 89.7687 3.17908 89.707 3.23735C87.7833 5.05421 86.1719 7.13774 83.9211 8.59836C83.5134 8.86298 82.497 9.57007 82.547 9.08655C82.6408 8.17963 84.0201 6.98565 84.554 6.3292C85.0301 5.74372 85.5543 5.14886 85.91 4.4759C86.0796 4.15508 85.3222 4.91507 85.0964 5.19914C84.3367 6.15492 83.6263 7.14233 82.782 8.02881C82.1366 8.7065 80.8803 10.1385 79.8348 10.2256C79.3099 10.2694 81.735 6.06492 82.0045 5.65116C83.3481 3.58892 80.7703 6.79105 80.4948 7.11572C80.3655 7.26814 80.2349 7.41896 80.1032 7.56829M80.1032 7.56829C79.505 8.24615 78.881 8.89339 78.2256 9.52049C77.8859 9.84552 76.9574 10.8043 77.0865 10.3522C77.2186 9.88992 77.4148 9.43012 77.6536 8.97716M80.1032 7.56829C79.7672 7.68984 79.3473 7.94485 79.2743 7.98361C78.7134 8.28157 78.1781 8.62102 77.6536 8.97716M80.1032 7.56829C80.4203 7.45354 80.6627 7.45773 80.4677 7.87512C79.2055 10.5762 76.9165 12.7465 75.0886 15.0533C74.6986 15.5453 74.2215 16.0782 73.8681 16.6082C73.2652 17.5126 75.3785 15.0378 76.2186 14.3481C77.5248 13.2759 78.939 12.3558 80.4044 11.5184C81.1079 11.1164 83.0559 9.91396 82.6645 10.6234C82.3086 11.2685 81.5142 11.8629 80.992 12.3411C79.5561 13.6562 78.0554 14.8987 76.6164 16.2105C76.4086 16.3999 75.7931 16.9737 76.0197 16.8071C78.3946 15.0617 74.5574 17.7604 77.9906 15.3064C78.0495 15.2643 81.2427 13.2933 81.2451 13.3356C81.2683 13.7298 80.1923 14.9591 80.0428 15.1708C78.8683 16.8333 77.6662 18.4754 76.4989 20.1431C75.8569 21.0601 75.1952 21.9641 74.5552 22.8823C74.504 22.9558 74.3939 23.1903 74.4648 23.1355C74.8294 22.8534 75.1451 22.513 75.4954 22.2133C76.4113 21.4299 77.3717 20.7298 78.4155 20.125C78.949 19.8158 80.422 18.9519 80.1603 19.5102C79.2175 21.5216 77.1695 23.2434 75.8209 24.9978C74.124 27.2052 77.0333 24.3661 77.5566 23.913C78.1729 23.3794 80.3625 21.6425 78.6053 23.4248C77.7013 24.3417 76.801 25.2607 75.9203 26.2002C75.868 26.2559 73.8059 28.5939 74.2026 28.5146C75.3821 28.2787 76.5726 27.2805 77.6651 26.7878C78.1387 26.5743 79.4491 26.0285 79.193 26.4804C78.3405 27.9847 76.8568 29.2759 75.7847 30.6391C75.6567 30.8017 75.3065 31.2471 75.5044 31.1905C76.4954 30.9074 77.4831 30.1616 78.4245 29.7441C79.3627 29.3279 80.3267 28.9435 81.2994 28.614C82.3426 28.2607 81.1999 29.1916 81.0101 29.3734C80.1967 30.1527 79.3514 30.8939 78.5692 31.7059C78.5469 31.7289 77.2911 33.2905 77.3125 33.2879C77.8379 33.2261 78.6403 32.5893 79.0754 32.3748C80.2634 31.7892 81.5535 31.2518 82.8905 31.1453C83.5088 31.0961 83.0937 31.449 82.8634 31.6697C82.1137 32.3881 81.2815 33.0137 80.5309 33.7309C79.2782 34.928 82.3513 33.102 82.6374 32.9715C83.2202 32.7057 84.775 31.7713 84.4455 32.3206C84.1297 32.8468 83.3921 33.374 82.9628 33.8032C82.6516 34.1145 80.7505 35.9565 82.2938 34.8791C82.6106 34.6579 85.4042 32.7449 84.3189 34.1468C84.1549 34.3587 82.1545 36.6475 82.5651 36.7595C83.0052 36.8795 83.7641 36.6021 84.1562 36.4973C85.2373 36.2082 86.2929 35.7926 87.3927 35.5752C87.4639 35.5611 87.5466 35.5211 87.6096 35.5571C87.786 35.6579 87.2722 35.7844 87.0943 35.8826C86.1838 36.3849 85.273 36.8926 84.4274 37.5008C84.2076 37.6589 83.6024 38.1461 83.8669 38.0884C85.1138 37.8164 86.3045 37.0429 87.5192 36.642C88.1227 36.4428 88.6959 36.3023 88.0526 36.9584C87.2625 37.7643 86.3584 38.4923 85.4671 39.1823C85.4222 39.217 85.3615 39.2626 85.2928 39.3132M77.6536 8.97716C77.8654 8.57539 78.1108 8.179 78.3747 7.79104M77.6536 8.97716C77.439 9.1229 77.2262 9.27142 77.0142 9.42105C76.6556 9.67416 75.6346 10.4741 75.9022 10.1262C76.2571 9.66483 76.8712 9.27595 77.2854 8.88766C77.6633 8.53336 78.0259 8.16779 78.3747 7.79104M78.3747 7.79104C79.0433 6.80833 79.831 5.87968 80.4948 5.05449C80.5685 4.96279 80.6351 4.86393 80.7208 4.78328C80.8888 4.62517 80.4748 5.17387 80.3411 5.36187C79.7329 6.21713 79.082 7.02708 78.3747 7.79104ZM85.2928 39.3132C84.9572 39.5604 84.4317 39.9291 84.6444 39.7519C84.8399 39.5889 85.0599 39.4438 85.2928 39.3132ZM85.2928 39.3132C85.8016 39.0278 86.3724 38.8119 86.8864 38.6309C87.7722 38.319 91.7925 37.3438 89.8336 39.4626C89.4617 39.8648 89.0274 40.13 88.586 40.439C88.495 40.5027 89.7364 39.9863 89.8155 39.9508C90.6864 39.5602 91.5524 39.2017 92.4825 38.9744C92.8669 38.8804 93.9564 38.7861 93.6668 39.0558C93.163 39.5248 92.5125 39.8708 91.9491 40.2582C91.4744 40.5845 91.0592 40.8828 90.593 41.2164C90.4038 41.3518 89.8068 41.5759 90.0325 41.6323C90.2291 41.6815 91.2955 41.0038 91.4067 40.9543C92.6356 40.4064 93.9335 40.1278 95.2398 39.8333C95.7208 39.7248 96.7704 39.1367 96.7044 39.6253C96.6431 40.0792 95.8207 40.6565 95.2014 41.0656M95.2014 41.0656C94.9588 41.2259 94.7474 41.3604 94.6251 41.4515C94.2966 41.6962 93.3054 42.4186 93.6125 42.1476C94.0828 41.7327 94.633 41.3774 95.2014 41.0656ZM95.2014 41.0656C95.595 40.8497 95.9974 40.6547 96.388 40.4751C97.8849 39.787 99.5377 39.2111 101.179 39.0015C102.533 38.8287 101.915 39.6187 101.36 40.2672C100.761 40.9682 100.112 41.6406 99.4165 42.2471C99.4106 42.2522 99.4048 42.2573 99.399 42.2623M99.399 42.2623C98.7883 42.792 98.8274 42.6215 99.399 42.2623ZM99.399 42.2623C99.4164 42.2514 99.4343 42.2402 99.4527 42.229C101.516 40.9642 103.883 40.2591 106.179 39.544C106.566 39.4233 106.859 39.3462 106.468 39.788C105.688 40.6693 104.748 41.4353 103.84 42.1839M103.84 42.1839C103.8 42.2171 103.76 42.2502 103.72 42.2832C103.419 42.5316 102.521 43.2708 102.78 42.9793C103.051 42.6738 103.434 42.4131 103.84 42.1839ZM103.84 42.1839C104.28 41.9357 104.747 41.7243 105.13 41.5329C106.052 41.0717 107.009 40.6693 107.969 40.2943C108.447 40.1074 109.384 39.7502 108.68 40.4101M108.68 40.4101C108.641 40.4467 108.597 40.4864 108.547 40.5294C107.838 41.1466 107.047 41.6802 106.278 42.2199C105.731 42.6044 104.298 43.894 104.579 43.2867C104.787 42.8345 105.622 42.3117 105.98 42.0482C106.829 41.4234 107.737 40.8823 108.68 40.4101ZM108.68 40.4101C109.082 40.2087 109.491 40.0198 109.903 39.8423C110.57 39.5559 112.314 38.6097 112.001 39.2637C111.656 39.9833 110.819 40.7083 110.14 41.3204M110.14 41.3204C109.962 41.4811 109.795 41.634 109.65 41.777C108.967 42.4531 108.263 43.1303 107.481 43.6935C107.374 43.7701 107.04 43.952 107.119 43.8472C107.293 43.6159 107.971 43.0612 108.068 42.9793C108.716 42.436 109.41 41.8659 110.14 41.3204ZM110.14 41.3204C111.768 40.1056 113.579 39.0134 115.472 38.6128C115.785 38.5466 115.347 39.2743 115.129 39.5078C114.352 40.339 113.505 41.1085 112.627 41.8378M112.627 41.8378C112.301 42.109 111.971 42.3746 111.639 42.6358C111.401 42.8229 110.657 43.3375 110.88 43.133C111.406 42.6506 112.005 42.2267 112.627 41.8378ZM112.627 41.8378C113.32 41.4054 114.043 41.0162 114.731 40.6379C115.738 40.0839 117.367 38.9059 118.564 38.7484C118.931 38.7002 118.145 39.3612 117.886 39.6253C117.659 39.8576 117.394 40.1255 117.121 40.3997M117.121 40.3997C116.703 40.8183 116.267 41.2518 115.915 41.5961C115.656 41.8502 114.7 43.0258 114.189 43.0969C114.095 43.1098 115.68 41.4471 115.744 41.3973C116.19 41.0499 116.651 40.7182 117.121 40.3997ZM117.121 40.3997C117.653 40.0387 118.198 39.6945 118.745 39.3631C119.132 39.1287 120.916 37.8195 121.475 38.0432C121.662 38.1179 120.078 39.8801 119.971 39.9989L119.966 40.005L119.944 40.0298C119.25 40.8112 118.55 41.6 117.959 42.464C117.08 43.7481 120.188 40.2786 121.439 39.3541C122.288 38.7271 123.192 38.1733 124.088 37.6183C124.547 37.3339 124.662 37.3518 124.618 37.5002M124.618 37.5002C124.565 37.6792 124.282 38.0481 124.097 38.3054C123.939 38.5251 123.73 38.7965 123.489 39.0981M124.618 37.5002C124.226 38.0201 123.848 38.5514 123.489 39.0981M124.618 37.5002C125.809 35.9216 127.132 34.448 128.451 32.9676M123.489 39.0981C121.935 41.0447 119.062 44.2507 120.228 42.9522C120.995 42.0975 121.812 41.2716 122.665 40.4832M123.489 39.0981C123.323 39.3518 123.161 39.6087 123.003 39.8694C122.847 40.1273 122.737 40.3292 122.665 40.4832M122.665 40.4832C123.702 39.5247 124.793 38.6217 125.914 37.7901C126.306 37.4998 127.456 36.6188 127.135 36.9855C126.516 37.6927 125.668 38.2769 124.983 38.9202C124.469 39.4027 122.023 41.8608 122.665 40.4832ZM128.451 32.9676C128.76 32.6202 129.069 32.2724 129.377 31.9228C129.437 31.8545 129.517 31.763 129.607 31.6601M128.451 32.9676C129.018 32.399 129.579 31.8189 130.088 31.2069M128.451 32.9676C128.037 33.3823 127.619 33.7908 127.216 34.201C126.601 34.8266 125.949 35.6188 125.236 36.1538C124.437 36.7529 126.537 34.6359 127.243 33.9298C128.016 33.1571 128.812 32.409 129.607 31.6601M129.607 31.6601C130.049 31.1575 130.731 30.385 130.462 30.7385C130.341 30.8969 130.216 31.0529 130.088 31.2069M129.607 31.6601C129.768 31.5092 129.928 31.3582 130.088 31.2069M130.088 31.2069C130.298 31.0092 130.507 30.811 130.715 30.612C131.29 30.062 131.775 29.5971 132.306 29.0208C132.474 28.8381 132.988 28.3996 132.74 28.4151C132.148 28.4521 130.678 29.8455 130.353 30.0966C128.384 31.6167 126.465 33.2057 124.441 34.653C124.379 34.6971 122.822 35.8496 123.871 34.7525C125.551 32.996 127.57 31.5639 129.521 30.1328C131.196 28.9049 132.899 27.7124 134.53 26.4262C134.945 26.0989 136.717 24.7352 134.873 25.4498C133.152 26.1171 131.51 27.0063 129.865 27.8365C128.4 28.5759 127.884 28.8469 126.466 29.5271C125.958 29.7704 125.481 30.2402 124.92 30.2051C124.841 30.2002 125.013 30.0749 125.073 30.0243C125.734 29.4747 126.443 28.985 127.117 28.4513C129.101 26.8792 131.014 25.2271 132.758 23.3886C133.26 22.8594 134.713 21.2553 134.114 21.6709C132.755 22.6131 131.555 23.8015 130.299 24.8712C130.036 25.0951 128.778 26.4166 128.301 26.4533C127.988 26.4774 128.628 25.9172 128.816 25.6668C129.398 24.8937 129.819 24.358 130.443 23.5875C131.643 22.1075 135.311 17.7329 133.987 19.1034C133.181 19.9384 132.335 20.7344 131.438 21.472C131.092 21.7563 128.029 24.0518 130.227 21.8156C131.391 20.6303 132.628 19.5161 133.807 18.344C133.894 18.2573 135.844 16.5034 134.313 17.4219C132.958 18.2345 131.686 19.173 130.434 20.134C129.724 20.68 127.71 22.3396 128.156 21.5624C129.673 18.9216 132.326 16.9349 134.06 14.4204C134.534 13.7324 134 13.9151 133.508 14.1402C132.075 14.7964 130.824 15.7803 129.548 16.6896C128.944 17.1205 128.197 17.6958 128.961 16.5811C129.906 15.2014 130.981 13.9119 132.053 12.6304C132.591 11.9868 133.166 11.3604 133.68 10.6958C134.155 10.0814 132.547 11.7584 131.962 12.2688C131.244 12.8959 130.505 13.5111 129.729 14.0679C129.335 14.3512 130.396 13.3588 130.76 13.0372C131.808 12.1117 132.892 11.2283 133.951 10.3161C133.98 10.291 136.16 8.20327 136.085 8.1825C135.69 8.07349 134.22 9.19161 134.06 9.29448C132.828 10.0856 131.669 11.0457 130.398 11.7716C129.665 12.1905 130.075 11.7585 130.904 11.0234M130.904 11.0234C131.297 10.6746 131.785 10.2577 132.29 9.83104M130.904 11.0234C131.279 10.7476 131.647 10.4605 132.007 10.1624C132.335 9.89123 132.653 9.60856 132.967 9.32101M130.904 11.0234C130.279 11.4825 129.632 11.9102 128.961 12.305C128.824 12.3856 128.404 12.6049 128.527 12.5039C128.921 12.1799 129.357 11.9105 129.774 11.6179C130.616 11.0283 131.462 10.4421 132.29 9.83104M132.29 9.83104C132.738 9.45221 133.2 9.06572 133.621 8.7125M132.29 9.83104C132.517 9.66309 132.743 9.49327 132.967 9.32101M133.621 8.7125C133.893 8.4843 134.149 8.26999 134.372 8.08061M133.621 8.7125C134.238 8.13355 134.855 7.55371 135.515 7.02532C135.78 6.81363 135.039 7.5091 134.783 7.73047C134.664 7.83316 134.526 7.95105 134.372 8.08061M133.621 8.7125C133.404 8.91621 133.186 9.1198 132.967 9.32101M134.372 8.08061C134.32 8.24605 134.111 8.40296 133.897 8.58028C133.592 8.83308 133.281 9.07945 132.967 9.32101M134.372 8.08061C134.381 8.05455 134.385 8.02828 134.385 8.00169M75.3145 13.6972L75.2587 13.8189C75.2373 13.8657 75.216 13.9123 75.1946 13.9588M75.1946 13.9588C75.16 14.0344 75.1255 14.1096 75.091 14.1844M75.1946 13.9588C74.8879 14.2389 74.5277 14.5754 74.3381 14.755C73.5386 15.5124 72.6327 16.2953 71.8483 17.1574M75.1946 13.9588C75.5776 13.6092 75.8773 13.3475 75.6581 13.5887C75.4739 13.7913 75.2844 13.9896 75.091 14.1844M75.091 14.1844C74.2799 15.9454 73.4996 17.4956 71.843 18.7237C71.7979 18.7572 69.9534 20.0486 70.523 18.9769C70.8691 18.3258 71.3325 17.7245 71.8483 17.1574M75.091 14.1844C74.1211 15.1613 73.0515 16.0523 72.0419 16.9789C71.9772 17.0382 71.9127 17.0978 71.8483 17.1574M71.8483 17.1574C70.6118 18.3038 69.4288 19.5064 68.1906 20.6494C66.9601 21.7852 70.3854 18.1156 71.5717 16.9337C72.6068 15.9025 73.9575 15.0404 74.9167 13.9503C75.8223 12.9213 72.646 15.4876 71.4813 16.2105C68.9874 17.7584 66.3592 18.9266 63.5257 19.7001C63.4196 19.7291 61.7639 20.1593 61.3741 20.0798C60.7415 19.9508 61.9369 18.8886 62.3957 18.4344C63.4195 17.4208 64.5705 16.5158 65.5508 15.4601C65.7159 15.2823 64.0576 16.6588 64.0049 16.7077C63.1969 17.4574 62.5464 18.0944 61.7351 18.8056M61.7351 18.8056C61.6672 18.8651 61.5981 18.9252 61.5278 18.9859C61.0974 19.3571 60.1385 20.5122 60.1174 19.9442C60.0997 19.4638 60.4931 19.0983 60.8684 18.7359M61.7351 18.8056C61.7175 18.9378 61.626 19.1317 61.4374 19.4018C60.4689 20.7879 59.1538 21.9071 58.1918 23.2982C58.0833 23.4551 57.9366 23.6876 58.2641 23.5333C58.5805 23.3842 59.5151 22.7608 59.7106 22.6292C59.8505 22.5351 62.357 20.6684 62.4589 20.785C62.5435 20.8816 59.6063 22.9189 59.5298 22.9728C59.3886 23.0721 55.9718 25.6686 57.2607 25.2781C58.7885 24.8151 60.1856 23.6812 61.4735 22.7829C62.0772 22.3619 63.7726 21.1029 63.4263 21.7523C62.6179 23.268 61.1475 24.5527 60.0994 25.9019C59.9507 26.0933 59.6445 26.4216 59.4133 26.7011M61.7351 18.8056C61.7787 18.4791 61.3726 18.5284 60.8684 18.7359M60.8684 18.7359C61.0113 18.5979 61.1516 18.4603 61.2656 18.3169C61.9285 17.4829 62.6397 16.6744 63.2183 15.7765C64.0641 14.4641 61.5309 17.7678 60.0463 19.1344M60.8684 18.7359C60.7975 18.7651 60.7246 18.7974 60.6508 18.8322C60.447 18.9284 60.2459 19.0299 60.0463 19.1344M60.0463 19.1344C59.9057 19.2639 59.7744 19.3759 59.6564 19.465C59.3593 19.6893 59.2677 19.6736 59.2792 19.5496M60.0463 19.1344C59.7888 19.2693 59.5339 19.4093 59.2792 19.5496M59.2792 19.5496C59.3018 19.3055 59.7239 18.6415 59.7649 18.561C59.9266 18.2434 60.0801 17.9213 60.23 17.5974M59.2792 19.5496C58.5821 19.9338 57.8866 20.3207 57.1431 20.6132C57.0047 20.6677 56.6065 20.7831 56.7001 20.6674C56.9815 20.3199 57.3856 20.0929 57.7308 19.8086C57.8774 19.6878 59.766 18.1837 60.23 17.5974M60.23 17.5974C60.2623 17.5275 60.2945 17.4575 60.3265 17.3875M60.23 17.5974C60.3102 17.496 60.3478 17.4221 60.3265 17.3875M60.3265 17.3875C60.4778 17.0569 60.6264 16.725 60.7775 16.3944M60.3265 17.3875L60.3254 17.3857C60.2369 17.2594 58.766 18.5032 58.7162 18.5429C58.423 18.7766 56.6012 20.1889 57.9658 19.0221C58.9416 18.1877 59.9032 17.3347 60.7775 16.3944M60.7775 16.3944C60.9237 16.0745 61.0721 15.7558 61.2273 15.4408M60.7775 16.3944C60.9435 16.2159 61.1064 16.0342 61.2656 15.8489C61.9277 15.0782 61.8733 15.0164 61.2273 15.4408M61.2273 15.4408C61.3244 15.2437 61.4242 15.048 61.5278 14.8544C61.9928 13.985 60.9879 15.296 60.9673 15.3155C60.0649 16.1655 59.0962 16.9885 58.1014 17.7293C56.1731 19.1653 60.9798 13.7858 61.7538 11.5094C62.1331 10.3938 61.2592 10.6994 60.6508 11.1297C59.4504 11.9788 58.4033 13.0541 57.2516 13.9684C56.5673 14.5117 56.406 14.4955 56.9262 13.6611C57.975 11.9785 59.3404 10.5256 60.4881 8.9148C60.5466 8.83275 61.5769 7.37997 60.6418 8.2006C59.5814 9.13119 58.5626 10.0672 57.3872 10.8585C56.8473 11.222 55.3522 12.2246 55.5882 11.6179C56.148 10.1783 57.6009 8.85777 58.5715 7.69433C58.9254 7.27012 59.966 6.05271 58.6981 7.07958C57.5314 8.02441 56.4469 9.06617 55.2627 9.99062C55.2535 9.99783 53.991 11.1274 54.3044 10.3161C54.7854 9.07112 55.5845 7.94807 56.221 6.78124C56.2509 6.72641 57.0024 5.53273 56.3295 6.00376C55.2476 6.76107 54.3471 7.77235 53.3009 8.5803C52.71 9.03665 51.0382 10.2909 51.303 9.59283C51.7539 8.4039 53.3807 7.2575 54.2321 6.33826C54.239 6.33076 55.3139 5.27703 54.5214 5.81391C53.2801 6.65476 52.072 7.5145 50.7425 8.21868C50.5528 8.31911 47.8587 9.87925 47.6145 9.17697C47.2991 8.27027 49.0254 6.34748 49.4587 5.64214L49.4603 5.63985C49.5013 5.57992 50.329 4.37124 49.748 4.51208C48.7024 4.76556 47.6567 5.80686 46.7918 6.38346L46.7356 6.42091C45.4536 7.27568 44.0737 8.19573 42.5789 8.6255C40.9036 9.10715 42.5137 7.36557 42.8772 6.98917C43.1489 6.70789 43.4317 6.43684 43.7131 6.16445M61.2273 15.4408C61.2046 15.4557 61.1812 15.4711 61.1571 15.4872M43.7131 6.16445C44.1737 5.71857 44.6306 5.26909 45.0289 4.76521C45.0797 4.7009 45.2197 4.49859 45.1735 4.56632C45.0142 4.80005 44.8409 5.0275 44.6492 5.23532C44.3506 5.55896 44.0381 5.86865 43.7131 6.16445ZM43.7131 6.16445C42.7925 7.00243 41.7724 7.72894 40.6894 8.34525C40.3915 8.51483 37.7165 10.1928 38.4203 8.72495C38.9937 7.52886 39.9291 6.50075 40.4634 5.2986C40.835 4.4626 38.8884 6.23199 38.131 6.74508C36.5129 7.84122 34.8705 8.85206 33.0683 9.61996C31.5009 10.2878 31.4413 10.0579 32.336 8.74303C33.014 7.74671 33.843 6.78594 34.2888 5.65118C34.6991 4.60662 33.4969 5.55922 33.2582 5.7235C31.6464 6.83266 30.0892 8.02289 28.304 8.85151C28.0192 8.98369 25.2973 10.197 26.3331 8.84247C26.9653 8.01586 27.7796 7.35119 28.4667 6.57331C28.7466 6.25645 29.5072 5.3387 29.1086 5.47941C28.2648 5.77723 27.3572 6.77023 26.6315 7.26039C25.7464 7.85821 23.1204 9.6044 23.8199 8.79727C24.4991 8.01357 25.2951 7.33105 25.9715 6.53715C26.4049 6.02854 27.4001 5.11987 27.5265 4.40359C27.5286 4.39184 25.6791 5.62245 25.6641 5.6331C23.9609 6.84415 22.1591 8.25192 20.2308 9.08657C19.0761 9.58638 20.2506 8.11839 20.3935 7.92938C21.2174 6.83976 22.1323 5.82201 22.952 4.72905C24.5091 2.65286 19.1283 8.28405 16.931 9.66516C16.1343 10.1659 16.2123 9.85123 16.6237 9.2493C17.2294 8.36282 17.9081 7.52829 18.3775 6.55523C18.5686 6.15925 18.8339 5.58211 18.1605 6.0128C16.564 7.03399 15.0819 8.22395 13.4504 9.19505C12.3825 9.83071 12.5536 9.50317 13.2606 8.80631C14.276 7.8054 15.3079 6.82226 16.3163 5.81391C16.4193 5.71094 17.5873 4.58377 16.5423 5.3438C15.101 6.39201 13.9242 7.7543 12.4469 8.76111C12.0467 9.03389 10.8562 9.61874 11.0547 9.17697C11.576 8.01705 12.4223 6.96889 13.0798 5.88623C13.0835 5.8801 14.3266 3.59533 14.2189 3.58995C13.9549 3.57675 13.8226 3.94091 13.6403 4.13238C12.7403 5.07773 11.8573 6.03533 10.9191 6.94397C10.6298 7.22417 10.3369 7.50479 10.0388 7.7817M10.0388 7.7817C8.98431 8.76134 7.86557 9.69446 6.61583 10.3974C5.40828 11.0767 6.02896 10.3056 6.48023 9.78268C6.86887 9.33235 7.25017 8.87711 7.62673 8.41818M10.0388 7.7817C9.38336 7.92239 8.77429 8.06959 8.75843 8.07403C8.39409 8.17615 8.01484 8.29722 7.62673 8.41818M10.0388 7.7817C10.8405 7.6096 11.7116 7.44724 11.6514 7.56776C11.195 8.48053 9.7113 9.29559 8.99348 9.99062C8.41197 10.5537 6.28586 12.3468 6.44407 13.3356M7.62673 8.41818C8.18023 7.7436 8.72347 7.06105 9.2647 6.37442C9.42301 6.17357 10.8446 4.32459 9.68056 5.43421C8.64005 6.42609 7.64231 7.38562 6.46215 8.21868C6.44714 8.22944 5.78145 8.70673 5.28289 8.98532M7.62673 8.41818C6.86438 8.65578 6.06784 8.89298 5.28289 8.98532M5.28289 8.98532C4.96562 9.1626 4.71593 9.2595 4.74445 9.10465C4.74942 9.07768 4.75467 9.05076 4.76018 9.02388M5.28289 8.98532C5.10791 9.0059 4.9335 9.01929 4.76018 9.02388M4.76018 9.02388C4.99445 7.88183 5.71212 6.81202 6.0282 5.68734C6.39576 4.37952 4.13961 6.7071 3.91273 6.90781C3.77147 7.03277 3.54561 7.23817 3.31361 7.44901M4.76018 9.02388C4.54194 9.02965 4.32541 9.02148 4.11162 8.99616C3.35607 8.90669 3.22799 8.24761 3.31361 7.44901M3.31361 7.44901C2.7969 7.91857 2.24969 8.41512 2.53857 8.11019C2.8229 7.81007 3.09327 7.49695 3.35029 7.17308M3.31361 7.44901C3.3233 7.35861 3.33573 7.26643 3.35029 7.17308M3.35029 7.17308C3.77528 6.63756 4.16376 6.07264 4.51844 5.48845C4.94448 4.78674 5.23884 4.15475 4.28339 4.90986C4.10184 5.05334 3.92307 5.20046 3.74602 5.34982M3.35029 7.17308C3.44657 6.55615 3.63622 5.88838 3.74602 5.34982M3.74602 5.34982C2.96656 6.00736 2.22046 6.70823 1.41755 7.33271C0.433217 8.09831 2.96877 5.63607 3.76174 4.43274M3.74602 5.34982C3.81003 5.03587 3.8469 4.76583 3.82232 4.57536C3.81455 4.51516 3.79373 4.46808 3.76174 4.43274M3.76174 4.43274C3.79774 4.3781 3.83016 4.32606 3.85849 4.27703C4.00993 4.01491 3.83466 4.104 3.509 4.34752M3.76174 4.43274C3.70701 4.3723 3.6196 4.34621 3.509 4.34752M3.509 4.34752C2.65972 4.98259 0.787602 6.66791 1.01977 5.91335C1.15312 5.47999 2.80329 4.35592 3.509 4.34752ZM8.69515 13.5164C8.58134 13.5962 6.21958 15.3627 7.00458 14.9086M8.79459 16.7348C7.28273 18.1632 5.81354 19.6406 4.34355 21.1131M4.34355 21.1131C4.18189 21.275 4.02022 21.4369 3.85849 21.5986C2.61565 22.8414 4.10717 21.3456 4.34355 21.1131ZM4.34355 21.1131C4.35248 21.1043 4.35962 21.0973 4.36475 21.0923C5.79227 19.7116 7.34799 18.5026 8.92116 17.2953C9.36777 16.9526 9.79486 16.5831 10.2592 16.2647C10.5972 16.0329 9.80023 16.9459 9.53591 17.2592C8.21683 18.8225 6.93494 20.4199 5.74795 22.0868C5.72314 22.1216 3.45234 25.5503 4.85294 24.4916C5.96407 23.6516 6.8892 22.5856 8.01711 21.7613C9.54333 20.646 7.80185 22.9215 7.61933 23.1716C7.47619 23.3678 5.44977 26.5413 5.63946 26.5347C6.18671 26.5158 6.54991 25.925 6.98649 25.5945C7.80291 24.9765 8.29037 24.6094 9.14717 24.0486L9.14992 24.0468C9.24937 23.9816 11.3932 22.5766 9.99698 23.7502C8.42797 25.0691 6.96812 26.535 5.88355 28.2886C5.64671 28.6715 4.94426 29.8333 5.99204 29.2288C7.15717 28.5566 8.23909 27.7019 9.29352 26.8689L9.37318 26.8059C9.8598 26.4216 10.2796 25.9898 9.71672 26.8059C8.48071 28.5981 7.21014 30.331 6.22709 32.2845C5.83375 33.0661 5.4842 33.835 5.20552 34.6621C5.11923 34.9182 4.84227 35.5253 5.10607 35.4667C5.75902 35.3216 6.90691 33.093 7.27579 32.6099C7.34898 32.5141 8.91637 30.1915 9.07485 30.2232C9.34429 30.2771 8.88781 30.7404 8.77651 30.9917C8.36286 31.9253 7.92854 32.848 7.56509 33.8033C7.56184 33.8118 6.85006 35.8373 6.95033 35.8464C7.34889 35.8826 8.69723 34.4268 8.9754 34.2372C9.02886 34.2008 11.8514 32.5456 11.561 33.4597C11.1179 34.8543 9.49995 35.9266 8.76747 37.2025C8.30832 38.0023 8.84026 37.6902 9.2647 37.3562C10.3737 36.4835 11.4266 35.5843 12.691 34.9333C12.695 34.9313 14.8789 33.844 14.3726 34.7254C13.5762 36.1117 12.1359 37.1299 11.1994 38.432C10.8071 38.9773 10.9505 39.0191 11.3078 38.5766C11.9038 37.8387 12.4425 37.0637 13.1883 36.4612C13.3875 36.3002 14.5764 35.3722 14.2731 36.3165C13.912 37.4412 13.3955 38.5508 12.9442 39.6434C12.5973 40.4833 13.3546 39.6032 13.568 39.4264C14.3949 38.7416 15.2589 38.1085 16.1174 37.4647C16.1721 37.4236 16.2145 37.3915 16.2467 37.3669M16.2467 37.3669C16.3901 37.2572 16.3303 37.2969 16.2467 37.3669ZM16.2467 37.3669C16.237 37.375 16.2269 37.3836 16.2168 37.3923C15.8766 37.6882 15.735 37.8221 15.3761 38.1698C14.8158 38.7126 13.2936 39.7432 13.0436 40.4932C12.9814 40.6799 13.3407 40.2349 13.4956 40.1135C13.8589 39.8289 14.3812 39.4457 14.7613 39.2095C15.8674 38.5221 17.0948 37.9813 18.3775 37.7268C19.441 37.5158 17.9065 38.6908 17.817 38.7755C17.4605 39.113 17.0983 39.4441 16.7339 39.7728M16.7339 39.7728C16.0828 40.3599 15.4247 40.9392 14.7794 41.5329C13.9427 42.3027 15.2937 41.0034 16.7339 39.7728ZM16.7339 39.7728C17.478 39.137 18.2458 38.5195 18.7482 38.215C19.6141 37.6902 19.5036 38.0891 19.0646 38.7213C18.8522 39.0271 16.392 42.4729 16.6056 42.5725C16.7414 42.6359 16.872 42.4332 16.9943 42.3465C17.3066 42.1253 17.5985 41.8764 17.9074 41.6504C18.9349 40.8988 19.7485 40.3218 20.8546 39.6796C21.2185 39.4683 22.3766 38.8299 22.9339 38.7213C23.411 38.6283 23.0811 39.0756 23.0062 39.1733C22.3225 40.0655 21.4059 40.7944 20.6557 41.6323C19.8568 42.5247 22.3866 40.8439 22.4005 40.8368C23.9776 40.0228 25.6296 39.3301 27.2824 38.6851C28.7228 38.123 27.2244 39.3941 26.9479 39.6615C25.7789 40.7919 24.5451 41.8562 23.4402 43.0517C22.1822 44.4128 23.6069 43.2176 24.1092 42.8438C25.654 41.6937 27.3392 40.9381 29.1176 40.222C29.2666 40.162 31.8796 39.2706 31.8298 39.336C30.974 40.4592 29.5402 41.4064 28.4305 42.2471C28.367 42.2952 28.2852 42.3551 28.192 42.4222M28.192 42.4222C27.3858 43.0022 25.7248 44.1187 27.6078 42.8166C27.8021 42.6823 27.9967 42.5508 28.192 42.4222ZM28.192 42.4222C29.6584 41.4564 31.1645 40.6533 32.8423 40.0593C33.3738 39.8711 34.4549 39.5102 35.1024 39.4445C35.5999 39.3941 35.5249 39.5336 35.2561 39.8513C34.3677 40.9013 33.1758 41.7293 32.1552 42.6449C30.8084 43.8531 32.1838 42.8129 32.7338 42.4641C34.1092 41.5916 35.571 40.8382 37.0371 40.1316C37.108 40.0974 37.3362 40.0101 37.626 39.903M37.626 39.903C38.3517 39.6347 39.4634 39.2418 39.4599 39.2456C38.5042 40.3002 37.1613 41.1917 36.0426 42.0663C34.2 43.5069 37.0401 40.4812 37.1817 40.3395C37.3273 40.1939 37.4754 40.0481 37.626 39.903ZM37.626 39.903C38.8601 38.7138 40.2645 37.5697 41.8647 36.9584C43.4405 36.3564 42.1446 38.3003 41.8918 38.7575C41.2861 39.8531 40.1289 41.1793 39.8306 42.4098C39.7851 42.5976 40.2308 42.3944 40.4001 42.3013C41.3666 41.7705 42.2822 41.1455 43.22 40.5654M43.22 40.5654C43.2985 40.5169 43.377 40.4687 43.4558 40.4209C43.8677 40.171 44.9977 39.2979 45.9386 38.8152M43.22 40.5654C42.4514 41.5473 41.4638 42.859 41.6297 42.8618C42.593 42.8782 44.0364 41.2861 44.6853 40.7464C44.7624 40.6823 44.9104 40.5575 45.0905 40.4049M43.22 40.5654C43.6438 40.024 44.001 39.5829 44.0615 39.5169C44.4975 39.0409 45.8628 37.1002 46.629 37.0669C46.815 37.0588 46.3429 38.0373 45.9386 38.8152M45.9386 38.8152C46.3957 38.5807 46.8082 38.4384 47.072 38.5043C47.379 38.5811 46.6911 39.0144 46.4573 39.2276C46.2377 39.4277 45.5567 40.0098 45.0905 40.4049M45.9386 38.8152C45.6775 39.3177 45.4447 39.7365 45.4357 39.7519C45.3767 39.8528 45.2463 40.1014 45.0905 40.4049M45.0905 40.4049C44.6989 41.1676 44.1465 42.2776 44.161 42.2652C45.599 41.0326 46.7426 39.4361 48.1569 38.1608C48.3136 38.0195 49.0701 37.3624 49.3502 37.2206C49.6917 37.0476 49.5177 37.461 49.4768 37.5641C48.9503 38.8914 48.1507 40.1672 47.4336 41.3973C47.4171 41.4257 46.1776 43.1322 47.1263 42.2109C48.5781 40.801 50.0373 39.4018 51.538 38.0433C51.6538 37.9384 53.3901 36.2356 52.4782 37.6907C51.6954 38.9399 50.2737 40.1299 49.7751 41.5148C49.6225 41.9386 50.613 41.1518 50.9594 40.8639C51.918 40.0674 52.9095 39.1227 53.8162 38.2693C53.9395 38.1532 56.4237 35.452 55.2808 37.1663C54.5242 38.3012 53.8087 39.4659 53.1111 40.6379C53.0352 40.7653 52.8144 41.1471 52.9122 41.0357C53.2121 40.694 53.4739 40.3206 53.762 39.9689L53.8358 39.8788C54.8048 38.6957 55.7919 37.4906 56.9081 36.4431C58.2573 35.1769 57.2647 36.8883 56.9533 37.4827C56.4475 38.4484 55.9698 39.4336 55.4579 40.3982M55.4579 40.3982C55.2746 40.7435 55.0869 41.0862 54.892 41.4244C54.8441 41.5077 54.6592 41.7273 54.7022 41.6414C54.9089 41.2279 55.1904 40.7907 55.4579 40.3982ZM55.4579 40.3982C55.5268 40.2969 55.5949 40.1986 55.6605 40.1045C56.7926 38.4795 58.0462 36.9282 59.4123 35.4938C61.1587 33.6601 59.3413 35.9304 58.897 36.4612C57.7727 37.8042 56.6595 39.1544 55.552 40.5113C54.473 41.8334 56.0602 39.9541 56.1125 39.8966C57.4647 38.4084 58.8222 36.9273 60.1446 35.4125C60.4168 35.1006 60.6162 34.6944 60.9763 34.4903C61.4619 34.2152 60.5403 35.5202 60.2711 36.0091C59.5261 37.3627 58.7005 38.6682 57.9116 39.996C57.0695 41.4131 58.4748 39.4705 58.4811 39.4626C58.908 38.9319 59.3334 38.4006 59.7547 37.8663M59.7547 37.8663C60.3381 37.1261 60.9135 36.3798 61.4735 35.6204C62.6719 33.9955 61.8501 35.5782 61.3922 36.2984C61.1398 36.6953 59.902 38.8559 59.2586 38.7936C59.2253 38.7904 59.4531 38.3819 59.7547 37.8663ZM59.7547 37.8663C60.262 36.9988 60.9783 35.8282 61.0125 35.7741C61.4636 35.06 62.5694 33.7231 62.6397 32.8088C62.7008 32.0155 61.8181 34.1992 61.2294 34.7344C60.8456 35.0833 61.4711 33.7208 61.6724 33.2428C62.1233 32.172 62.582 31.1004 62.9742 30.0063C63.3543 28.9461 61.7691 30.5916 61.7176 30.6301C61.36 30.8974 56.9979 33.9648 56.7092 33.3874C56.4312 32.8315 59.3498 30.5785 59.6202 30.3317C59.6245 30.3278 59.6287 30.324 59.6329 30.3201M59.6329 30.3201C60.7085 29.3374 61.7343 28.2591 62.8567 27.3303C63.5477 26.7584 61.7046 28.707 61.0848 29.3553C59.9332 30.5597 56.7017 34.3281 57.559 32.8992C58.1023 31.9937 58.8583 31.143 59.6329 30.3201ZM59.6329 30.3201C60.2457 29.6692 60.8701 29.0356 61.4102 28.4061C62.9196 26.6467 64.527 24.928 65.9305 23.0812C66.0488 22.9255 66.2168 22.7847 66.2559 22.5931C66.2719 22.5149 66.0904 22.5991 66.0209 22.6383C65.5807 22.8864 64.0919 24.0233 63.9235 24.148C62.604 25.1257 61.8818 25.6669 60.5333 26.6161C59.7428 27.1725 58.4373 28.3422 57.4324 28.6321C57.1044 28.7267 57.8697 28.1054 58.1195 27.8727C58.9931 27.0589 59.1245 26.9555 59.4133 26.7011M59.4133 26.7011C59.6155 26.523 59.8949 26.2708 60.5604 25.6487C61.2139 25.038 61.8894 24.4143 62.5148 23.7482M59.4133 26.7011C59.1524 27.0165 58.9867 27.2698 59.2496 27.1947C59.4473 27.1382 59.5785 26.9464 59.7287 26.8059C60.2497 26.3187 61.2114 25.3048 61.6634 24.7989C61.8801 24.5564 62.1891 24.1687 62.5148 23.7482M62.5148 23.7482C63.0554 23.1722 63.5586 22.5646 63.9777 21.906C64.4661 21.1385 63.4256 22.5718 62.5148 23.7482ZM110.83 3.91422C110.183 4.72999 109.59 5.5718 108.911 6.36441C108.873 6.40911 108.264 7.31783 108.391 6.93901M111.903 3.71909C110.654 4.61151 109.577 5.73211 108.315 6.61379C107.537 7.15712 108.533 5.88135 108.683 5.67057M109.659 4.30453C108.656 4.86645 107.554 5.4349 106.45 5.76273C105.906 5.92439 105.919 5.6716 106.049 5.28028M108.976 2.25546C108.403 3.00934 107.957 3.89603 107.253 4.54303C106.862 4.90198 107.369 3.98665 107.415 3.91422M108.781 2.54819C107.886 3.21964 106.917 3.81357 105.973 4.41294C105.936 4.43636 105.377 4.80989 105.176 4.86828C105.094 4.89244 105.263 4.7021 105.269 4.69482M107.805 2.54819C106.782 3.62887 105.844 4.8392 104.683 5.76813M115.904 4.59726C115.357 5.33978 114.427 5.83627 113.768 6.48369C113.651 6.59896 113.076 7.23019 113.562 6.84146M119.124 4.59726C118.094 5.53041 117.036 6.4309 116.023 7.38354C115.097 8.25552 115.632 7.86694 116.099 7.52448M120.1 5.67056C119.806 6.06506 119.48 6.43554 119.194 6.83603C118.469 7.8537 119.225 6.97455 119.417 7.13417M123.71 5.37784C123.171 5.99054 122.674 6.63931 122.143 7.25885C121.844 7.60809 122.167 7.21358 122.246 7.13417M124.393 5.08511C123.45 5.62664 122.586 6.32956 121.596 6.78724C121.091 7.02075 121.231 6.72675 121.368 6.45115M123.612 4.59726C122.879 5.39432 122.177 6.22 121.466 7.03661M124.783 4.30453C123.725 4.9227 123.015 5.80757 122.246 6.74389M130.638 27.0393C129.472 28.3571 128.388 29.766 127.374 31.2025C126.966 31.7817 126.311 32.5507 126.106 33.2624C126.001 33.6255 126.562 33.2957 126.637 33.2841M132.004 30.6495C131.166 31.6362 130.213 32.5275 129.283 33.425C128.889 33.8048 128.44 34.1338 128.101 34.5633C127.954 34.7491 128.48 34.2771 128.686 34.1622M130.931 32.7962C130.271 33.3984 129.576 33.9651 128.86 34.4983C128.686 34.6276 128.025 35.2387 128.394 34.7477M130.247 33.7719C129.716 34.1375 129.242 34.5833 128.73 34.9753C128.5 35.1513 128.409 35.2177 128.198 35.3439C128.135 35.3822 128.332 35.2768 128.393 35.2355M130.443 34.0646C129.71 34.4191 129.093 35.1791 128.491 35.7234M128.589 35.7234C129.755 35.434 130.919 35.2477 132.101 35.0404M126.54 33.3816C124.261 34.5163 121.978 35.6424 119.709 36.7967M75.6845 17.9682C74.6821 18.8564 73.9187 19.7849 73.2976 20.9786C72.8882 21.7656 72.8967 21.6763 73.4401 21.4951M79.0511 17.0063C77.1477 18.214 75.3466 19.5273 73.5648 20.9073C72.6864 21.5876 72.8171 21.4768 73.2798 21.0142M75.2037 18.6095C73.9379 19.5876 72.5557 20.4366 71.178 21.2458C70.743 21.5013 70.3277 21.9551 69.8242 21.9227C69.6273 21.9099 70.1244 21.6594 70.2339 21.4951M73.2798 18.2888C72.064 19.224 70.9819 20.3457 69.8775 21.4061C69.5201 21.7492 68.5872 22.8824 68.8088 22.4392C68.974 22.1087 69.3313 21.9167 69.5925 21.6554M71.8372 18.4491C69.7657 19.8451 67.8276 21.4609 65.9144 23.0627C65.4874 23.4201 65.121 23.8735 64.6229 24.1225C64.2856 24.2912 64.9264 23.4311 65.1039 23.0983M67.6689 19.411C66.7511 20.3512 65.8633 21.3226 64.9257 22.2433C63.826 23.3232 64.285 22.7083 64.6229 21.9761M65.9054 19.2507C65.1913 20.0669 64.5821 21.144 63.7412 21.8247C62.8048 22.5827 65.1342 19.8556 65.9054 18.9301M68.6307 15.5634C67.3665 16.2657 66.269 17.2658 65.175 18.1997C64.6881 18.6154 64.2615 19.1144 63.7143 19.4466C63.5486 19.5473 63.9815 19.1239 63.9815 18.9301M66.3864 16.5254C65.673 17.008 65.0088 17.8017 64.2132 18.1285C63.702 18.3385 64.8862 17.2492 65.2642 16.846M67.6689 15.8841C67.8486 16.1086 70.2102 14.3502 70.5546 14.1206M71.5164 21.6555C70.1396 21.9997 68.9379 23.0909 67.9895 24.1047C67.2151 24.9325 67.7416 24.5777 68.1498 24.2205M72.6385 21.6555C71.727 22.6809 70.7369 23.6217 69.7706 24.5946C69.5364 24.8304 69.1116 25.0104 69.1116 25.3427M73.7607 22.457C73.5273 22.7966 71.8556 23.9185 71.9973 24.0602M6.42823 11.3953C5.04551 12.6442 4.18424 14.3261 3.22192 15.8841M4.82526 13.8C4.13111 14.928 3.67416 16.2146 3.12414 17.416C2.82465 18.0701 2.4318 18.4672 3.22211 18.1285M7.39021 15.2428C6.35244 16.1209 5.34752 17.0458 4.27296 17.8791C3.48358 18.4913 3.74442 18.1987 4.02358 17.8079M5.94745 13.319C4.71728 14.1977 3.92978 15.6473 3.06177 16.846M5.14578 11.235C4.06843 11.9532 3.12154 12.8823 2.24229 13.8267C1.36909 14.7646 2.2359 13.6189 2.42042 13.3191M4.82525 9.95242C4.02713 10.505 3.35981 11.1911 2.59864 11.7871C2.09727 12.1798 2.6708 11.4891 2.74115 11.3953M4.02349 9.63177C3.77302 9.85149 2.97021 10.754 2.74097 10.754M3.70294 9.15085C3.40613 9.22069 3.12087 9.33474 2.85683 9.48929C2.20296 9.87204 2.71174 9.7634 2.58073 10.1127M66.0656 22.2967C65.757 23.6082 64.7481 24.8429 63.9637 25.8949C63.3236 26.7533 62.9077 27.2202 63.6608 26.1443M65.9054 23.5792L65.8899 23.617C65.2945 25.0684 64.7049 26.5055 63.946 27.881C63.3683 28.9281 63.7936 28.1898 63.9816 27.9078M66.5467 24.2205C64.243 26.3756 62.2631 28.8425 60.2944 31.2744M61.5769 28.549C60.224 29.902 58.8442 31.2198 57.4087 32.4857C56.997 32.8487 55.8807 34.0098 56.1262 33.5188M59.1721 30.6331C57.9396 31.6504 56.9753 32.9041 56.0905 34.2313C55.7501 34.7419 55.2076 35.2387 55.2177 35.8523C55.2223 36.1366 55.6832 35.474 55.9658 35.4426M61.737 31.4347C60.4547 32.0239 59.3206 33.1497 58.2992 34.0888C58.1055 34.2669 56.8743 35.4108 56.6248 35.8523C56.5215 36.035 57.1171 35.5993 57.2482 35.7632M62.5387 32.5569C61.5558 33.1618 60.6935 34.0636 59.8845 34.8726C59.6257 35.1314 58.9848 35.7886 58.7267 36.1729C58.5164 36.4862 58.8658 36.1722 58.8514 36.2442M63.5007 33.9997C62.1695 34.9258 60.7504 36.6482 60.2944 38.1679M62.2181 36.8854C61.3138 37.7411 60.4315 38.6767 59.6531 39.6108M51.0834 7.62508C50.4219 8.92153 49.5474 10.4959 50.9782 8.1509C51.9078 6.62743 52.9083 4.94072 52.6608 3.20822M50.2575 7.18078C49.735 7.18078 50.5618 6.85921 50.6425 6.81938C52.081 6.10897 53.5066 5.38577 54.9243 4.63522M48.7019 6.75653C49.7675 5.6456 50.9085 4.75547 52.096 3.78671M45.4492 6.89796C46.2774 5.40729 48.0677 4.13804 49.2676 2.9382M40.6408 7.88789C40.117 7.25926 43.7148 4.47157 44.1763 4.06955M38.3781 7.03937C37.1756 7.5345 40.1204 5.10461 41.0651 4.21097M35.4085 7.60504C35.1648 7.71529 33.9919 8.34606 34.2457 7.52648C34.5952 6.39798 35.5613 5.42144 36.257 4.4938M30.1758 7.46362C29.656 7.58274 28.3221 8.0623 29.5394 7.14936C30.7994 6.20432 32.2163 5.43732 33.5699 4.63522M29.893 6.47368C29.3965 6.63916 28.0459 7.35068 27.5674 7.07079C27.3295 6.93162 30.1649 5.15606 30.3172 5.05948M27.3476 6.19084C27.0726 6.33517 25.7644 7.05753 25.5091 6.70938C25.229 6.32737 27.4175 4.94149 27.6304 4.77664" stroke="black" stroke-width="2" stroke-linecap="round"/>
</svg>
