<svg width="140" height="44" viewBox="0 0 140 44" fill="none" xmlns="http://www.w3.org/2000/svg">
<path d="M1 5.03712C1.16181 4.99299 1.43436 4.7938 1.7373 4.54126M1.7373 4.54126C2.73965 3.70569 4.07481 2.28602 2.8333 3.96571C2.68439 4.16717 2.02831 4.77403 1.67487 5.19198M1.7373 4.54126C1.7355 4.71055 1.70854 4.94789 1.67487 5.19198M1.7373 4.54126C1.73995 4.29257 1.6883 4.19072 1.5238 4.42999C0.69617 5.63381 1.2847 4.43834 1.6687 3.76826M1.67487 5.19198C1.43823 5.47182 1.33727 5.66697 1.61504 5.59905M1.67487 5.19198C1.65595 5.32916 1.63492 5.46848 1.61504 5.59905M1.61504 5.59905C1.63099 5.59516 1.64817 5.59039 1.66665 5.58473C2.5222 5.32255 3.35409 4.98187 4.16661 4.60856C4.30841 4.5434 5.71792 3.74349 5.55944 4.02523C5.41142 4.28839 5.14855 4.72355 4.88067 5.14573M1.61504 5.59905C1.55928 5.96547 1.51266 6.26303 1.54761 6.25138C2.20498 6.03226 5.10503 3.62345 3.619 5.63235C2.25379 7.47791 3.90872 6.13767 4.47613 5.27521C4.49146 5.25191 4.50802 5.22215 4.52517 5.18803M4.88067 5.14573C4.69403 5.43985 4.50496 5.72768 4.35059 5.94665M4.88067 5.14573C4.71145 5.28981 4.55911 5.4352 4.43073 5.57744M4.88067 5.14573C5.84271 4.32656 7.3498 3.54957 8.09511 3.63238C8.65331 3.69441 7.35155 4.47547 6.95227 4.87046C6.7749 5.04592 6.59764 5.22462 6.4178 5.40168M4.35059 5.94665C4.08736 6.32001 3.925 6.49321 4.04756 6.15615C4.1122 5.9784 4.24688 5.78115 4.43073 5.57744M4.35059 5.94665C4.30934 6.13575 4.26643 6.32239 4.21423 6.50138C4.16692 6.66358 3.56087 8.13339 4.1428 7.37041C4.6844 6.66031 5.21527 5.85085 5.95229 5.32283C6.27888 5.08885 6.39764 5.18706 6.4178 5.40168M4.35059 5.94665C4.37731 5.82414 4.40333 5.7006 4.43073 5.57744M4.43073 5.57744C4.45983 5.44664 4.49048 5.31627 4.52517 5.18803M6.4178 5.40168C5.97417 5.83845 5.51491 6.2652 4.99993 6.60852C4.30985 7.06857 5.25025 6.48868 6.3902 5.7704M6.4178 5.40168C6.42755 5.50549 6.41423 5.63654 6.3902 5.7704M6.3902 5.7704C7.20554 5.25666 8.12297 4.67212 8.61891 4.34666C9.09999 4.03095 8.4957 4.99163 7.91716 5.83698M6.3902 5.7704C6.34107 6.04414 6.24715 6.32965 6.21419 6.41805C5.82668 7.45728 5.16539 8.25974 4.45232 9.08466C4.05743 9.5415 6.78403 7.7262 7.07132 7.51326C7.09126 7.49849 9.34466 5.7667 9.36889 5.79901C9.81093 6.38839 6.78206 9.37911 6.67847 10.1561C6.58774 10.8365 7.49801 9.86228 8.23973 9.11899M7.91716 5.83698C7.58311 6.32509 7.25764 6.77475 7.15465 6.91804C7.0541 7.05794 6.76325 7.48023 6.83323 7.32279C7.07177 6.78607 7.46722 6.27944 7.91716 5.83698ZM7.91716 5.83698C8.25391 5.50584 8.62118 5.21064 8.97604 4.96569C9.68417 4.4769 12.287 3.08045 11.0951 4.89427C10.33 6.05848 9.55297 7.21023 8.71414 8.32277C8.43434 8.69388 8.28651 8.96025 8.23973 9.11899M8.23973 9.11899C8.13969 9.45845 8.50178 9.30569 9.02366 8.63229C9.15636 8.46107 9.29551 8.27855 9.44093 8.08895M8.23973 9.11899C8.46363 8.89462 8.67217 8.69129 8.83319 8.56086C8.90885 8.49958 9.1929 8.26532 9.44093 8.08895M9.44093 8.08895C10.5671 6.62069 12.0687 4.72811 13.8569 4.37047C13.9519 4.35147 13.2022 6.11734 13.1903 6.14424C12.7722 7.08495 12.8287 6.94103 12.4046 7.83469C12.2354 8.19104 11.5339 8.918 11.9284 8.918C12.1058 8.918 12.0721 8.59209 12.1665 8.44182C12.4584 7.97714 12.813 7.52793 13.1903 7.13232C14.2832 5.98601 15.5839 5.06602 16.9045 4.2038C17.1905 4.01704 17.4602 3.78454 17.7854 3.68C17.9007 3.64293 17.6799 3.90315 17.5949 3.98952C16.5718 5.02975 15.4758 5.95255 14.5712 7.10851C14.4192 7.30266 13.9921 7.90188 14.1664 7.72755C15.0754 6.81856 16.0112 5.9389 17.0235 5.14426C18.401 4.06298 19.8844 3.13623 21.4401 2.33479C22.9952 1.53368 22.1347 2.43922 21.4758 3.1562C20.7708 3.92337 20.0322 4.66177 19.291 5.39545M9.44093 8.08895C9.56848 7.99826 9.6865 7.92288 9.76174 7.89421C9.86557 7.85466 9.81951 8.13263 9.76174 8.22754C9.08902 9.33273 8.15275 10.3112 7.38083 11.3465C7.33034 11.4143 5.55827 13.9686 5.9761 13.8703C6.79817 13.6769 9.27479 10.9638 9.88079 11.287C10.2573 11.4878 7.90635 14.2522 7.77368 14.406C7.32848 14.9222 5.89364 16.0011 5.73801 16.7274C5.69642 16.9214 7.61469 15.6536 7.64273 15.6322C7.72304 15.5707 10.0534 13.6723 9.59508 14.7036C8.9784 16.0911 7.86329 17.3396 6.92846 18.5131C6.48207 19.0734 6.01588 19.6179 5.57134 20.1797C5.44022 20.3454 5.00699 20.6621 5.21421 20.7035C5.59129 20.7789 7.09829 19.3243 7.33322 19.1321C7.99746 18.5886 9.53796 16.6333 9.28556 17.4536C9.03754 18.2596 8.2267 19.0635 7.74988 19.7273C7.03838 20.7178 5.18785 23.4177 7.47607 21.3582C7.6636 21.1895 9.77414 18.923 9.85698 18.9892C10.0537 19.1466 8.66338 21.1799 8.61891 21.2511C7.79449 22.5718 6.94883 23.8807 6.16657 25.2272C5.7173 26.0006 5.87553 25.8603 6.4031 25.3926L6.42847 25.3701C7.56925 24.3589 8.68208 23.1943 9.98793 22.3939C10.3061 22.199 9.6325 23.059 9.3808 23.3344C8.07635 24.7619 3.83059 28.6018 5.52373 27.6677C6.96893 26.8703 8.31431 25.8791 9.78555 25.132C10.6603 24.6878 10.8937 25.0053 10.3094 25.751C9.4779 26.8122 8.4512 27.692 7.66654 28.7986C7.53269 28.9874 6.77618 30.1054 7.61893 29.489C8.2693 29.0134 9.05441 27.8082 9.79746 27.5605C10.4198 27.3531 9.30532 28.7775 9.02366 29.37C8.46533 30.5444 6.98001 32.8567 9.19032 31.12C9.33008 31.0102 11.4292 29.1916 11.4522 29.2271C11.721 29.6426 10.8731 30.9919 10.7141 31.2747C10.1497 32.279 9.38723 33.1348 8.78557 34.108C8.59927 34.4094 9.49778 33.991 9.80936 33.8223C9.95501 33.7435 10.153 33.6391 10.3743 33.522M19.291 5.39545C19.0828 5.60159 18.8743 5.80736 18.6663 6.01329C18.5322 6.14614 17.9997 6.67919 17.7854 6.84661C17.6916 6.9199 17.9143 6.64385 17.9997 6.5609C18.4119 6.16045 18.8435 5.76948 19.291 5.39545ZM19.291 5.39545C19.9998 4.80303 20.7485 4.2531 21.5234 3.77524C21.6354 3.70621 24.62 2.12781 24.6781 2.68002C24.756 3.41985 23.6456 4.69669 23.2734 5.2395C22.6912 6.08857 22.0805 6.93035 21.4282 7.72755C21.1812 8.02948 21.955 7.15114 22.2377 6.88232C24.0301 5.17805 26.2358 3.88955 28.5233 2.96573C29.067 2.74615 30.9571 2.0319 29.7376 3.25144C28.8462 4.14285 27.9197 4.98229 27.0709 5.91806C26.9941 6.00282 26.0908 6.92537 26.8567 6.39424C28.1196 5.51831 29.3481 4.60133 30.6542 3.78714C31.1726 3.46397 32.4458 2.45621 33.1423 2.54907C33.7414 2.62895 32.6092 3.64381 32.2375 4.12047C31.5105 5.05294 30.781 5.9733 30.1185 6.95375C29.4658 7.91983 31.5543 5.64108 31.6185 5.58473C32.9117 4.45005 34.2982 3.36045 35.8803 2.65621C36.5003 2.38024 38.0686 1.62329 37.8803 2.27527C37.6382 3.11318 36.7121 3.94696 36.2374 4.65617C35.7014 5.4571 33.8869 7.50543 34.7851 7.15613C35.8712 6.73375 36.9077 5.72746 37.916 5.14426C39.372 4.30205 40.8898 3.54003 42.5111 3.07287C43.6113 2.75588 42.9313 3.20035 42.4992 3.63238C41.3638 4.76783 40.3512 6.02201 39.166 7.10851C37.2923 8.82602 43.206 4.01144 45.3563 2.65621C45.6828 2.45043 46.3385 1.81749 45.8087 2.53717C44.7937 3.91604 43.817 5.31625 42.7492 6.65614C42.4692 7.00753 41.6249 8.05799 41.9159 7.71564C42.8163 6.6564 43.9306 5.78423 45.0468 4.96569C46.1632 4.147 47.3853 3.25867 48.6896 2.75145C49.797 2.3208 47.9432 4.24881 47.8801 4.32285C47.3257 4.97299 46.7912 5.64018 46.247 6.29896M46.247 6.29896C45.9621 6.64375 45.6746 6.98625 45.3801 7.32279C44.9989 7.75844 44.8127 7.81811 45.3087 7.27517C45.6118 6.94338 45.9248 6.6172 46.247 6.29896ZM46.247 6.29896C47.1166 5.44009 48.0536 4.6391 49.0467 3.9419C49.2692 3.7857 52.5281 1.59424 52.8324 1.94194C53.2128 2.37667 49.1354 6.93618 48.6896 7.47755C48.6399 7.53789 48.5322 7.7392 48.5944 7.69183C48.8185 7.52107 49.4999 6.90176 49.6182 6.79899C51.0923 5.51822 52.7254 4.30486 54.5466 3.56096C55.638 3.11517 55.7859 3.45639 55.0704 4.27523C54.2542 5.20934 53.3426 6.08552 52.4323 6.93384M52.4323 6.93384C52.3355 7.02411 52.2386 7.11407 52.1419 7.20375C51.9288 7.40136 51.4799 7.80503 51.2134 8.01326C51.1161 8.08926 51.3823 7.83257 51.4753 7.75136C51.7904 7.47611 52.1093 7.20304 52.4323 6.93384ZM52.4323 6.93384C53.6977 5.87934 55.0262 4.88415 56.4395 4.04904C56.8683 3.79566 58.4363 2.74381 59.0465 2.96573C59.2193 3.02855 58.8715 3.29301 58.7489 3.43001C58.5331 3.67129 57.6514 4.62407 57.5109 4.77522C57.2088 5.10015 56.9066 5.42633 56.6009 5.74962M56.6009 5.74962C55.8816 6.5104 55.1433 7.25517 54.3443 7.92992C53.7019 8.47235 53.44 8.51515 54.1181 7.84659C54.8884 7.08713 55.7105 6.36742 56.6009 5.74962ZM56.6009 5.74962C56.6932 5.68561 56.7862 5.62268 56.8799 5.56092C56.9748 5.49842 58.6936 4.37253 58.1894 5.39426C57.6649 6.45705 56.8768 7.43446 56.2847 8.46563C55.7733 9.35619 53.9285 11.7847 54.7014 11.1084C56.6209 9.42884 58.3734 7.9631 60.9275 7.3466C61.2843 7.26046 59.5483 8.35538 59.4632 8.41801C58.1921 9.35366 56.9452 10.4427 55.9276 11.656C55.3479 12.3471 56.3804 11.7441 56.5228 11.656C57.6207 10.9769 58.6473 10.2122 59.8322 9.67989C59.8465 9.6735 61.6534 8.90047 61.6655 9.25133C61.6926 10.0363 59.839 11.6655 59.3918 12.2037C59.2045 12.4291 59.005 12.6946 58.7925 12.9647M58.7925 12.9647C58.3615 13.5127 57.877 14.0798 57.3323 14.3703C56.8396 14.6331 58.0648 13.5157 58.5108 13.1798C58.5545 13.1469 58.6535 13.0708 58.7925 12.9647ZM58.7925 12.9647C59.6605 12.3021 62.0879 10.4713 62.3322 10.7156C62.4137 10.7971 59.8029 13.8131 59.5942 14.0608C59.5716 14.0876 58.2836 15.4381 58.4751 15.6084C58.5626 15.6861 59.9194 14.5505 59.9751 14.5131C60.9586 13.8546 64.235 12.1296 62.5227 14.6322C61.767 15.7366 60.8385 16.7205 59.9751 17.7393C59.937 17.7842 58.8204 19.2918 58.8918 19.275C59.9147 19.0343 61.0539 17.9889 61.9632 17.4893C62.6119 17.1328 64.7238 15.6013 65.5226 15.7274C65.6256 15.7437 64.0839 17.453 64.0703 17.4655C63.4752 18.0102 62.8342 18.4825 62.1735 18.9291M62.1735 18.9291C61.7984 19.1826 61.4169 19.4278 61.0339 19.6732M62.1735 18.9291C61.7882 19.1689 61.4109 19.4243 61.0339 19.6732M62.1735 18.9291C62.6387 18.6396 63.1156 18.3729 63.6179 18.1678C65.5915 17.3623 63.7137 19.1441 63.2131 19.7511C62.5097 20.6043 61.7686 21.41 60.987 22.1916C60.2883 22.8902 62.3999 21.0813 62.4274 21.0606C62.5268 20.9863 62.6267 20.9128 62.7271 20.8403M61.0339 19.6732C60.9191 19.7467 60.8043 19.8202 60.6894 19.894C60.2412 20.1818 59.8693 20.4175 60.5465 19.9892C60.7093 19.8863 60.8716 19.7803 61.0339 19.6732ZM62.7271 20.8403C63.8567 20.0243 65.0468 19.3241 66.2845 18.6797C66.5868 18.5223 66.8844 18.356 67.1893 18.2035C67.2848 18.1558 67.0505 18.3661 66.975 18.4416C65.9893 19.4274 64.9789 20.3668 63.8798 21.2273C63.8246 21.2705 61.3419 23.2118 61.9751 22.0606C62.2025 21.647 62.4546 21.24 62.7271 20.8403ZM62.7271 20.8403C64.336 18.48 66.656 16.3743 68.8202 14.6679C68.8454 14.648 69.147 14.3814 69.3705 14.2361M69.3705 14.2361C69.5804 14.0996 69.7214 14.0702 69.4987 14.4536C68.8481 15.5742 68.115 16.6895 67.3083 17.7036C65.7019 19.7231 67.2967 16.7384 67.7369 16.1322C68.2333 15.4484 68.7776 14.8187 69.3705 14.2361ZM69.3705 14.2361C69.8567 13.7584 70.3755 13.3123 70.9273 12.8941C71.1191 12.7487 72.6795 11.3612 72.4154 12.4179C71.8712 14.5945 70.438 16.3296 69.2606 18.1797C69.141 18.3677 70.6288 17.2722 70.7249 17.2036C71.2477 16.8301 71.7787 16.4698 72.3156 16.1186M72.3156 16.1186C72.3517 16.095 72.3879 16.0713 72.4242 16.0478M72.3156 16.1186C72.333 16.0993 72.3504 16.08 72.3677 16.0607C72.3737 16.0541 72.4795 15.9355 72.6044 15.7938M72.3156 16.1186C71.2155 17.3385 70.0667 18.5341 68.8559 19.644C66.4538 21.8459 69.7366 17.1183 68.4749 18.1797C67.7929 18.7535 67.16 19.3823 66.4885 19.9685M72.4242 16.0478C73.5951 15.2857 74.793 14.5661 75.9937 13.8494M72.4242 16.0478C71.693 17.1116 70.5349 19.1799 72.4273 18.1321C73.4835 17.5473 74.4999 16.876 75.5779 16.3294M72.4242 16.0478C72.4883 15.9544 72.5492 15.8688 72.6044 15.7938M75.9937 13.8494L75.9986 13.8465C76.4181 13.5961 77.1277 13.0161 76.5462 13.7989C75.8353 14.7559 75.1004 15.6898 74.2844 16.5607C74.1953 16.6558 72.4249 18.0995 72.4273 18.0845C72.4986 17.6278 72.9236 17.3022 73.213 16.9417C74.0811 15.8598 75.0046 14.8219 75.9937 13.8494ZM75.9937 13.8494C76.1911 13.6553 76.3911 13.4638 76.5938 13.2751C77.4022 12.5224 78.201 11.7879 77.3319 13.1917C76.7002 14.2122 76.1415 15.2716 75.5779 16.3294M75.5779 16.3294C75.4098 16.6451 75.2412 16.9606 75.0701 17.275C74.8091 17.7545 74.09 18.9319 73.9309 19.1916M75.5779 16.3294C75.6622 16.2867 75.7469 16.2447 75.832 16.2036C76.295 15.9799 76.3526 16.1078 76.2854 16.3527M73.9309 19.1916C73.8916 19.2558 73.8865 19.2639 73.9309 19.1916ZM73.9309 19.1916C73.9423 19.1731 73.9568 19.1495 73.9748 19.1202C74.5925 18.1165 75.4146 17.1946 76.2854 16.3527M76.2854 16.3527C76.7002 15.9515 77.1261 15.5686 77.5462 15.2036C78.4064 14.4563 79.4735 13.4166 80.5497 12.8058M76.2854 16.3527C76.2502 16.4806 76.181 16.6405 76.1177 16.7988C75.8661 17.4278 74.9249 18.6258 75.0105 19.3107C75.057 19.6825 76.3498 18.8018 76.4153 18.7631C78.4334 17.5705 76.7586 19.8377 76.3558 20.7392C75.9048 21.7485 76.049 21.6814 76.8081 20.9892C77.7483 20.132 78.6463 19.2159 79.6176 18.394C80.4221 17.7133 78.5795 20.3654 78.3795 20.6559C77.6101 21.7734 79.4845 20.1321 79.4866 20.1321C79.5041 20.1321 77.8018 23.7987 77.9033 23.7987C78.5393 23.7987 81.5322 21.1544 79.9271 23.013C79.2469 23.8006 78.5792 24.6225 78.0685 25.5341M80.5497 12.8058C80.7311 12.7029 80.9128 12.6121 81.0938 12.537C81.0973 12.5355 80.825 13.0602 80.5341 13.6161M80.5497 12.8058C80.5163 13.1179 80.5071 13.3983 80.5341 13.6161M80.5497 12.8058C80.6832 11.5569 81.2029 9.80093 81.3319 9.52513C81.8781 8.35644 82.6561 7.32844 83.3333 6.2382M80.5341 13.6161C80.2322 14.1927 79.9103 14.803 79.8557 14.8941C79.5277 15.4408 79.209 15.9947 78.8868 16.5465M80.5341 13.6161C80.5817 14.0002 80.7421 14.1893 81.0819 14.0131C81.145 13.9804 81.6976 13.7452 82.1054 13.5858M78.8868 16.5465C78.5517 17.1205 78.2128 17.6922 77.8557 18.2512C77.2605 19.1828 77.8526 17.8432 78.0105 17.6202C78.2776 17.2431 78.5732 16.8872 78.8868 16.5465ZM78.8868 16.5465C79.4465 15.9385 80.0632 15.3791 80.6771 14.8346C80.8435 14.6869 81.5918 13.8853 82.1054 13.5858M82.1054 13.5858C82.2215 13.518 82.3257 13.4759 82.4084 13.473M82.1054 13.5858C82.2237 13.5395 82.3299 13.4996 82.4084 13.473M82.4084 13.473C82.4277 13.4723 82.4459 13.4737 82.4628 13.4774C82.4706 13.4792 82.3661 13.6435 82.1877 13.9136M82.4084 13.473C82.4944 13.4437 82.5471 13.4303 82.5461 13.4417C82.5359 13.5537 82.3872 13.7266 82.1877 13.9136M82.1877 13.9136C81.3981 15.1091 79.161 18.376 78.8081 18.775C78.2704 19.3828 78.8043 17.9745 78.8081 17.9655C79.3145 16.7694 80.1975 15.7434 81.0938 14.8227C81.2152 14.6979 81.7981 14.2788 82.1877 13.9136ZM83.3333 6.2382C83.4643 6.02717 83.5916 5.8138 83.7128 5.59663C84.5599 4.07767 82.4974 5.9469 82.2842 6.13234C81.7806 6.57042 81.2913 7.02798 80.7966 7.47955M83.3333 6.2382C82.4823 6.79499 81.494 7.37754 80.7966 7.47955M83.3333 6.2382C83.9609 5.82753 84.5137 5.43086 84.8199 5.2514C86.3919 4.32987 87.9965 3.40665 89.665 2.66812C90.6661 2.22501 90.4839 2.65553 90.0698 3.4062C89.8976 3.71836 89.7156 4.02658 89.5229 4.32828M80.7966 7.47955C80.0921 8.12272 79.3767 8.75373 78.5938 9.29895C77.8478 9.81847 77.6065 9.76603 78.0224 8.918C78.4065 8.13465 79.3168 6.75186 80.0997 5.6094M80.7966 7.47955C80.1478 7.57446 79.7509 7.25339 79.9509 6.10853C79.9677 6.01265 80.025 5.83177 80.0997 5.6094M80.0997 5.6094C80.4921 5.03674 80.8525 4.52447 81.0985 4.17833M80.0997 5.6094C80.1239 5.5373 80.15 5.46083 80.177 5.38149M81.0985 4.17833C81.4539 3.67833 81.5708 3.52501 81.2009 4.03714C81.167 4.08406 81.1329 4.13115 81.0985 4.17833ZM81.0985 4.17833C80.8085 4.57664 80.502 4.9832 80.177 5.38149M80.177 5.38149C79.3119 6.44167 78.316 7.44301 77.1534 8.07278C75.6591 8.88219 79.0146 5.21407 80.1414 3.9419C81.0113 2.95976 80.5141 4.39369 80.177 5.38149ZM89.5229 4.32828C89.0917 5.00359 88.6069 5.64627 88.0579 6.22757C87.5928 6.7201 87.229 6.82103 87.7603 6.13234C88.2725 5.46837 88.8695 4.85956 89.5229 4.32828ZM89.5229 4.32828C89.7088 4.17717 89.8992 4.03233 90.0936 3.89428C90.264 3.77323 91.5825 2.85533 90.8079 3.77524C90.1038 4.61138 89.2848 5.39632 88.665 6.299C87.7252 7.66793 91.5105 4.5864 92.9388 3.73952C93.758 3.25379 95.1229 2.23889 96.1292 2.12051C96.7217 2.0508 95.5049 3.14321 95.1173 3.59667C94.3414 4.50433 93.5573 5.40285 92.7959 6.32281C92.1731 7.07541 93.7217 5.44837 93.7602 5.41807C94.9032 4.51865 96.1319 3.70318 97.3554 2.91811C97.4728 2.84275 98.6816 1.92804 98.0934 2.75145C97.4135 3.70334 96.6968 4.62889 96.0221 5.58473C95.4475 6.39861 94.8026 7.2727 96.1411 6.23948C97.4018 5.26629 98.6935 4.37689 100.07 3.57286C100.618 3.25235 101.321 2.85993 101.891 2.54907C102.092 2.43929 102.582 2.05408 102.522 2.27527C102.304 3.07408 100.949 4.1792 100.451 4.81093C100.014 5.36429 99.6341 5.85525 99.2363 6.42995C99.0438 6.70804 98.3743 7.29898 98.7125 7.29898C98.9095 7.29898 100.173 5.99517 100.308 5.89425C101.574 4.94661 102.94 4.14392 104.212 3.20382C104.681 2.85752 105.983 1.69936 105.593 2.13241C104.883 2.92183 104.176 3.72081 103.456 4.50504M103.456 4.50504C103.237 4.74351 103.017 4.98063 102.796 5.21569C101.964 6.09832 99.2629 8.44721 101.629 6.12043C102.21 5.54874 102.823 5.01412 103.456 4.50504ZM103.456 4.50504C104.314 3.81577 105.209 3.17332 106.117 2.54907C106.13 2.54021 108.839 0.479071 108.212 1.63242C107.498 2.94651 106.543 4.1315 105.712 5.37045C105.525 5.65003 104.844 6.67106 104.665 7.0847C104.62 7.18688 104.911 7.13072 104.998 7.06089L105.068 7.00492C106.421 5.91596 107.707 4.88118 109.26 4.06095C109.53 3.91806 113.469 2.33687 113.331 2.68002C112.953 3.62493 111.649 4.51869 110.962 5.22759C110.432 5.77458 108.9 7.46845 109.438 6.92994C111.959 4.40941 114.639 2.63195 117.903 1.15624C119.135 0.599127 117.781 1.69572 117.569 1.89432C116.242 3.13964 114.857 4.32048 113.569 5.60854C112.873 6.30489 112.603 6.64695 113.641 6.01329C115.441 4.91408 117.132 3.66043 119.057 2.77526C119.597 2.52725 121.128 1.78547 120.76 2.25146C120.093 3.09556 119.183 3.83149 118.379 4.53713C118.042 4.83231 116.966 5.62825 117.355 5.40616C118.573 4.71007 119.8 4.01703 121.045 3.37048C121.531 3.11826 123.694 1.68637 124.283 1.89432C124.612 2.01012 123.792 2.38743 123.545 2.6324C122.909 3.26283 122.484 3.71114 121.926 4.41808C121.768 4.61926 121.162 5.43717 121.022 5.7752C120.976 5.88509 121.279 5.83963 121.379 5.7752C122.99 4.73787 124.53 3.58076 126.141 2.53717C126.561 2.26472 127.746 1.39503 127.45 1.79908C126.894 2.55799 126.217 3.25301 125.605 3.96571C125.015 4.65159 124.45 5.40997 123.772 6.01329C123.133 6.58108 125.082 4.91511 125.76 4.39427C126.908 3.51173 128.139 2.79369 129.45 2.18003L129.458 2.17618C130.085 1.88281 130.671 1.60834 130.021 2.44193C128.845 3.95235 125.28 8.20265 126.974 7.31089C127.88 6.83419 128.647 6.03149 129.51 5.47759C130.679 4.72652 131.941 4.15556 133.164 3.50143C134.202 2.94618 132.649 4.01852 132.629 4.03714C131.54 5.01857 130.631 6.14992 129.76 7.32279C129.258 7.9986 129.741 7.58547 130.117 7.32279C131.544 6.32368 133.001 5.42034 134.545 4.60856C135.87 3.91167 137.253 3.32136 138.569 2.60859C139.325 2.19878 137.221 3.68686 136.628 4.31094C135.786 5.198 134.944 6.06449 134.045 6.89423C133.866 7.05977 133.671 7.22985 133.509 7.41803C133.446 7.49262 133.653 7.28363 133.724 7.21565C134.91 6.07861 138.856 3.17339 137.783 4.41808C135.676 6.86262 133.272 8.98989 131.045 11.3227C131.021 11.348 128.636 14.0346 128.736 14.0846C128.814 14.1235 131.378 11.5554 131.581 11.3822C132.622 10.492 134.589 8.47706 133.152 11.0965C132.548 12.1988 131.789 13.2005 131.14 14.275C130.967 14.5625 130.219 15.6006 130.926 14.8703C131.92 13.8436 133.176 13.0895 134.45 12.4656C134.461 12.46 137.118 11.3909 136.902 11.7513C136.123 13.0494 134.462 14.1441 133.379 15.156C131.901 16.5367 130.225 17.9563 129.14 19.6916C128.265 21.0928 131.549 17.2712 133.105 16.7155C133.791 16.4702 132.799 18.165 132.438 18.7988C132.198 19.2206 128.84 24.0789 129.021 24.2272C129.107 24.2971 133.331 21.8886 133.331 22.1082C133.331 22.768 132.229 23.7616 131.879 24.2034C130.915 25.4166 130.054 26.7231 129.077 27.9255M129.077 27.9255C128.988 28.0349 128.898 28.1434 128.807 28.251C128.655 28.4306 128.833 28.2082 129.077 27.9255ZM129.077 27.9255C129.276 27.6949 129.519 27.4243 129.664 27.2986C130.591 26.4951 131.662 25.8536 132.783 25.3582C133.724 24.9426 133.077 25.763 132.804 26.1089L132.795 26.1201C131.782 27.4047 130.626 28.5854 129.482 29.7529L129.414 29.8224C128.877 30.3706 128.342 30.9306 127.798 31.4819M127.798 31.4819C127.084 32.2047 126.353 32.9128 125.581 33.5604C125.244 33.8431 127.329 31.8657 127.438 31.7747C127.557 31.6757 127.677 31.5781 127.798 31.4819ZM127.798 31.4819C129.346 30.2461 131.008 29.2383 132.736 28.2629C134.254 27.4053 134.224 27.4919 133.236 28.8462C131.965 30.5879 130.511 32.1475 128.974 33.6556C128.905 33.723 128.836 33.7933 128.765 33.8661M128.765 33.8661C128.323 34.3233 127.848 34.8763 127.352 35.3842M128.765 33.8661C128.382 34.1663 128.009 34.4645 127.661 34.7492M128.765 33.8661C130.278 32.6824 131.962 31.4679 132.998 30.9295C134.067 30.3735 132.251 32.5283 132.167 32.6283L132.164 32.6318C130.864 34.212 129.4 35.6552 127.938 37.0841L127.861 37.1591C127.382 37.6278 126.801 38.1964 126.283 38.6317C126.143 38.7494 125.823 39.0624 125.795 38.8817C125.671 38.0717 126.79 36.5328 127.117 35.8223C127.145 35.7615 127.241 35.5916 127.352 35.3842M127.352 35.3842C126.922 35.8249 126.475 36.2317 126.022 36.5127C124.733 37.3103 125.877 36.2068 127.661 34.7492M127.352 35.3842C127.458 35.1861 127.576 34.9536 127.661 34.7492M127.661 34.7492C127.748 34.5384 127.798 34.3575 127.76 34.2747C127.685 34.1127 127.442 34.4435 127.307 34.5604C126.772 35.0243 126.267 35.5211 125.736 35.9889C124.092 37.4363 122.37 38.8328 120.522 40.0127C119.559 40.6274 118.179 41.3422 119.379 39.7508C120.665 38.0449 124.853 33.2354 123.236 34.6318C122.102 35.6112 121.12 36.7777 120.022 37.7984C119.839 37.9684 116.598 40.7118 116.641 40.2269C116.746 39.0297 117.668 37.7524 118.284 36.7746C118.662 36.1733 118.734 36.0945 119.093 35.5842C119.228 35.3923 119.062 35.5985 118.903 35.7508C117.784 36.8218 116.614 37.8527 115.426 38.846C114.874 39.3079 112.262 41.8475 111.379 41.4293C110.899 41.2018 112.018 39.3232 112.129 39.1317C112.473 38.5372 113.814 36.9958 113.272 37.4175C112.804 37.7815 108.322 41.3813 108.284 41.2269C108.091 40.4566 109.307 39.037 109.546 38.3222C109.891 37.2869 107.91 39.0939 107.831 39.1555C107.069 39.7554 106.172 40.6084 105.212 40.8936C104.669 41.0552 105.921 40.0078 106.284 39.5722C107.532 38.0739 104.755 40.3628 104.355 40.6079C103.581 41.083 102.359 42.0126 101.391 42.0126C100.583 42.0126 101.815 40.0251 101.927 39.846C102.074 39.6109 103.002 38.5492 102.07 39.1317C100.892 39.8674 99.707 40.4579 98.403 40.9412C95.686 41.9482 98.947 39.3496 99.7125 38.846C99.8393 38.7625 100.228 38.5253 100.093 38.596C99.6975 38.8044 99.1634 39.1239 98.795 39.3443L98.7125 39.3936C97.3979 40.1794 96.1079 41.0293 94.7364 41.715C94.0785 42.044 93.5609 42.1494 94.1173 41.2626C95.0059 39.8464 96.3449 38.7439 97.5696 37.6318C98.0136 37.2286 98.4305 36.8522 97.6411 37.5603C96.3564 38.7126 95.0632 39.8952 93.6173 40.846C92.9804 41.2648 91.3093 42.4232 90.4269 41.965C89.699 41.5871 91.9425 39.0983 92.1531 38.8341C92.6057 38.2663 94.0832 36.666 93.5697 37.1794C92.9226 37.8265 92.2363 38.4312 91.5102 38.9889C91.4617 39.0261 89.2641 40.6063 89.2246 40.2508C89.1324 39.4216 90.867 37.7477 91.3317 37.108C91.5155 36.8549 91.7184 36.6143 91.8793 36.3461C91.9373 36.2493 91.6991 36.4826 91.6174 36.5603C90.7201 37.4142 89.7937 38.2439 88.7841 38.9651C88.3441 39.2794 87.0383 40.1078 87.7365 38.8222C88.4438 37.5199 89.6638 36.4371 90.165 35.0247C90.2902 34.6719 89.3975 35.181 89.1174 35.4294C88.2803 36.1718 87.4853 36.9674 86.5818 37.6318C85.7656 38.2319 86.4237 37.1443 86.5579 36.8937C87.1473 35.7936 87.9568 34.7641 88.3317 33.5604C88.5625 32.8194 87.7778 33.7602 87.7127 33.8223C86.8422 34.6532 85.9188 35.576 84.808 36.0842C83.2873 36.7798 86.0505 32.6708 86.1056 32.12C86.1063 32.1131 83.4029 33.8656 83.6175 33.4056C84.0726 32.4304 84.8703 31.5865 85.4746 30.7033C85.6574 30.4361 86.6793 28.8296 85.4984 29.489C84.6915 29.9397 81.9492 32.411 83.9747 30.1081C84.316 29.72 85.479 28.7235 85.0223 28.9653C84.0678 29.4705 83.2889 30.4237 82.3675 31.0128C82.0038 31.2454 80.9529 31.7878 81.1295 31.3938C81.5607 30.4318 82.2887 29.5929 82.7961 28.6676C84.3316 25.8676 82.0666 28.4791 80.8795 28.9414C78.3258 29.936 80.4283 26.5347 80.9271 25.6558C81.3242 24.9562 82.2192 23.9063 82.2842 23.0606C82.2979 22.8828 81.9248 23.1413 81.7842 23.2511C80.8495 23.9813 79.9732 24.7937 79.0581 25.5486C78.3951 26.0956 76.8329 27.93 76.9867 27.0843C77.0684 26.635 77.5863 26.0421 78.0685 25.5341M78.0685 25.5341C78.3509 25.2366 78.6211 24.9682 78.7843 24.7749C78.8688 24.6747 80.4921 23.1762 80.4747 23.263C80.3059 24.1073 78.8904 25.0726 78.3319 25.6796C78.118 25.9121 77.4904 26.6303 77.951 25.751C77.9891 25.6782 78.0284 25.6059 78.0685 25.5341ZM72.6044 15.7938C72.6535 15.727 72.6982 15.6685 72.7368 15.6203C72.8175 15.5194 73.078 15.2326 72.9987 15.3345C72.9356 15.4157 72.756 15.6217 72.6044 15.7938ZM66.4885 19.9685C66.3509 20.0886 66.2118 20.2069 66.0702 20.3226L66.0682 20.3242C66.0077 20.3738 64.869 21.3079 65.4274 20.5368C65.9146 19.864 66.5455 19.3001 67.1416 18.7273C67.4828 18.3995 66.8382 19.4746 66.4885 19.9685ZM66.4885 19.9685C66.4576 20.0122 66.429 20.0513 66.4036 20.0845C65.4831 21.2867 63.0922 24.7793 63.1368 24.0874M63.1368 24.0874C63.1405 24.0296 63.1612 23.9425 63.2012 23.8225C63.2024 23.8191 63.2035 23.8158 63.2046 23.8124M63.1368 24.0874C63.2777 23.9281 63.4182 23.7684 63.5584 23.6082C64.1023 22.9866 63.6802 23.3627 63.2046 23.8124M63.1368 24.0874C62.2202 25.1233 61.2861 26.1397 60.3203 27.132C59.7828 27.6842 59.4712 27.993 58.9513 28.5129C58.7846 28.6796 58.2396 28.9502 58.4632 29.0248C58.7671 29.1261 60.9433 27.4029 61.2013 27.251C61.3215 27.1802 64.2295 25.4776 63.4512 26.2034C61.6368 27.8955 59.8031 29.5705 58.0228 31.2985C57.2839 32.0157 56.3942 32.8052 57.7609 32.1557C59.2383 31.4535 62.5791 30.104 60.3322 33.0604C60.1809 33.2596 59.9943 33.4799 59.78 33.7156M63.2046 23.8124C63.2089 23.7998 63.2133 23.7873 63.2179 23.7747M63.2046 23.8124C62.8355 24.1615 62.4342 24.5549 62.4274 24.5606C62.2681 24.6934 62.1078 24.8252 61.9468 24.9561M63.2179 23.7747C63.4139 23.2387 63.8799 22.751 64.2726 22.3582C64.3497 22.2812 64.5837 22.0773 64.5464 22.1797C64.3621 22.6865 63.6666 23.3007 63.3322 23.6558C63.2961 23.6941 63.258 23.7338 63.2179 23.7747ZM63.2179 23.7747C62.8954 24.1043 62.4478 24.516 61.9468 24.9561M61.9468 24.9561C59.8374 26.8094 56.7823 29.1664 58.1418 28.0129C59.3816 26.9609 60.685 25.983 61.9468 24.9561ZM59.78 33.7156C58.731 34.8693 57.0196 36.3892 55.5388 37.5818M59.78 33.7156C59.0677 34.2165 58.2675 34.8163 57.8085 35.1199C57.3035 35.4539 56.7717 35.7953 56.2409 36.1532M59.78 33.7156C60.732 33.0461 61.5271 32.5532 61.1417 33.1795C61.0239 33.3709 60.8677 33.6099 60.6818 33.8762M55.5388 37.5818C53.5403 39.1915 51.9619 40.2049 52.999 38.9174C53.8645 37.843 55.0501 36.9564 56.2409 36.1532M55.5388 37.5818C55.3201 37.9703 55.1281 38.3629 55.0823 38.7746C55.0729 38.8598 57.5993 36.9464 57.8323 37.1794C57.8429 37.19 57.8524 37.2024 57.8608 37.2165M55.5388 37.5818C55.8026 37.1133 56.1053 36.6507 56.2371 36.1675C56.2384 36.1627 56.2397 36.1579 56.2409 36.1532M56.2409 36.1532C56.3935 35.5859 56.2738 35.5411 55.7371 35.8223C54.4712 36.4854 53.37 37.4913 52.1419 38.227C51.8909 38.3774 50.7052 39.0587 50.261 39.1555C50.08 39.195 50.2458 38.7567 50.3562 38.6079C51.0246 37.7075 51.7439 36.8777 52.3324 35.9175C52.787 35.1757 51.9836 36.2896 51.9753 36.2984C50.8036 37.5425 49.3966 38.539 48.0348 39.5603C46.4212 40.7705 48.1361 38.7777 48.9025 37.8934M60.6818 33.8762C59.7079 35.2713 57.9194 37.4175 56.5704 37.4175C55.9668 37.4175 57.2907 36.4438 57.7132 36.0127C58.4535 35.2576 59.5785 34.2611 60.6818 33.8762ZM60.6818 33.8762C60.8399 33.821 60.9976 33.7784 61.1537 33.7509C61.978 33.6054 60.0592 35.0202 59.4632 35.608C58.9243 36.1394 58.3934 36.6788 57.8608 37.2165M57.8608 37.2165C57.4061 37.6757 56.9502 38.1335 56.4871 38.5841C55.8821 39.1728 56.1093 38.9933 56.5471 38.6477L56.5823 38.6198C57.0057 38.2856 57.445 37.9873 57.9 37.7185M57.8608 37.2165C57.9196 37.3152 57.9253 37.4956 57.9 37.7185M57.9 37.7185C58.6242 37.2905 59.3879 36.9371 60.1894 36.6318C61.1391 36.27 59.8659 37.3592 59.7846 37.4413C59.0715 38.1622 58.2992 38.8203 57.7132 39.6555C57.018 40.6466 57.7841 38.7386 57.9 37.7185ZM48.9025 37.8934C49.0323 37.7436 49.135 37.6256 49.1896 37.5603C49.4606 37.2366 50.4113 36.4042 50.1539 36.7389C49.8318 37.1576 49.396 37.5412 48.9025 37.8934ZM48.9025 37.8934C47.7323 38.7285 46.2376 39.3871 45.1659 39.9174C43.5647 40.7098 41.3182 41.9547 39.4517 41.9174C38.4616 41.8976 40.3372 39.7913 40.4278 39.6793C40.5475 39.5316 42.3921 37.7128 42.2373 37.4651C42.1649 37.3492 38.8804 39.5504 38.6422 39.6793C37.3713 40.3671 35.1108 41.4248 36.3803 39.2032C36.4934 39.0053 37.4459 37.8271 37.3327 37.5722C37.2021 37.2784 34.6784 39.0447 34.5708 39.1079C34.2574 39.2919 29.4993 41.8365 30.0709 40.4174C30.4718 39.4221 31.3165 38.6009 32.047 37.846C32.8467 37.0198 32.8952 37.0822 31.9756 37.7627C30.8277 38.6121 29.5647 39.2682 28.2971 39.9174C27.7768 40.1839 26.3724 41.1106 26.69 40.6198C27.147 39.9135 27.7216 39.2531 28.2852 38.6317C28.4903 38.4057 28.6919 38.2102 28.8243 38.0874M28.8243 38.0874C29.0023 37.9224 29.0554 37.8884 28.8243 38.0874ZM28.8243 38.0874C28.7325 38.1665 28.5958 38.2823 28.4043 38.4413C26.1174 40.3394 22.3816 41.6652 19.3806 41.5841C17.928 41.5448 23.615 37.9658 22.1901 38.2508C21.2799 38.4328 20.2041 39.2285 19.3687 39.6198C18.7553 39.9071 17.136 40.9889 17.4997 40.4174C17.9234 39.7515 18.8584 39.1972 19.4878 38.7746C20.1471 38.3319 20.6073 38.0747 21.2734 37.6437C21.6913 37.3733 22.9484 36.7625 22.452 36.727C21.896 36.6873 20.5311 37.8485 20.0949 38.0841C18.7157 38.8292 17.2667 39.5167 15.7854 40.0365C14.6927 40.4199 15.29 39.5139 15.6426 39.0127C16.4132 37.9171 17.6021 36.9939 18.1663 35.7627C18.3552 35.3507 17.2448 35.8706 16.8449 36.0842C15.8427 36.6196 14.2328 38.0246 13.0593 38.0246C12.7296 38.0246 14.8331 35.5842 15.0236 35.3937C15.2672 35.1501 15.43 34.9904 15.5287 34.895M15.5287 34.895C15.7094 34.7203 15.6753 34.7607 15.5287 34.895ZM15.5287 34.895C15.3439 35.0643 14.9802 35.3829 14.6426 35.608C13.2498 36.5365 11.7233 37.3989 10.1427 37.9651C8.71952 38.4749 10.1063 36.9702 10.357 36.6556C11.0818 35.7462 12.0077 34.9052 12.595 33.8937C13.0575 33.0973 11.1536 34.3244 11.0593 34.3699C10.9437 34.4257 9.38546 35.2137 9.23794 34.8818C9.13498 34.6501 10.1519 33.7389 10.2617 33.6318C10.2977 33.5968 10.3353 33.56 10.3743 33.522M10.3743 33.522C10.8359 33.0724 11.4997 32.4468 12.1188 32.3342C12.8569 32.2 11.3765 32.9917 10.3743 33.522ZM4.52517 5.18803C4.58177 4.9788 4.64913 4.77525 4.73803 4.58475C4.83033 4.38696 4.65941 4.92108 4.52517 5.18803ZM1.6687 3.76826C1.72594 3.66839 1.77863 3.58018 1.82141 3.51334C1.99805 3.23735 1.87612 3.4542 1.6687 3.76826ZM1.6687 3.76826C1.46 4.08428 1.16474 4.49873 1 4.60856M49.2133 15.9655C48.456 15.9655 47.8074 16.525 47.1419 16.8345C44.7514 17.9464 42.1803 18.4168 39.7373 19.394C38.0888 20.0534 36.4963 21.1251 35.0707 22.1797C33.8036 23.117 32.3145 23.8645 31.2136 24.9653M40.4277 12.1084C39.579 12.3696 39.0739 13.2568 38.5706 13.9179C37.3607 15.507 35.5972 16.4695 33.9873 17.5964C31.9848 18.9982 30.0953 20.5482 28.0589 21.9059C26.6952 22.815 25.2561 23.5708 23.928 24.5368M115.426 10.1799C112.667 10.3922 110.004 12.9746 107.617 14.1679C102.972 16.4907 97.8812 18.1918 93.9983 21.7511M125.498 13.3941C122.025 14.5916 119.301 17.3322 116.141 19.1321C113.273 20.7649 110.212 21.9408 107.093 22.9892C105.666 23.4689 104.594 23.8757 103.427 24.751M87.8564 4.93819C86.6768 5.57336 86.1768 7.49044 85.2385 8.42868M86.46 4.58913L81.9224 9.65035M83.8423 5.11271C84.6772 3.6997 85.972 2.85958 86.4602 1.27316M85.2385 7.38153C84.8485 8.51242 84.0386 9.51964 83.8423 10.6975M80.8753 8.77773C79.785 9.17418 79.4713 11.1377 78.6064 11.5701M82.795 9.82487C82.5137 10.2624 82.276 10.6929 81.9224 11.0465M92.2195 39.1451C92.8506 38.077 93.7537 37.4181 94.8374 36.8762M83.1442 30.5933C82.6395 31.509 82.1141 32.4095 81.748 33.3857M80.5263 27.9755C80.1936 28.9734 78.5219 29.9366 77.7339 30.5933M82.2715 30.4188C81.614 30.4919 81.2386 30.9127 80.7977 31.3787C80.3705 31.8303 80.2886 32.2438 80.0027 31.815M80.0028 29.3717C79.5293 29.9634 79.1301 30.6951 79.1301 31.466M59.2341 31.815C61.0472 31.5612 62.6187 30.0776 64.2954 29.3717M59.7578 29.8952C60.6093 28.8309 61.8322 28.1073 62.8993 27.2774M41.7817 39.3196C41.4202 39.862 42.9502 38.7256 43.4688 38.3306C44.5182 37.5315 45.3446 36.6273 45.9703 35.48M44.5742 39.3196C45.4911 38.967 46.2902 37.712 47.0176 37.0508M46.4939 38.0979C47.1991 37.3486 47.8861 36.5814 48.5882 35.8291M47.0174 39.6686C46.2175 40.6369 45.7284 41.8259 44.9231 42.8101M44.9233 40.1922C43.3768 40.9581 41.6309 42.156 39.8621 41.7629M41.7818 38.9705C41.1437 39.4123 39.3862 41.0648 38.6404 41.0648M39.862 38.796C38.5485 39.6614 37.2323 40.501 35.8479 41.2394M36.5461 39.8432C35.8366 40.8106 34.9713 41.5325 33.9282 42.112M34.4516 39.8432C33.6324 40.5199 32.9348 41.1252 32.0083 41.5884M32.5318 40.7158C31.4996 41.4684 30.6213 41.7323 29.3904 41.9375M30.2632 40.1922C29.0862 40.8648 27.965 41.5921 26.5981 41.7629M27.6453 40.0177C26.122 40.946 24.8273 42.1065 23.1077 42.6356M23.1076 41.4139C22.2219 41.4631 21.3618 41.6176 20.4897 41.7629M23.9802 39.6686C24.6887 38.7445 25.6915 38.1037 26.4236 37.2253M23.8057 40.1922C24.0586 39.2647 24.5639 38.5854 25.3764 38.0979M21.5369 38.447C22.3053 37.7999 23.1469 37.2572 23.9802 36.7017" stroke="black" stroke-width="2" stroke-linecap="round"/>
</svg>
